<?xml version="1.0" encoding="utf-8"?>
<!-- Generator: Adobe Illustrator 26.0.3, SVG Export Plug-In . SVG Version: 6.00 Build 0)  -->
<svg version="1.1" id="Layer_1" xmlns="http://www.w3.org/2000/svg" xmlns:xlink="http://www.w3.org/1999/xlink" x="0px" y="0px"
	 viewBox="0 0 1050 800" style="enable-background:new 0 0 1050 800;" xml:space="preserve">
<style type="text/css">
	.st0{fill:#F3EE96;}
	.st1{fill:#DBDBDB;}
	.st2{fill:#FBD1B4;}
</style>
<polygon class="st0" points="424.13,609.48 424.13,729 374.48,729 374.48,626.74 374.48,625.74 374.48,609.48 "/>
<rect x="797.74" y="609.48" class="st0" width="46.39" height="119.52"/>
<rect x="702.26" y="532.26" class="st1" width="47.5" height="27.74"/>
<rect x="751.76" y="532.26" class="st1" width="43.98" height="27.74"/>
<rect x="760.57" y="487.74" class="st1" width="35.17" height="42.52"/>
<polygon class="st1" points="749.76,487.74 749.76,530.26 702.26,530.26 702.26,487.74 720.43,487.74 721.43,487.74 "/>
<polygon class="st1" points="763.65,421.52 763.65,454.15 749.76,454.15 749.76,485.74 721.43,485.74 721.43,421.52 "/>
<rect x="751.76" y="456.15" class="st1" width="43.98" height="29.59"/>
<rect x="765.65" y="421.52" class="st1" width="30.09" height="32.63"/>
<rect x="765.65" y="385.13" class="st1" width="30.09" height="34.39"/>
<rect x="797.74" y="385.13" class="st1" width="35.69" height="106.61"/>
<rect x="765.65" y="353.74" class="st1" width="67.78" height="29.39"/>
<rect x="721.43" y="353.74" class="st1" width="42.22" height="65.78"/>
<polygon class="st1" points="428.04,532.26 428.04,560 388.78,560 388.78,559.96 390.78,559.96 390.78,532.26 "/>
<polygon class="st1" points="388.78,559.96 388.78,560 359.83,560 359.83,559.96 361.83,559.96 361.83,532.26 388.78,532.26 "/>
<polygon class="st1" points="359.83,559.96 359.83,560 327.48,560 327.48,532.26 359.83,532.26 "/>
<rect x="387.46" y="483.93" class="st1" width="40.58" height="46.33"/>
<rect x="327.48" y="483.93" class="st1" width="48.91" height="46.33"/>
<polygon class="st2" points="325.48,562 325.48,625.74 299.83,625.74 299.83,483.93 325.48,483.93 325.48,530.26 325.48,532.26 
	325.48,561 "/>
<path class="st2" d="M428.04,448.5v33.43H297.83v145.81h74.65V729H70.06c-3.37-2.78-17.14-14.65-30.73-33.83
	C25.04,675.01,8,642.37,8,601.41c0-75.14,10.4-137.48,144.98-255.91c66.88-58.84,139.14-100.13,188-124.41
	c43.1-21.42,76.04-33.72,87.02-37.62V448.5H428.04z"/>
<rect x="430.04" y="448.5" class="st2" width="142.26" height="111.5"/>
<polygon class="st2" points="541.52,598 541.52,693.04 529.43,693.04 529.43,729 426.13,729 426.13,598 "/>
<polygon class="st2" points="795.74,598 795.74,729 531.43,729 531.43,695.04 543.52,695.04 543.52,598 "/>
<polygon class="st2" points="1045,624.61 1045,729 846.13,729 846.13,609.48 1016.3,609.48 1016.3,624.61 "/>
<polygon class="st2" points="1045,492.74 1045,622.61 1018.3,622.61 1018.3,607.48 871.43,607.48 871.43,503.7 904.17,503.7 
	904.17,492.74 "/>
<rect x="871.43" y="402.74" class="st2" width="173.57" height="88"/>
<polygon class="st2" points="719.43,353.74 719.43,485.74 700.26,485.74 700.26,560 574.3,560 574.3,448.5 662,448.5 662,353.74 "/>
<polygon class="st2" points="1045,277.52 1045,400.74 871.43,400.74 871.43,351.74 868.04,351.74 868.04,322.04 936.48,322.04 
	936.48,277.52 "/>
<polygon class="st2" points="1045,214.52 1045,275.52 936.48,275.52 936.48,214.52 957.3,214.52 "/>
<polygon class="st2" points="934.48,277.52 934.48,320.04 868.04,320.04 868.04,214.52 934.48,214.52 934.48,275.52 "/>
<polygon class="st2" points="776.83,323.04 776.83,351.74 662,351.74 662,272.04 747.22,272.04 747.22,323.04 "/>
<polygon class="st2" points="840.48,244.26 840.48,321.04 777.83,321.04 776.83,321.04 749.22,321.04 749.22,272.04 789.91,272.04 
	789.91,244.26 793.52,244.26 794.52,244.26 "/>
<polygon class="st2" points="793.52,207.22 793.52,242.26 787.91,242.26 787.91,270.04 662,270.04 662,197.3 749.76,197.3 
	749.76,207.22 "/>
<polygon class="st2" points="749.76,110.76 749.76,195.3 662,195.3 662,130.03 "/>
<polygon class="st2" points="852.2,88.26 852.2,181.74 784.57,181.74 784.57,103.12 "/>
<polygon class="st2" points="915.1,74.45 915.1,181.74 854.2,181.74 854.2,87.83 "/>
<path class="st2" d="M1045,160.37v52.15h-87.7v-30.78h-40.2V74.01l14.5-3.18c0.48-0.1,47.91-9.39,80.33,21.5
	C1044.52,123.39,1045,160,1045,160.37z"/>
<g id="line">
	<path d="M1016.069,87.989c-34.738-33.099-83.611-23.465-85.713-23.031L656,125.206v317.295H434V175.097l-3.942,1.304
		c-0.377,0.125-38.319,12.774-91.643,39.264c-49.202,24.441-122,66.026-189.397,125.334
		C87.016,395.56,48.108,440.842,26.572,483.504C6.179,523.903,2,559.854,2,601.405c0,42.628,17.703,76.498,32.554,97.405
		c16.072,22.627,31.94,35.043,32.608,35.561L67.974,735H1051V160.366C1051,158.77,1050.603,120.893,1016.069,87.989z
		 M871.435,607.479V503.695h32.739v-10.956H1045v129.869h-26.695v-15.13L871.435,607.479L871.435,607.479z M374.478,626.739v-1
		v-16.261h49.652V729h-49.652V626.739z M529.433,729H426.13V598h115.391v95.044h-12.089L529.433,729L529.433,729z M531.433,695.044
		h12.089V598H795.74v131H531.433V695.044z M797.739,609.479h46.392V729h-46.392V609.479z M797.739,607.479V596H424.13v11.479
		h-51.652v18.261h-45V562h470.261v-68.261h37.695v-142h-56.608v-28.696h63.652V242.26h-46.957v-37.043H751.76V110.32l30.805-6.765
		v80.184h172.739v28.783h-89.261v141.217h3.391v253.739H846.13h-1L797.739,607.479L797.739,607.479z M327.478,560v-27.739h32.348
		v27.695h2v-27.695h26.957v27.695h2v-27.695h37.261V560H327.478z M428.043,530.261h-40.587v-46.326h40.587V530.261z
		 M385.457,530.261h-7.065v-46.326h7.065V530.261z M376.391,530.261h-48.913v-46.326h48.913V530.261z M325.478,530.261v2V561v1
		v63.739h-25.652V483.935h25.652V530.261z M793.521,207.217v35.043h-5.608v27.783H662v-72.739h87.761v9.913H793.521z
		 M721.435,421.521h42.218v32.631h-13.892v31.587h-28.326V421.521z M765.652,385.13h30.087v34.391h-30.087V385.13z M795.739,421.521
		v32.631h-30.087v-32.631H795.739z M751.761,456.152h43.979v29.587h-43.979V456.152z M758.565,487.739v42.521h-6.805v-42.521
		H758.565z M795.739,532.261V560H751.76v-27.739H795.739z M795.739,530.261h-35.174V487.74h35.174V530.261z M797.739,385.13h35.695
		v106.609h-35.695V385.13z M833.435,383.13h-67.782v-29.391h67.782V383.13z M776.826,321.043h-27.608v-49h40.695V244.26h3.608h1
		h45.957v76.783h-62.652H776.826z M747.218,272.043v51h29.608v28.696H662v-79.696L747.218,272.043L747.218,272.043z
		 M763.652,353.739v65.782h-42.218v-65.782H763.652z M721.435,487.739h28.326v42.521h-47.5v-42.521h18.174H721.435z
		 M702.261,532.261h47.5V560h-47.5V532.261z M854.195,181.739V87.826l60.908-13.375V181.74L854.195,181.739L854.195,181.739z
		 M852.195,181.739h-67.63v-78.623l67.63-14.851V181.739z M934.479,277.522v42.521h-66.435V214.522h66.435v61V277.522z
		 M871.435,492.739h30.739v8.956h-30.739V492.739z M871.435,490.739v-88H1045v88H871.435z M871.435,400.739v-49h-3.391v-29.696
		h68.435v-44.521H1045v123.217L871.435,400.739L871.435,400.739z M936.479,275.522v-61h20.826H1045v61H936.479z M931.604,70.827
		c0.476-0.099,47.902-9.387,80.326,21.506c32.593,31.055,33.068,67.671,33.069,68.033v52.156h-87.695v-30.783h-40.201V74.011
		L931.604,70.827z M749.761,110.759v84.545H662v-65.273L749.761,110.759z M662,448.501v-94.762h57.435v132h-19.174V560H574.305
		V448.501H662z M572.305,448.501V560H430.043V448.501H572.305z M39.33,695.173C25.037,675.007,8,642.37,8,601.405
		c0-75.136,10.4-137.472,144.982-255.901c66.874-58.847,139.143-100.136,187.993-124.411c43.105-21.42,76.049-33.72,87.025-37.625
		v265.033h0.043v33.434H297.826V627.74h74.652V729H70.061C66.689,726.222,52.924,714.353,39.33,695.173z M846.131,729V609.479
		h170.174v15.13H1045V729H846.131z"/>
</g>
</svg>
