<?xml version="1.0" encoding="utf-8"?>
<!-- Generator: Adobe Illustrator 26.0.3, SVG Export Plug-In . SVG Version: 6.00 Build 0)  -->
<svg version="1.1" xmlns="http://www.w3.org/2000/svg" xmlns:xlink="http://www.w3.org/1999/xlink" x="0px" y="0px"
	 viewBox="0 0 1050 800" style="enable-background:new 0 0 1050 800;" xml:space="preserve">
<style type="text/css">
	.st0{fill:#DBDBDB;}
	.st1{fill:#FBD1B4;}
	.st2{fill:#B2D497;}
	.st3{fill:#F3EE96;}
	.st4{fill:#99C7E6;}
</style>
<g id="rooms">
	<g id="XMLID_00000146496734214950786730000000810144085360453518_">
		<g>
			<rect x="246.52" y="715.13" class="st0" width="26.87" height="13.87"/>
			<polygon class="st1" points="237.26,715.13 237.26,662.52 218.02,662.52 218.02,641.04 244.52,641.04 244.52,664.7 246.52,664.7 
				246.52,641.04 273.39,641.04 273.39,662.52 254.26,662.52 254.26,664.52 273.39,664.52 273.39,665.19 273.39,666.19 
				273.39,700.7 273.39,701.7 273.39,713.13 244.52,713.13 244.52,729 218.02,729 218.02,715.13 			"/>
			<polygon class="st0" points="1042.22,573 1042.22,735.65 923,735.65 923,729 743.35,729 743.35,697.17 743.35,696.17 
				743.35,680.7 845.87,680.7 845.87,663.74 861.58,663.74 861.58,405.77 821.49,249.3 987.81,213.54 1031.26,383.38 
				1031.26,411.39 1042.22,411.39 1042.22,495 1034,495 1034,573 			"/>
			<polygon class="st2" points="859.58,584.96 859.58,661.74 843.87,661.74 843.87,678.7 743.35,678.7 743.35,562.78 798.92,562.78 
				798.92,584.96 			"/>
			<rect x="800.92" y="523.91" class="st2" width="58.66" height="59.05"/>
			<rect x="800.92" y="469.56" class="st2" width="58.66" height="52.35"/>
			<polygon class="st2" points="859.58,406.02 859.58,467.56 800.92,467.56 800.92,408.21 856.92,395.63 			"/>
			<polygon class="st2" points="841.07,333.77 856.42,393.69 800.63,406.23 785.07,345.52 			"/>
			<polygon class="st2" points="822.59,261.67 840.57,331.83 784.58,343.58 773.38,299.88 797.31,294.35 790.92,268.98 			"/>
			<polygon class="st0" points="819.53,249.72 822.09,259.73 790.43,267.04 787.79,256.55 			"/>
			<polygon class="st3" points="785.83,256.97 794.87,292.86 772.88,297.94 763.61,261.74 			"/>
			<rect x="754.52" y="500.8" class="st3" width="16.78" height="17.44"/>
			<rect x="754.52" y="481.37" class="st3" width="16.78" height="17.43"/>
			<rect x="675.26" y="526" class="st3" width="80.7" height="7.13"/>
			<rect x="721.04" y="698.17" class="st3" width="20.31" height="30.83"/>
			<polygon class="st2" points="707,273.92 738.08,397.06 620.47,423.45 606.03,368.76 639.1,361.4 621.02,292.4 			"/>
			<polygon class="st2" points="726.74,563.57 726.74,677.39 645,677.39 630.13,677.39 630.13,673.17 630.13,672.43 630.13,563.57 
				677.7,563.57 677.7,660.13 679.7,660.13 679.7,563.57 			"/>
			<rect x="675.78" y="698.17" class="st1" width="43.26" height="30.83"/>
			<polygon class="st1" points="673.78,689.57 673.78,729 589.17,729 589.17,689.57 628.13,689.57 645,689.57 			"/>
			<rect x="630.13" y="679.39" class="st3" width="12.87" height="8.18"/>
			<polygon class="st0" points="619.07,292.82 636.64,359.9 544.32,380.44 544.24,380.46 543.31,380.67 524.58,384.9 519.85,365.13 
				516.27,349.1 509.35,316.41 			"/>
			<rect x="535.43" y="644.43" class="st1" width="92.7" height="28"/>
			<rect x="582.39" y="563.57" class="st2" width="45.74" height="78.86"/>
			<polygon class="st2" points="604.07,369.2 618.52,423.89 560.25,436.97 545.78,382.17 			"/>
			<rect x="553.7" y="689.57" class="st1" width="33.47" height="39.43"/>
			<rect x="568.04" y="483.74" class="st2" width="16" height="26.96"/>
			<rect x="535.43" y="563.57" class="st2" width="44.96" height="78.86"/>
			<polygon class="st2" points="533.85,406.06 543.3,440.67 502.56,449.58 493.81,415.16 			"/>
			<rect x="455.15" y="513.87" class="st3" width="80.63" height="7.13"/>
			<polygon class="st0" points="533.43,596.43 533.43,642.43 512.22,642.43 512.22,640.04 512.22,639.04 512.22,596.43 			"/>
			<polygon class="st0" points="533.43,583.91 533.43,594.43 496.47,594.43 496.47,583.96 496.47,583.91 			"/>
			<rect x="492.62" y="563.57" class="st2" width="40.81" height="18.34"/>
			<rect x="511.04" y="695.63" class="st3" width="21.35" height="33.37"/>
			<polygon class="st4" points="514.53,350.49 517.68,364.6 443.26,380.32 441.66,373.81 424.97,377.22 414,336.91 424.45,334.67 
				427.97,351.34 477.94,340.77 474.38,323.93 482.74,322.13 489.84,355.71 			"/>
			<polygon class="st4" points="508.51,368.58 514.94,393.16 487.67,399.25 491.43,413.65 453.52,422.26 443.73,382.26 			"/>
			<polygon class="st3" points="507.4,316.83 514.1,348.53 491.39,353.34 484.69,321.71 			"/>
			<polygon class="st4" points="510.22,648.13 510.22,675.57 489.26,675.57 489.26,641.04 510.22,641.04 510.22,642.43 			"/>
			<rect x="492.62" y="628" class="st3" width="17.6" height="11.04"/>
			<polygon class="st3" points="510.22,610.48 510.22,626 496.47,626 496.47,612.48 510.04,612.48 510.04,610.48 			"/>
			<polygon class="st3" points="510.22,596.43 510.22,610.48 510.04,610.48 496.47,610.48 496.47,596.43 			"/>
			<rect x="450.85" y="691.65" class="st1" width="58.19" height="37.35"/>
			<polygon class="st2" points="491.86,415.6 500.61,450.01 457.45,459.46 447.55,420.55 450.86,419.8 452.05,424.65 			"/>
			<polygon class="st0" points="494.47,612.48 494.47,626 490.62,626 490.62,639.04 477.52,639.04 477.52,612.48 			"/>
			<polygon class="st0" points="494.47,583.96 494.47,610.48 477.52,610.48 477.52,583.91 496.47,583.91 496.47,583.96 			"/>
			<rect x="450.85" y="563.57" class="st2" width="39.77" height="18.34"/>
			<rect x="450.85" y="641.04" class="st4" width="36.41" height="34.53"/>
			<polygon class="st3" points="472.42,324.35 475.57,339.23 460.35,342.44 457.22,327.62 			"/>
			<polygon class="st2" points="475.52,583.91 475.52,639.04 394.3,639.04 394.3,563.57 448.85,563.57 448.85,583.91 			"/>
			<polygon class="st3" points="455.26,328.04 458.4,342.86 445.52,345.58 442.39,330.81 			"/>
			<polygon class="st2" points="445.6,421 455.49,459.88 412.82,469.22 403.02,430.68 			"/>
			<polygon class="st2" points="443.12,388.2 450.38,417.86 435.24,421.3 427.67,391.56 			"/>
			<rect x="403.89" y="691.65" class="st1" width="44.96" height="37.35"/>
			<rect x="377.61" y="641.04" class="st1" width="71.24" height="34.53"/>
			<polygon class="st3" points="440.44,331.23 443.56,346 429.52,348.97 426.4,334.25 			"/>
			<polygon class="st2" points="425.72,391.99 433.29,421.74 402.52,428.74 394.88,398.69 			"/>
			<path class="st2" d="M425.18,389.87l0.04,0.18l-30.83,6.7l-0.19,0.04l-46.74,10.17l6.05,22.38l-94.94,22.17l-0.9-3.62
				l-55.46,12.69l-3.24-12.67l-62.2,13.33l6.17,25.71l-36.71,8.23l-7.31-26.64l-19.65,4.6l-2.85-11.05l16.82-4.12l-0.48-1.94
				l-16.84,4.13l-12.36-47.9l144.59-31.09l16.91,67.94l71.72-16.34l0.01,0.06l1.96-0.42l-0.02-0.09l44.95-10.24l-6.21-24.96
				l102.71-20.96l2.47,10.1l-15.47,3.36l-0.06-0.24L425.18,389.87z M86.69,421.54l-2.74-10.56l-11.66,3.03l2.74,10.57L86.69,421.54z
				"/>
			<polygon class="st2" points="412.05,337.33 423.01,377.62 396.39,383.05 385.5,343.04 			"/>
			<rect x="390.39" y="509.83" class="st2" width="22" height="11.17"/>
			<polygon class="st2" points="392.93,399.12 410.87,469.65 368.98,478.82 349.94,408.47 			"/>
			<rect x="368.28" y="691.65" class="st4" width="33.61" height="37.35"/>
			<polygon class="st4" points="383.54,343.46 394.43,383.45 367.81,388.88 357,349.17 			"/>
			<rect x="333.52" y="563.57" class="st2" width="58.78" height="75.47"/>
			<rect x="356.5" y="518.43" class="st2" width="21.72" height="11.31"/>
			<rect x="333.52" y="641.04" class="st4" width="42.09" height="34.53"/>
			<polygon class="st4" points="366.28,691.65 366.28,729 334.59,729 334.59,694.63 334.59,693.63 334.59,691.65 			"/>
			<polygon class="st2" points="355.05,349.59 365.85,389.28 336.99,395.18 327.13,355.59 			"/>
			<polygon class="st2" points="354.04,431.27 365.49,473.58 327.89,481.98 315.75,440.21 			"/>
			<polygon class="st2" points="337.18,404.25 341.25,420.59 311.39,427.39 307.75,410.66 			"/>
			<polygon class="st2" points="332.25,384.45 336.7,402.31 319.66,406.02 315.75,388.04 			"/>
			<rect x="308.22" y="695.63" class="st3" width="24.37" height="33.37"/>
			<polygon class="st2" points="325.17,356.01 331.77,382.5 303.29,388.7 296.09,362.26 			"/>
			<rect x="318.7" y="626.43" class="st3" width="12.82" height="12.61"/>
			<polygon class="st2" points="313.8,440.67 325.94,482.42 269.41,495.05 259.05,453.45 			"/>
			<rect x="275.39" y="641.04" class="st4" width="41.31" height="24.15"/>
			<polygon class="st2" points="316.7,569.68 316.7,639.04 275.39,639.04 275.39,578.87 			"/>
			<polygon class="st2" points="305.8,411.08 309.44,427.83 298.3,430.37 294.63,413.51 			"/>
			<path class="st2" d="M301.86,391.06l1.48,5.43l-57.43,13.9l-0.14-0.49l0.66-0.17l-7.33-27.66L228.07,385l5.62,21.21l-16.27,3.94
				l-7.32-29.4l84.04-18.06l7.32,26.91l0.32,1.48L301.86,391.06z M275.96,377.62l-1.9-7.17l-7.17,1.9l1.9,7.17L275.96,377.62z"/>
			<polygon class="st2" points="317.71,406.44 292.25,411.98 296.35,430.82 285.02,433.4 280.7,413.56 258.88,418.31 263.24,438.36 
				226.53,446.72 222.15,429.12 253.65,421.49 253.18,419.55 221.66,427.18 217.91,412.09 234.2,408.15 235.4,412.65 243.83,410.42 
				244.52,412.79 305.81,397.95 303.82,390.64 313.79,388.46 			"/>
			<rect x="275.39" y="701.7" class="st1" width="12.44" height="27.3"/>
			<polygon class="st2" points="279.17,415.94 283.07,433.84 265.19,437.91 261.26,419.84 			"/>
			
				<rect x="267.716" y="371.276" transform="matrix(0.9666 -0.2562 0.2562 0.9666 -86.9975 82.0368)" class="st3" width="7.417" height="7.417"/>
			<polygon class="st2" points="273.34,520.78 273.45,541.46 217.33,556.11 217.22,535.43 			"/>
			<polygon class="st2" points="273.39,579.31 273.39,639.04 216.02,639.04 216.02,729 157.98,729 157.98,604.99 			"/>
			<polygon class="st2" points="257.1,453.91 267.46,495.49 237.38,502.24 226.16,457.15 256.2,450.28 256.94,453.25 			"/>
			<polygon class="st3" points="237.68,384.52 243.97,408.23 243.26,408.43 243.28,408.5 236.82,410.21 230.51,386.42 			"/>
			<polygon class="st2" points="224.21,457.6 235.43,502.68 203.22,509.91 166.37,509.91 166.37,477.44 175.17,475.04 
				174.76,473.29 174.9,473.34 182.54,453.47 197.51,450.27 203.48,473.62 200.13,474.54 200.65,476.46 205.91,475.03 
				202.71,462.52 			"/>
			<rect x="218.02" y="690.04" class="st0" width="17.24" height="23.09"/>
			<rect x="218.02" y="664.52" class="st0" width="17.24" height="23.31"/>
			<rect x="218.02" y="713.13" class="st0" width="17.24" height="0.22"/>
			<polygon class="st3" points="180.21,453.97 174,470.1 170.67,456.02 			"/>
			<polygon class="st3" points="168.71,456.44 172.78,473.62 166.11,475.43 161.95,457.89 			"/>
			<polygon class="st0" points="164.37,511.91 164.37,537.23 151.63,539.8 137.62,539.95 125.77,492.85 144.36,488.68 
				164.37,484.37 164.37,510.91 			"/>
			<polygon class="st3" points="164.37,477.87 164.37,482.32 144.89,486.52 143.88,482.29 			"/>
			<polygon class="st2" points="160,458.3 164.16,475.87 143.41,480.34 139.19,462.76 			"/>
			<path class="st2" d="M155.98,729h-55.94v-23.78h48.48v17.35h7.46V729z M103.3,726h6.48v-6.48h-6.48V726z M109.78,714.78v-6.48
				h-6.48v6.48H109.78z"/>
			<rect x="150.52" y="705.22" class="st3" width="5.46" height="15.35"/>
			<path class="st2" d="M155.98,605.43v97.79H98.04V729H41v-97.99L155.98,605.43z M144.78,621.24l-1.66-7.8l-67.23,14.84l1.73,7.79
				L144.78,621.24z"/>
			<polygon class="st3" points="143.12,613.44 144.78,621.24 77.62,636.07 75.89,628.28 			"/>
			<polygon class="st3" points="123.82,493.29 135.56,539.97 72.88,540.62 64.2,506.66 			"/>
			<rect x="103.3" y="719.52" class="st3" width="6.48" height="6.48"/>
			<rect x="103.3" y="708.3" class="st3" width="6.48" height="6.48"/>
			<polygon class="st3" points="99.75,479.11 104.28,495.62 86.12,499.69 81.89,483.28 			"/>
			<polygon class="st0" points="97.5,470.93 99.22,477.18 81.39,481.35 79.77,475.08 			"/>
			<polygon class="st3" points="83.95,410.98 86.69,421.54 75.03,424.58 72.29,414.01 			"/>
			<polygon class="st3" points="74.48,462.57 84.17,500.13 63.71,504.72 54.21,467.54 			"/>
			<polygon class="st3" points="62.25,507.1 70.82,540.64 35.38,541.01 29.09,514.54 			"/>
			<polygon class="st3" points="61.76,415.88 64.51,426.45 52.85,429.48 50.1,418.92 			"/>
			<polygon class="st2" points="47.66,417.48 51.42,431.92 65.62,428.23 73.98,460.63 51.77,466.08 61.76,505.16 28.62,512.59 
				15.84,458.84 25.3,456.38 21.42,441.47 12.28,443.85 7.63,424.29 24.45,420.67 27.99,434.28 43.52,430.24 40.15,417.3 
				61.61,412.68 61.89,413.78 			"/>
			<polygon class="st3" points="38.19,417.72 41.08,428.81 29.42,431.84 26.4,420.25 			"/>
			<polygon class="st3" points="19.99,443.91 22.86,454.95 15.38,456.9 12.74,445.79 			"/>
		</g>
		<g>
		</g>
	</g>
</g>
<g id="line">
	<g>
		<path d="M1048.218,501v-95.608h-10.957v-22.77L992.191,206.46L0.372,419.712L35,565.352V735h882v6.652h131.218V567H1040v-66
			H1048.218z M819.531,249.721l2.564,10.008l-31.664,7.313l-2.642-10.496L819.531,249.721z M859.579,584.956v76.783h-15.71v16.956
			H743.348V562.782h55.573v22.174H859.579z M800.921,582.956v-59.043h58.658v59.043H800.921z M800.921,521.913v-52.349h58.658
			v52.349H800.921z M800.921,467.564v-59.353l55.996-12.583l2.663,10.391v61.545H800.921z M800.628,406.227l-15.555-60.71
			l55.994-11.746l15.353,59.918L800.628,406.227z M784.576,343.579l-11.197-43.699l23.926-5.526l-6.386-25.372l31.672-7.315
			l17.979,70.167L784.576,343.579z M785.833,256.966l9.035,35.898l-21.985,5.078l-9.275-36.197L785.833,256.966z M707.001,273.916
			l31.081,123.148l-117.613,26.391l-14.443-54.693l33.074-7.359l-18.075-69.001L707.001,273.916z M618.516,423.893l-58.269,13.075
			l-14.471-54.799l58.295-12.971L618.516,423.893z M619.066,292.823l17.573,67.079l-92.314,20.541l0,0l-0.082,0.019l-0.93,0.207
			l0.001,0.003l-18.729,4.225l-4.735-19.762h0l-3.578-16.032l-6.916-32.689L619.066,292.823z M507.398,316.833l6.707,31.701
			l-22.719,4.807l-6.692-31.626L507.398,316.833z M472.42,324.353l3.147,14.873l-15.212,3.218l-3.136-14.823L472.42,324.353z
			 M455.262,328.042l3.135,14.816l-12.877,2.724l-3.126-14.774L455.262,328.042z M440.439,331.229l3.124,14.768l-14.046,2.972
			l-3.115-14.721L440.439,331.229z M424.447,334.668l3.527,16.672l49.963-10.571l-3.562-16.836l8.364-1.798l7.104,33.577
			l24.687-5.223l3.149,14.109l-74.424,15.724l-1.592-6.507l-16.689,3.406l-10.97-40.306L424.447,334.668z M500.608,450.012
			l-43.16,9.446l-9.896-38.903l3.307-0.751l1.186,4.847l39.81-9.048L500.608,450.012z M493.806,415.158l40.046-9.102l9.449,34.611
			l-40.739,8.916L493.806,415.158z M81.389,481.346l-1.618-6.269l17.732-4.145l1.713,6.247L81.389,481.346z M99.746,479.108
			l4.529,16.513l-18.153,4.073l-4.234-16.411L99.746,479.108z M84.17,500.132l-20.463,4.591l-9.501-37.187l20.272-4.968
			L84.17,500.132z M123.819,493.286l11.745,46.68l-62.685,0.654l-8.677-33.96L123.819,493.286z M125.771,492.848l18.586-4.17v0
			l20.012-4.312v26.547v1v25.312l-12.735,2.573l-14.013,0.146L125.771,492.848z M144.891,486.518l-1.015-4.228l20.493-4.417v4.447
			L144.891,486.518z M143.41,480.345l-4.22-17.582l20.807-4.458l4.164,17.568L143.41,480.345z M161.953,457.885l6.757-1.448
			l4.072,17.179l-6.669,1.819L161.953,457.885z M170.666,456.018l9.542-2.044l-6.203,16.128L170.666,456.018z M166.37,477.438
			l8.805-2.401l-0.415-1.749l0.142,0.055l7.642-19.869l14.965-3.207l5.974,23.354l-3.355,0.915l0.526,1.93l5.254-1.433
			l-3.201-12.512l21.501-4.92l11.222,45.078l-32.216,7.234H166.37V477.438z M226.158,457.155l30.043-6.874l0.739,2.967l0.155,0.665
			l0.01-0.002l10.351,41.577l-30.074,6.753L226.158,457.155z M259.053,453.455l54.746-12.787l12.14,41.75l-56.53,12.634
			L259.053,453.455z M315.749,440.212l38.286-8.943l11.451,42.31l-37.592,8.401L315.749,440.212z M349.936,408.468l42.99-9.349
			l17.941,70.533l-41.89,9.168L349.936,408.468z M433.285,421.745l-30.762,6.991l-7.642-30.042l30.834-6.705L433.285,421.745z
			 M427.672,391.563l15.453-3.36l7.258,29.656l-15.148,3.443L427.672,391.563z M403.017,430.676l42.585-9.678l9.892,38.888
			l-42.671,9.339L403.017,430.676z M453.52,422.263l-9.789-39.998l64.783-13.687l6.43,24.585l-27.274,6.087l3.765,14.396
			L453.52,422.263z M412.046,337.334l10.965,40.286l-26.62,5.432l-10.89-40.011L412.046,337.334z M383.543,343.463l10.884,39.991
			l-26.614,5.431l-10.809-39.716L383.543,343.463z M355.046,349.59l10.804,39.695l-28.865,5.89l-9.855-39.583L355.046,349.59z
			 M280.704,413.559l-21.827,4.751l4.364,20.048l-36.715,8.363l-4.381-17.598l31.504-7.63l-0.471-1.943l-31.516,7.633l-3.756-15.088
			l16.299-3.948l1.194,4.505l8.435-2.236l0.69,2.374l61.282-14.842l-1.99-7.311l9.978-2.172l3.914,17.978l-25.453,5.542l4.1,18.831
			l-11.332,2.581L280.704,413.559z M283.072,433.841l-17.881,4.073l-3.935-18.075l17.918-3.901L283.072,433.841z M243.276,408.495
			l-6.456,1.711l-6.306-23.788l7.168-1.9l6.284,23.707l-0.709,0.206L243.276,408.495z M315.748,388.039l16.505-3.593l4.447,17.862
			l-17.038,3.71L315.748,388.039z M294.634,413.514l11.164-2.43l3.647,16.751l-11.14,2.538L294.634,413.514z M307.752,410.658
			l29.431-6.408l4.068,16.339l-29.856,6.801L307.752,410.658z M325.174,356.013l6.595,26.492l-28.479,6.2l-7.196-26.439
			L325.174,356.013z M294.137,362.686l7.326,26.916l0.322,1.477l0.076-0.016l1.477,5.425l-57.425,13.907l-0.143-0.492l0.665-0.176
			l-7.33-27.653l-11.035,2.924l5.624,21.216l-16.27,3.941l-7.319-29.4L294.137,362.686z M208.147,381.174l16.912,67.931
			l71.72-16.336l0.014,0.065l1.954-0.426l-0.018-0.083l44.955-10.24l-6.216-24.967l102.709-20.959l2.472,10.101l-15.471,3.364
			l-0.063-0.249l-1.938,0.493l0.046,0.181l-30.834,6.705l-0.002-0.007l-0.187,0.047l-46.744,10.165l6.057,22.377l-94.943,22.177
			l-0.901-3.621l-55.456,12.689l-3.242-12.675l-62.203,13.33l6.171,25.71l-36.708,8.236l-7.306-26.638l-19.652,4.595l-2.85-11.047
			l16.817-4.121l-0.476-1.943l-16.841,4.127l-12.357-47.895L208.147,381.174z M64.51,426.449l-11.661,3.032l-2.748-10.565
			l11.661-3.033L64.51,426.449z M38.193,417.716l2.886,11.094l-11.661,3.033l-3.015-11.592L38.193,417.716z M12.741,445.795
			l7.25-1.886l2.872,11.042l-7.482,1.945L12.741,445.795z M15.844,458.843l9.458-2.46l-3.879-14.913l-9.145,2.379l-4.651-19.561
			l16.817-3.616l3.541,13.611l15.532-4.041l-3.368-12.947l21.458-4.614l0.284,1.1l-14.23,3.702l3.756,14.437l14.201-3.694
			l8.36,32.405l-22.21,5.443l9.986,39.086l-33.131,7.433L15.844,458.843z M29.086,514.54l33.164-7.44l8.57,33.543l-35.44,0.37
			L29.086,514.54z M155.983,729h-55.939v-23.782h48.479v17.348h7.461V729z M155.983,720.565h-5.461v-15.348h5.461V720.565z
			 M155.983,703.218H98.043V729H41v-97.99l114.983-25.577V703.218z M273.395,729h-26.873v-13.869h26.873V729z M273.395,662.521
			h-19.134v2h19.134v0.67v1v34.504v1v11.436h-28.873V729h-26.5v-13.869h19.239v-52.609h-19.239v-21.478h26.5v23.651h2v-23.651
			h26.873V662.521z M235.261,689.826v23.305h-17.239v-23.305H235.261z M218.022,687.826v-23.305h17.239v23.305H218.022z
			 M273.395,639.044h-57.373V729h-58.039V604.988l115.412-25.673V639.044z M287.826,729h-12.432v-27.305h12.432V729z M332.588,729
			h-24.371v-33.369h24.371V729z M366.283,729h-31.694v-34.369v-1v-1.979h31.694V729z M401.891,729h-33.608v-37.348h33.608V729z
			 M448.848,729h-44.957v-37.348h44.957V729z M509.043,729h-58.196v-37.348h58.196V729z M532.392,729h-21.348v-33.369h21.348V729z
			 M551.695,729h-17.304v-35.369h-23.348v-3.979H332.588v3.979h-26.371V729h-16.391v-29.305h-14.432v-32.504H318.7v-26.147h12.822
			v36.521h180.695v-29.435v-3.696h21.217v30h94.696v2.957v2v8.174h-76.436V729z M316.7,641.044v24.147h-41.305v-24.147H316.7z
			 M275.395,639.044V578.87l41.305-9.188v69.362H275.395z M318.7,639.044v-12.609h12.822v12.609H318.7z M496.467,594.435v-10.479h-2
			v26.522h-16.945v-26.565h55.87v-2H492.62v-18.305h-2v18.305h-39.772v-18.305h-2v20.305h26.674v55.131h-81.218v-75.436h-2v75.436
			h-58.782v-75.479h199.913v30.869H496.467z M533.435,596.435v46h-21.217v-2.391v-1v-42.609H533.435z M477.522,639.044v-26.565
			h16.945V626h-3.848v13.044H477.522z M487.261,641.044v34.521h-36.413v-34.521H487.261z M489.261,641.044h20.957v1.391v5.696
			v27.435h-20.957V641.044z M492.62,639.044V628h17.598v11.044H492.62z M496.467,626v-13.521h13.576v-2h-13.576v-14.044h13.75V626
			H496.467z M448.848,641.044v34.521h-71.239v-34.521H448.848z M375.609,641.044v34.521h-42.087v-34.521H375.609z M628.131,644.435
			v28h-92.696v-28H628.131z M535.435,642.435v-78.869h44.957v78.869H535.435z M582.392,642.435v-78.869h45.739v78.869H582.392z
			 M587.174,729h-33.479v-39.435h33.479V729z M673.782,729h-84.608v-39.435h38.957H645h28.782V729z M679.695,660.131v-96.565h47.044
			v113.826H645h-14.869v-4.218v-0.739V563.565h47.564v96.565H679.695z M643,679.392v8.174h-12.869v-8.174H643z M719.044,729h-43.262
			v-30.826h43.262V729z M741.348,729h-20.304v-30.826h20.304V729z M741.348,679.695v1v15.479h-21.304h-1h-43.262v-8.608H645v-8.174
			h83.739V561.565H331.522v62.869H318.7v-57.247L41,628.96v-64.312l-5.145-21.641l115.895-1.21l14.62-2.936v-26.949h37.067
			l66.212-14.867l96.36-21.535l1.535,5.67l177.213-38.784l1.028-0.225l-10.508-38.49l-41.893,9.521l-3.256-12.452l27.274-6.087
			l-6.931-26.499l7.657-1.618l4.968,20.734l20.726-4.675l14.982,56.735l181.718-40.775l-31.565-125.071l52.693-11.33l37.025,144.501
			l-0.195,0.044l0.439,1.951v152.121h-57.573V679.695z M1042.218,573v162.652H923V729H743.348v-31.826v-1v-15.479h102.521v-16.956
			h15.71V405.768L821.488,249.3l166.321-35.761l43.452,169.838v28.014h10.957V495H1034v78H1042.218z"/>
		<path d="M147.15,622.766l-2.489-11.717l-71.153,15.712l2.595,11.693L147.15,622.766z M143.124,613.437l1.658,7.804l-67.16,14.831
			l-1.729-7.789L143.124,613.437z"/>
		<path d="M752.521,520.239h20.783v-40.87h-20.783V520.239z M754.521,481.369h16.783v17.436h-16.783V481.369z M754.521,500.805
			h16.783v17.435h-16.783V500.805z"/>
		<path d="M673.261,535.131h84.695V524h-84.695V535.131z M675.261,526h80.695v7.131h-80.695V526z"/>
		<path d="M453.152,523h84.63v-11.131h-84.63V523z M455.152,513.869h80.63V521h-80.63V513.869z"/>
		<path d="M85.378,408.538l-15.532,4.041l3.756,14.437l15.532-4.04L85.378,408.538z M72.285,414.011l11.661-3.033l2.748,10.566
			l-11.661,3.032L72.285,414.011z"/>
		<path d="M278.404,379.041l-2.925-11.034l-11.034,2.924l2.925,11.035L278.404,379.041z M274.059,370.452l1.9,7.168l-7.168,1.9
			l-1.9-7.168L274.059,370.452z"/>
		<path d="M101.304,716.782h10.479v-10.478h-10.479V716.782z M103.304,708.305h6.479v6.478h-6.479V708.305z"/>
		<path d="M101.304,728h10.479v-10.479h-10.479V728z M103.304,719.521h6.479V726h-6.479V719.521z"/>
		<path d="M215.208,533.884l0.137,24.808L275.458,543l-0.137-24.808L215.208,533.884z M217.331,556.105l-0.114-20.679l56.119-14.648
			l0.114,20.679L217.331,556.105z"/>
		<path d="M354.498,531.739h25.719v-15.305h-25.719V531.739z M356.498,518.435h21.719v11.305h-21.719V518.435z"/>
		<path d="M388.391,523h26v-15.174h-26V523z M390.391,509.826h22V521h-22V509.826z"/>
		<path d="M566.044,512.695h20v-30.956h-20V512.695z M568.044,483.739h16v26.956h-16V483.739z"/>
	</g>
</g>
</svg>
