<?xml version="1.0" encoding="utf-8"?>
<!-- Generator: Adobe Illustrator 26.0.3, SVG Export Plug-In . SVG Version: 6.00 Build 0)  -->
<svg version="1.1" xmlns="http://www.w3.org/2000/svg" xmlns:xlink="http://www.w3.org/1999/xlink" x="0px" y="0px"
	 viewBox="0 0 1050 800" style="enable-background:new 0 0 1050 800;" xml:space="preserve">
<style type="text/css">
	.st0{fill:#DBDBDB;}
	.st1{fill:#F3EE96;}
	.st2{fill:#FBD1B4;}
</style>
<g id="rooms">
	<polygon class="st0" points="1045,409.91 1045,482.78 913.52,482.78 913.52,494.52 907.96,494.52 907.96,491.74 875.35,491.74 
		875.35,409.91 	"/>
	<polygon class="st1" points="424.13,609.48 424.13,729 374.48,729 374.48,623.74 374.48,622.74 374.48,609.48 	"/>
	<rect x="797.74" y="609.48" class="st1" width="46.39" height="119.52"/>
	<polygon class="st0" points="359.83,559.96 359.83,560 327.48,560 327.48,532.26 359.83,532.26 	"/>
	<polygon class="st0" points="388.78,559.96 388.78,560 359.83,560 359.83,559.96 361.83,559.96 361.83,532.26 388.78,532.26 	"/>
	<polygon class="st0" points="428.04,532.26 428.04,560 388.78,560 388.78,559.96 390.78,559.96 390.78,532.26 	"/>
	<rect x="387.46" y="487.93" class="st0" width="40.58" height="42.33"/>
	<rect x="327.48" y="487.93" class="st0" width="48.91" height="42.33"/>
	<rect x="797.74" y="385.13" class="st0" width="42.69" height="100.61"/>
	<rect x="768.65" y="353.74" class="st0" width="71.78" height="29.39"/>
	<rect x="768.65" y="385.13" class="st0" width="27.09" height="34.39"/>
	<rect x="768.65" y="421.52" class="st0" width="27.09" height="32.63"/>
	<rect x="757.7" y="456.15" class="st0" width="38.04" height="29.59"/>
	<rect x="757.7" y="487.74" class="st0" width="38.04" height="42.52"/>
	<rect x="757.7" y="532.26" class="st0" width="38.04" height="27.74"/>
	<rect x="707.26" y="532.26" class="st0" width="48.44" height="27.74"/>
	<polygon class="st0" points="755.7,487.74 755.7,530.26 707.26,530.26 707.26,487.74 720.43,487.74 726.43,487.74 	"/>
	<polygon class="st0" points="755.7,455.15 755.7,485.74 726.43,485.74 726.43,421.52 755.7,421.52 755.7,454.15 	"/>
	<rect x="726.43" y="353.74" class="st0" width="29.27" height="65.78"/>
	<polygon class="st2" points="922.91,595.39 922.91,729 846.13,729 846.13,608.48 846.13,607.48 846.13,595.39 	"/>
	<polygon class="st2" points="1045,563.83 1045,729 924.91,729 924.91,593.39 875.35,593.39 875.35,563.83 	"/>
	<polygon class="st2" points="913.52,496.52 913.52,561.83 875.35,561.83 875.35,503.04 907.96,503.04 907.96,496.52 	"/>
	<polygon class="st2" points="996.22,484.78 996.22,561.83 915.52,561.83 915.52,496.52 915.52,495.52 915.52,484.78 	"/>
	<rect x="998.22" y="484.78" class="st2" width="46.78" height="77.05"/>
	<polygon class="st2" points="1045,336.87 1045,407.91 875.35,407.91 875.35,353.74 923.35,353.74 923.35,336.87 	"/>
	<rect x="869.09" y="212.96" class="st2" width="52.26" height="99.21"/>
	<polygon class="st2" points="1045,275.3 1045,334.87 923.35,334.87 923.35,313.17 923.35,312.17 923.35,275.3 	"/>
	<rect x="923.35" y="212.96" class="st2" width="121.65" height="60.34"/>
	<path class="st2" d="M1045,160.37v25.02h-85.96v-4.96H921V73.15l10.6-2.32c0.48-0.1,47.91-9.39,80.33,21.5
		C1044.52,123.39,1045,160,1045,160.37z"/>
	<polygon class="st2" points="919,73.59 919,180.43 857.68,180.43 857.68,87.06 	"/>
	<polygon class="st2" points="855.68,87.5 855.68,180.43 799.96,180.43 799.96,99.74 	"/>
	<polygon class="st2" points="797.96,181.43 797.96,199.7 662,199.7 662,130.03 797.96,100.18 797.96,180.43 	"/>
	<polygon class="st2" points="797.96,201.7 797.96,242.52 791.17,242.52 791.17,264.43 662,264.43 662,201.7 	"/>
	<polygon class="st2" points="844.13,244.52 844.13,321.57 782.26,321.57 781.26,321.57 754.3,321.57 754.3,266.43 793.17,266.43 
		793.17,244.52 797.96,244.52 798.96,244.52 	"/>
	<polygon class="st2" points="781.26,323.57 781.26,351.74 662,351.74 662,266.43 752.3,266.43 752.3,323.57 	"/>
	<polygon class="st2" points="724.43,353.74 724.43,485.74 720.43,485.74 705.26,485.74 705.26,560 614.48,560 614.48,448.5 
		662,448.5 662,353.74 	"/>
	<polygon class="st2" points="612.48,448.5 612.48,560 549.26,560 549.26,481.75 526,481.75 526,448.5 	"/>
	<rect x="680.22" y="598" class="st2" width="115.52" height="131"/>
	<rect x="557.61" y="598" class="st2" width="120.61" height="131"/>
	<rect x="426.13" y="598" class="st2" width="129.48" height="131"/>
	<polygon class="st2" points="547.26,483.75 547.26,560 430.04,560 430.04,448.5 524,448.5 524,483.75 	"/>
	<path class="st2" d="M372.48,624.74V729H70.06c-3.37-2.78-17.14-14.65-30.73-33.83C25.04,675.01,8,642.37,8,601.41
		c0-19.25,0.69-37.66,3.97-56.39h45.38v26.85h240.48v52.87H372.48z M179.87,691.96v-65.22h-2v65.22H179.87z"/>
	<path class="st2" d="M297.83,487.93v81.94H59.35v-26.85H12.32c6.51-35.23,22.44-71.74,60.45-117.19h225.06v60.1V487.93z"/>
	<path class="st2" d="M428.04,448.5v37.43H299.83v-62.1H74.45c19.78-23.4,45.38-49.16,78.53-78.33
		c66.88-58.84,139.14-100.13,188-124.41c43.1-21.42,76.04-33.72,87.02-37.62V448.5H428.04z"/>
</g>
<g id="lines">
	<g>
		<path d="M1016.069,87.989c-34.738-33.099-83.611-23.465-85.713-23.031L656,125.206v317.295H434V175.097l-3.942,1.304
			c-0.377,0.125-38.319,12.774-91.643,39.264c-49.202,24.441-122,66.026-189.397,125.334
			c-62.002,54.561-100.91,99.843-122.446,142.505C6.179,523.903,2,559.854,2,601.405c0,42.628,17.703,76.498,32.554,97.405
			c16.072,22.627,31.94,35.043,32.608,35.561L67.974,735H1051V160.366C1051,158.77,1050.603,120.893,1016.069,87.989z
			 M931.604,70.827c0.476-0.099,47.902-9.387,80.326,21.506c32.593,31.055,33.068,67.671,33.069,68.033v25.025h-85.956v-4.957
			h-38.039V73.155L931.604,70.827z M922.913,729h-76.782V608.479v-1v-12.087h76.782V729z M374.478,623.739v-1v-13.261h49.652V729
			h-49.652V623.739z M557.608,598h120.609v131H557.608V598z M555.608,729H426.13V598h129.478V729z M680.218,598h115.521v131H680.218
			V598z M797.739,609.479h46.392V729h-46.392V609.479z M875.348,493.739h30.608v7.305h-30.608V493.739z M875.348,503.044h32.608
			v-6.522h5.565v65.305h-38.174V503.044z M915.521,496.521v-1v-10.739h80.696v77.044h-80.696V496.521z M998.218,484.782H1045v77.044
			h-46.782V484.782z M913.521,482.782v11.739h-5.565v-2.782h-32.608v-81.826H1045v72.869H913.521z M875.348,407.913v-54.174h48
			v-16.87H1045v71.043H875.348z M1045,334.87H923.348v-21.696v-1v-36.87H1045V334.87z M921.348,312.174h-52.261v-99.217h52.261
			V312.174z M1045,273.304H923.348v-60.348H1045V273.304z M867.087,210.957v103.217h54.261v37.565h-48v241.652h-29.217v14.087
			h-46.392V596H424.13v11.479h-51.652v15.261h-72.652V487.935h25.652v42.326v2V562h472.261v-74.261h44.695v-136h-59.174v-28.174
			h62.87v-81.043h-46.175v-60.087h157.088v4.957H1045v23.565H867.087z M327.478,560v-27.739h32.348v27.695h2v-27.695h26.957v27.695
			h2v-27.695h37.261V560H327.478z M428.043,530.261h-40.587v-42.326h40.587V530.261z M385.457,530.261h-7.065v-42.326h7.065V530.261
			z M376.391,530.261h-48.913v-42.326h48.913V530.261z M526,448.501h86.479V560h-63.218v-78.248H526V448.501z M857.683,180.435
			V87.06l61.322-13.466v106.841H857.683z M855.683,180.435h-55.727V99.736l55.727-12.237V180.435z M795.739,530.261h-38.044v-42.521
			h38.044V530.261z M795.739,532.261V560h-38.044v-27.739H795.739z M766.652,353.739v65.782h-8.957v-65.782H766.652z
			 M795.739,454.152h-27.087v-32.631h27.087V454.152z M795.739,419.521h-27.087V385.13h27.087V419.521z M766.652,421.521v32.631
			h-8.957v-32.631H766.652z M795.739,456.152v29.587h-38.044v-29.587H795.739z M797.739,385.13h42.695v100.609h-42.695V385.13z
			 M840.435,383.13h-71.782v-29.391h71.782V383.13z M781.261,321.565h-26.956v-55.131h38.869v-21.913h4.782h1h45.175v77.043h-61.87
			H781.261z M797.956,242.522h-6.782v21.913H662v-62.739h135.956V242.522z M752.305,266.435v57.131h28.956v28.174H662v-85.305
			H752.305z M755.695,353.739v65.782h-29.261v-65.782H755.695z M726.435,421.521h29.261v32.631v1v30.587h-29.261V421.521z
			 M755.695,487.739v42.521h-48.435v-42.521h13.174h6H755.695z M707.261,532.261h48.435V560h-48.435V532.261z M797.956,100.176
			v80.259v1v18.261H662v-69.665L797.956,100.176z M662,448.501v-94.762h62.435v132h-4h-15.174V560h-90.782V448.501H662z
			 M524,448.501v35.251h23.261V560H430.043V448.501H524z M152.982,345.504c66.874-58.847,139.143-100.136,187.993-124.411
			c43.105-21.42,76.049-33.72,87.025-37.625v265.033h0.043v37.434H299.826v-62.108H74.453
			C94.234,400.434,119.835,374.673,152.982,345.504z M72.77,425.826h225.056v60.108v2v81.935H59.348v-26.85H12.321
			C18.833,507.787,34.76,471.281,72.77,425.826z M39.33,695.173C25.037,675.007,8,642.37,8,601.405
			c0-19.249,0.69-37.659,3.968-56.386h45.38v26.85h240.479v52.87h74.652V729H70.061C66.689,726.222,52.924,714.353,39.33,695.173z
			 M924.913,729V593.392h-49.565v-29.565H1045V729H924.913z"/>
		<rect x="177.87" y="626.739" width="2" height="65.217"/>
	</g>
</g>
</svg>
