<?xml version="1.0" encoding="utf-8"?>
<!-- Generator: Adobe Illustrator 26.0.3, SVG Export Plug-In . SVG Version: 6.00 Build 0)  -->
<svg version="1.1" xmlns="http://www.w3.org/2000/svg" xmlns:xlink="http://www.w3.org/1999/xlink" x="0px" y="0px"
	 viewBox="0 0 1050 800" style="enable-background:new 0 0 1050 800;" xml:space="preserve">
<style type="text/css">
	.st0{fill:#FBD1B4;}
	.st1{fill:#DBDBDB;}
	.st2{fill:#F3EE96;}
</style>
<g id="rooms">
	<polygon class="st0" points="839.43,318.96 777.83,318.96 776.83,318.96 746.48,318.96 746.48,268.13 788.35,268.13 788.35,241.13 
		839.43,241.13 	"/>
	<rect x="921.78" y="631.91" class="st0" width="123.22" height="97.09"/>
	<rect x="873.26" y="569.83" class="st0" width="171.74" height="60.08"/>
	<polygon class="st0" points="1045,491.04 1045,567.83 873.26,567.83 873.26,502.52 908.48,502.52 908.48,491.04 	"/>
	<rect x="873.26" y="419.04" class="st0" width="171.74" height="70"/>
	<polygon class="st1" points="1045,350.3 1045,417.04 873.26,417.04 873.26,350.3 883.74,350.3 884.74,350.3 	"/>
	<polygon class="st0" points="1045,275.35 1045,348.3 884.74,348.3 884.74,320.96 936.91,320.96 936.91,275.35 	"/>
	<polygon class="st0" points="1045,212.43 1045,273.35 936.91,273.35 936.91,212.43 955.87,212.43 959.35,212.43 	"/>
	<path class="st1" d="M1045,160.37v50.06h-85.65v-32.86h-43.13V74.21l15.38-3.38c0.48-0.1,47.91-9.39,80.33,21.5
		C1044.52,123.39,1045,160,1045,160.37z"/>
	<polygon class="st0" points="934.91,212.43 934.91,318.96 884.74,318.96 883.74,318.96 875.35,318.96 875.35,212.43 	"/>
	<rect x="846.13" y="653.83" class="st0" width="73.65" height="75.17"/>
	<polygon class="st0" points="914.22,74.65 914.22,177.57 854.42,177.57 854.42,87.78 	"/>
	<polygon class="st0" points="852.42,88.21 852.42,177.57 781.43,177.57 781.43,103.8 	"/>
	<rect x="797.74" y="609.48" class="st2" width="46.39" height="119.52"/>
	<rect x="797.74" y="483.74" class="st1" width="41.69" height="76.26"/>
	<rect x="797.74" y="385.13" class="st1" width="41.69" height="96.61"/>
	<polygon class="st1" points="839.43,350.3 839.43,383.13 765.65,383.13 765.65,350.3 776.83,350.3 777.83,350.3 	"/>
	<polygon class="st0" points="795.74,595.39 795.74,729 615.52,729 615.52,665.39 585.26,665.39 585.26,595.39 	"/>
	<rect x="751.96" y="532.26" class="st1" width="43.78" height="27.74"/>
	<rect x="751.96" y="483.74" class="st1" width="43.78" height="46.52"/>
	<rect x="751.96" y="456.15" class="st1" width="43.78" height="25.59"/>
	<rect x="765.65" y="421.52" class="st1" width="30.09" height="32.63"/>
	<rect x="765.65" y="385.13" class="st1" width="30.09" height="34.39"/>
	<polygon class="st0" points="792.48,203.57 792.48,239.13 786.35,239.13 786.35,266.13 662,266.13 662,192.61 744.48,192.61 
		744.48,203.57 	"/>
	<polygon class="st0" points="776.83,320.96 776.83,348.3 662,348.3 662,268.13 744.48,268.13 744.48,320.96 	"/>
	<polygon class="st1" points="763.65,421.52 763.65,454.15 749.96,454.15 749.96,481.74 721.43,481.74 721.43,421.52 	"/>
	<rect x="721.43" y="350.3" class="st1" width="42.22" height="69.22"/>
	<rect x="702.26" y="532.26" class="st1" width="47.7" height="27.74"/>
	<polygon class="st1" points="749.96,483.74 749.96,530.26 702.26,530.26 702.26,483.74 720.43,483.74 721.43,483.74 	"/>
	<polygon class="st0" points="744.48,111.92 744.48,190.61 662,190.61 662,130.03 	"/>
	<polygon class="st1" points="719.43,350.3 719.43,481.74 700.26,481.74 700.26,560 661.96,560 661.96,448.5 662,448.5 662,350.3 	
		"/>
	<rect x="429.91" y="448.5" class="st0" width="230.05" height="111.5"/>
	<polygon class="st0" points="613.52,667.39 613.52,729 425.61,729 425.61,606.96 374.74,606.96 374.74,595.61 302.74,595.61 
		302.74,448.13 327.74,448.13 327.74,562 428.91,562 429.91,562 590.04,562 590.04,593.39 583.26,593.39 583.26,667.39 	"/>
	<path class="st0" d="M428,183.47v262.66h-99.26h-1h-25v-98.85l-101,77.14l-0.39,0.3v85.19h-47.74v146.24h-27.74v-0.06h-2v0.06
		H18.33C12.27,640.34,8,621.91,8,601.41c0-75.14,10.4-137.48,144.98-255.91c66.88-58.84,139.14-100.13,188-124.41
		c9.2-4.57,17.94-8.73,26.11-12.48l29.87,68.13h16.69v-2h-15.39l-29.35-66.96C398.04,194.47,419.54,186.48,428,183.47z"/>
	<rect x="329.74" y="448.13" class="st0" width="98.17" height="111.87"/>
	<rect x="374.74" y="608.96" class="st2" width="48.87" height="120.04"/>
	<polygon class="st0" points="372.74,624.61 372.74,729 125.87,729 125.87,658.15 155.61,658.15 155.61,601.13 237.78,601.13 
		237.78,509.52 203.35,509.52 203.35,491.76 300.74,491.76 300.74,596.61 300.74,597.61 300.74,624.61 	"/>
	<rect x="302.74" y="597.61" class="st0" width="70" height="25"/>
	<rect x="261.46" y="430.72" class="st0" width="39.28" height="59.04"/>
	<polygon class="st0" points="300.74,351.33 300.74,428.72 261.46,428.72 261.46,393.01 256.15,385.38 	"/>
	<polygon class="st0" points="259.46,393.64 259.46,489.76 203.35,489.76 203.35,425.71 254.56,386.6 	"/>
	<polygon class="st0" points="235.78,511.52 235.78,599.13 155.61,599.13 155.61,511.91 203.35,511.91 203.35,511.52 	"/>
	<path class="st0" d="M123.87,658.15V729H70.06c-3.37-2.78-17.14-14.65-30.73-33.83c-6.83-9.64-14.29-22.13-20.21-37.02H123.87z"/>
</g>
<g id="lines">
	<path d="M1016.069,87.989c-34.738-33.099-83.611-23.465-85.713-23.031L656,125.206v317.295H434V175.097l-3.942,1.304
		c-0.377,0.125-38.319,12.774-91.643,39.264c-49.202,24.441-122,66.026-189.397,125.334
		c-62.002,54.561-100.91,99.843-122.446,142.505C6.179,523.903,2,559.854,2,601.405c0,42.628,17.703,76.498,32.554,97.405
		c16.072,22.627,31.94,35.043,32.608,35.561L67.974,735H1051V160.366C1051,158.77,1050.603,120.893,1016.069,87.989z
		 M372.739,622.608h-70v-25h70V622.608z M261.457,430.718h39.283v59.043h-39.283V430.718z M300.739,428.718h-39.283v-35.705
		l-5.307-7.63l44.59-34.057V428.718z M254.559,386.598l4.898,7.042v96.121h-56.109v-64.049L254.559,386.598z M203.348,511.913
		v-0.392h32.435v87.609h-80.174v-87.218H203.348z M155.609,658.15v-57.02h82.174v-91.609h-34.435v-17.761h97.392v104.848v1v27h72
		V729H125.87v-70.85H155.609z M374.739,608.956h48.87V729h-48.87V608.956z M374.739,606.956v-11.348h-72V448.131h25V562h101.174h1
		h160.131v31.392h-6.783v74h30.261V729H425.609V606.956H374.739z M329.739,560V448.131h98.174V560H329.739z M585.261,665.392v-70
		h210.479V729H615.521v-63.608H585.261z M797.739,729V609.479h46.392V729H797.739z M846.131,653.826h73.651V729h-73.651V653.826z
		 M919.782,651.826h-73.651v-44.348h-48.392v-14.087H592.044V562h249.391V348.304h-62.608v-27.348h62.608V239.13h-46.956v-37.565
		h-48V111.48l32.956-7.237v75.323h177.913v30.869h-1.479h-82.521v110.522h9.392v27.348h-11.479v283.609h48.521V651.826z
		 M662,448.501v-98.197h57.435v131.435h-19.174V560h-38.305V448.501H662z M792.479,203.565v35.565h-6.131v27H662v-73.521h82.479
		v10.957H792.479z M763.652,350.304v69.217h-42.218v-69.217H763.652z M795.739,530.261h-43.783v-46.521h43.783V530.261z
		 M751.956,481.739v-25.587h43.783v25.587H751.956z M721.435,421.521h42.218v32.631h-13.696v27.587h-28.521V421.521z
		 M795.739,454.152h-30.087v-32.631h30.087V454.152z M795.739,419.521h-30.087V385.13h30.087V419.521z M721.435,483.739h28.521
		v46.521h-47.695v-46.521h18.174H721.435z M702.261,532.261h47.695V560h-47.695V532.261z M751.956,532.261h43.783V560h-43.783
		V532.261z M797.739,483.739h41.695V560h-41.695V483.739z M839.435,481.739h-41.695V385.13h41.695V481.739z M839.435,383.13h-73.782
		v-32.826h11.174h1h61.608V383.13z M776.826,318.957h-30.348V268.13h41.869v-27h51.087v77.826h-61.608H776.826z M744.479,268.13
		v52.826h32.348v27.348H662V268.13H744.479z M854.424,177.565v-89.79l59.794-13.13v102.92H854.424z M852.424,177.565h-70.989
		v-73.762l70.989-15.589V177.565z M1045,567.826H873.261v-65.305h35.218v-11.478H1045V567.826z M873.261,491.044h33.218v9.478
		h-33.218V491.044z M1045,489.044H873.261v-70H1045V489.044z M1045,417.044H873.261v-66.74h10.479h1H1045V417.044z M875.348,318.957
		V212.435h59.565v106.522h-50.174h-1H875.348z M1045,348.304H884.739v-27.348h52.174v-45.609H1045V348.304z M1045,273.348H936.913
		v-60.913h18.956h3.479H1045V273.348z M873.261,629.913v-60.087H1045v60.087H873.261z M931.604,70.827
		c0.476-0.099,47.902-9.387,80.326,21.506c32.593,31.055,33.068,67.671,33.069,68.033v50.068h-85.652v-32.869h-43.13V74.206
		L931.604,70.827z M744.479,111.919v78.69H662v-60.578L744.479,111.919z M659.956,448.501V560H429.913V448.501H659.956z
		 M152.982,345.504c66.874-58.847,139.143-100.136,187.993-124.411c9.208-4.576,17.948-8.732,26.113-12.482l29.867,68.129h16.697v-2
		h-15.39l-29.355-66.961c29.134-13.305,50.636-21.302,59.092-24.31v262.663h-99.261h-1h-25v-98.849l-100.999,77.141l-0.393,0.301
		v85.189h-47.739V656.15H125.87v-0.063h-2v0.063H18.329C12.271,640.336,8,621.915,8,601.405C8,526.27,18.4,463.934,152.982,345.504z
		 M39.33,695.173c-6.832-9.64-14.288-22.136-20.213-37.022H123.87V729H70.061C66.689,726.222,52.924,714.353,39.33,695.173z
		 M921.782,729v-97.087H1045V729H921.782z"/>
</g>
</svg>
