<?xml version="1.0" encoding="utf-8"?>
<!-- Generator: Adobe Illustrator 26.0.3, SVG Export Plug-In . SVG Version: 6.00 Build 0)  -->
<svg version="1.1" id="Layer_1" xmlns="http://www.w3.org/2000/svg" xmlns:xlink="http://www.w3.org/1999/xlink" x="0px" y="0px"
	 viewBox="0 0 1050 800" style="enable-background:new 0 0 1050 800;" xml:space="preserve">
<style type="text/css">
	.st0{fill:#F3EE96;}
	.st1{fill:#DBDBDB;}
	.st2{fill:#FBD1B4;}
</style>
<polygon class="st0" points="424.13,609.48 424.13,729 374.48,729 374.48,626.74 374.48,625.74 374.48,609.48 "/>
<rect x="797.74" y="609.48" class="st0" width="46.39" height="119.52"/>
<rect x="751.76" y="532.26" class="st1" width="43.98" height="27.74"/>
<rect x="702.26" y="532.26" class="st1" width="47.5" height="27.74"/>
<polygon class="st1" points="749.76,487.74 749.76,530.26 702.26,530.26 702.26,487.74 720.43,487.74 721.43,487.74 "/>
<rect x="760.57" y="487.74" class="st1" width="35.17" height="42.52"/>
<rect x="751.76" y="456.15" class="st1" width="43.98" height="29.59"/>
<rect x="765.65" y="421.52" class="st1" width="30.09" height="32.63"/>
<polygon class="st1" points="763.65,421.52 763.65,454.15 749.76,454.15 749.76,485.74 721.43,485.74 721.43,421.52 "/>
<rect x="797.74" y="385.13" class="st1" width="35.69" height="106.61"/>
<rect x="765.65" y="385.13" class="st1" width="30.09" height="34.39"/>
<rect x="765.65" y="353.74" class="st1" width="67.78" height="29.39"/>
<rect x="721.43" y="353.74" class="st1" width="42.22" height="65.78"/>
<polygon class="st1" points="428.3,559.96 428.3,560 388.78,560 388.78,559.96 390.78,559.96 390.78,532.26 428.3,532.26 "/>
<polygon class="st1" points="388.78,559.96 388.78,560 359.83,560 359.83,559.96 361.83,559.96 361.83,532.26 388.78,532.26 "/>
<polygon class="st1" points="359.83,559.96 359.83,560 327.48,560 327.48,532.26 359.83,532.26 "/>
<rect x="374.48" y="488.75" class="st1" width="53.82" height="41.51"/>
<rect x="327.48" y="488.75" class="st1" width="45" height="41.51"/>
<path class="st1" d="M428.3,485.75v1H299.65h-0.63l-154.9-133.36c2.9-2.6,5.84-5.22,8.86-7.89c66.88-58.84,139.14-100.13,188-124.41
	c43.1-21.42,76.04-33.72,87.02-37.62V448.5h0.3L428.3,485.75L428.3,485.75z"/>
<polygon class="st2" points="297.65,488.21 297.65,530.26 184.27,530.26 184.27,491.13 234.78,434.08 "/>
<polygon class="st2" points="233.26,432.78 183.18,489.34 142.11,453.12 189.46,395.06 "/>
<path class="st2" d="M187.94,393.76l-47.33,58.04l-51.07-45.05c14.85-16.11,32.39-33.35,53.08-52.01L187.94,393.76z"/>
<polygon class="st2" points="159.87,500.41 159.87,558.96 84.2,558.96 84.2,499.31 113.67,460.13 "/>
<path class="st2" d="M125.95,441.54l-13.81,17.26l0.02,0.02L82.7,497.98H26.19c11.73-26.74,30.88-55.74,62-89.75L125.95,441.54z"/>
<path class="st2" d="M82.2,499.98v58.98H9.97c2.17-19.21,6.59-38.45,15.35-58.98H82.2z"/>
<path class="st2" d="M296.83,560.96V729H70.06c-3.37-2.78-17.14-14.65-30.73-33.83C25.04,675.01,8,642.37,8,601.41
	c0-13.78,0.35-27.12,1.75-40.45L296.83,560.96L296.83,560.96z"/>
<rect x="298.83" y="627.74" class="st2" width="73.65" height="101.26"/>
<rect x="600.91" y="598" class="st2" width="194.83" height="131"/>
<rect x="426.13" y="598" class="st2" width="172.78" height="131"/>
<polygon class="st2" points="524,448.5 524,560 428.3,560 428.3,559.96 430.3,559.96 430.3,488.75 430.3,485.75 430.3,448.5 "/>
<rect x="526" y="448.5" class="st2" width="80.35" height="111.5"/>
<rect x="608.35" y="448.5" class="st2" width="56.69" height="111.5"/>
<polygon class="st2" points="719.43,353.74 719.43,485.74 700.26,485.74 700.26,560 667.04,560 667.04,446.69 662,446.69 
	662,353.74 "/>
<polygon class="st2" points="775.39,322.91 775.39,351.74 662,351.74 662,264.22 745.72,264.22 745.72,322.91 "/>
<polygon class="st2" points="791.43,199.91 791.43,232.09 784.88,232.09 784.79,262.22 662,262.22 662,199.91 "/>
<polygon class="st2" points="838.78,234.09 838.78,320.91 776.39,320.91 775.39,320.91 747.72,320.91 747.72,264.22 786.78,264.22 
	786.88,234.09 791.43,234.09 792.43,234.09 "/>
<rect x="867.78" y="234.48" class="st2" width="48.61" height="86.43"/>
<polygon class="st2" points="1045,623.57 1045,729 846.13,729 846.13,609.48 907.78,609.48 907.78,623.57 "/>
<polygon class="st2" points="1045,490.78 1045,621.57 909.78,621.57 909.78,607.48 872.43,607.48 872.43,505.65 904,505.65 
	904,490.78 "/>
<rect x="872.43" y="353.74" class="st2" width="172.57" height="135.04"/>
<rect x="918.39" y="288.87" class="st2" width="126.61" height="62.87"/>
<rect x="918.39" y="211.91" class="st2" width="126.61" height="74.96"/>
<path class="st2" d="M1045,160.37v24.37h-87.57v-8.22h-40.86V74.13l15.03-3.3c0.48-0.1,47.91-9.39,80.33,21.5
	C1044.52,123.39,1045,160,1045,160.37z"/>
<polygon class="st2" points="914.57,74.57 914.57,176.52 852.96,176.52 852.96,88.1 "/>
<polygon class="st2" points="850.96,88.54 850.96,176.52 793.43,176.52 793.43,101.17 "/>
<polygon class="st2" points="791.43,177.52 791.43,197.91 662,197.91 662,130.03 791.43,101.61 791.43,176.52 "/>
<g id="lines">
	<path d="M1016.069,87.989c-34.738-33.099-83.611-23.465-85.713-23.031L656,125.206v317.295H434V175.097l-3.942,1.304
		c-0.377,0.125-38.319,12.774-91.643,39.264c-49.202,24.441-122,66.026-189.397,125.334
		C87.016,395.56,48.108,440.842,26.572,483.504C6.179,523.903,2,559.854,2,601.405c0,42.628,17.703,76.498,32.554,97.405
		c16.072,22.627,31.94,35.043,32.608,35.561L67.974,735H1051V160.366C1051,158.77,1050.603,120.893,1016.069,87.989z
		 M872.435,607.479V505.652H904v-14.87h141v130.783H909.782v-14.087L872.435,607.479L872.435,607.479z M298.826,627.739h73.652V729
		h-73.652V627.739z M374.478,626.739v-1v-16.261h49.652V729h-49.652V626.739z M600.913,598h194.826v131H600.913V598z M598.913,729
		H426.13V598h172.783V729z M797.739,609.479h46.392V729h-46.392V609.479z M797.739,607.479V596H424.13v11.479h-51.652v18.261
		h-73.652v-66.783H161.87v-59.455l-46.968-40.951l12.552-15.689l54.813,48.343v41.057h117.385v-43.509h25.826v41.509v2V562h472.261
		v-68.261h37.695v-142h-58.043v-28.826h63.391v-90.826h-47.348v-53.565h162v8.217H1045v23.174H916.392v22.565h-50.609v90.435h50.609
		v28.826h-45.957v255.739h-24.304h-1L797.739,607.479L797.739,607.479z M82.196,558.956H9.972
		c2.169-19.204,6.59-38.443,15.351-58.978h56.873V558.956z M84.196,499.313l29.479-39.178l46.195,40.277v58.545H84.196V499.313z
		 M233.261,432.776l-50.081,56.566l-41.069-36.221l47.346-58.057L233.261,432.776z M184.267,491.131l50.51-57.05l62.875,54.13v42.05
		H184.267V491.131z M428.304,530.261h-53.826v-41.509h53.826V530.261z M372.478,530.261h-45v-41.509h45V530.261z M526,560V448.501
		h80.348V560H526z M852.956,176.522V88.098l61.609-13.529v101.953H852.956z M850.956,176.522h-57.521v-75.354l57.521-12.631V176.522
		z M763.652,353.739v65.782h-42.218v-65.782H763.652z M795.739,485.739H751.76v-29.587h43.979V485.739z M751.761,530.261V487.74
		h6.805v42.521H751.761z M721.435,421.521h42.218v32.631h-13.892v31.587h-28.326V421.521z M795.739,454.152h-30.087v-32.631h30.087
		V454.152z M795.739,419.521h-30.087V385.13h30.087V419.521z M721.435,487.739h28.326v42.521h-47.5v-42.521h18.174H721.435z
		 M702.261,532.261h47.5V560h-47.5V532.261z M751.761,532.261h43.979V560h-43.979V532.261z M795.739,530.261h-35.174V487.74h35.174
		V530.261z M797.739,385.13h35.695v106.609h-35.695V385.13z M833.435,383.13h-67.782v-29.391h67.782V383.13z M775.392,320.913
		h-27.674v-56.696h39.062l0.099-30.13h4.557h1h46.348v86.826h-62.391L775.392,320.913L775.392,320.913z M791.435,232.087h-6.551
		l-0.099,30.13H662v-62.304h129.435V232.087z M662,264.217h83.718v58.696h29.674v28.826H662V264.217z M719.435,353.739v132h-19.174
		V560h-33.217V446.687H662V353.74h57.435V353.739z M1045,488.782H872.435V353.739H1045V488.782z M872.435,490.782H902v12.87h-29.565
		V490.782z M916.392,320.913h-48.609v-86.435h48.609V320.913z M918.392,288.87H1045v62.87H918.392V288.87z M1045,286.87H918.392
		v-74.957H1045V286.87z M931.604,70.827c0.476-0.099,47.902-9.387,80.326,21.506c32.593,31.055,33.068,67.671,33.069,68.033v24.373
		h-87.565v-8.217h-40.869V74.13L931.604,70.827z M791.435,101.608v74.914v1v20.391H662v-67.882L791.435,101.608z M665.044,448.501
		V560h-56.696V448.501H665.044z M524,448.501V560H327.478v-27.739h32.348v27.695h2v-27.695h26.957v27.695h2v-27.695h37.521v27.695h2
		v-71.204v-3v-37.251L524,448.501L524,448.501z M152.982,345.504c66.874-58.847,139.143-100.136,187.993-124.411
		c43.105-21.42,76.049-33.72,87.025-37.625v265.033h0.304v37.251v1H299.652h-0.629L144.118,353.393
		C147.018,350.788,149.958,348.165,152.982,345.504z M142.619,354.741l45.321,39.017l-47.33,58.038l-51.071-45.042
		C104.386,390.641,121.932,373.395,142.619,354.741z M88.191,408.233l37.761,33.303l-13.81,17.262l0.021,0.018l-29.467,39.162
		H26.189C37.917,471.238,57.069,442.241,88.191,408.233z M39.33,695.173C25.037,675.007,8,642.37,8,601.405
		c0-13.772,0.354-27.113,1.753-40.449h287.073V729H70.061C66.689,726.222,52.924,714.353,39.33,695.173z M846.131,729V609.479
		h61.651v14.087H1045V729H846.131z"/>
</g>
</svg>
