<?xml version="1.0" encoding="utf-8"?>
<!-- Generator: Adobe Illustrator 26.0.3, SVG Export Plug-In . SVG Version: 6.00 Build 0)  -->
<svg version="1.1" xmlns="http://www.w3.org/2000/svg" xmlns:xlink="http://www.w3.org/1999/xlink" x="0px" y="0px"
	 viewBox="0 0 1050 800" style="enable-background:new 0 0 1050 800;" xml:space="preserve">
<style type="text/css">
	.st0{fill:#DBDBDB;}
	.st1{fill:#F3EE96;}
	.st2{fill:#FBD1B4;}
</style>
<g id="room">
	<g id="XMLID_00000089553361586620724920000011987240613860007353_">
		<g>
			<rect x="390.78" y="532.26" class="st0" width="33.35" height="26.7"/>
			<rect x="361.83" y="532.26" class="st0" width="26.95" height="26.7"/>
			<rect x="326.48" y="532.26" class="st0" width="33.35" height="26.7"/>
			<rect x="384.13" y="486.75" class="st0" width="40" height="43.51"/>
			<rect x="326.48" y="486.75" class="st0" width="46" height="43.51"/>
			<polygon class="st0" points="428.3,448.5 428.3,484.75 326.48,484.75 326.48,419.57 428,419.57 428,448.5 			"/>
			<polygon class="st1" points="424.13,609.48 424.13,729 374.48,729 374.48,626.74 374.48,625.74 374.48,609.48 			"/>
			<rect x="797.74" y="609.48" class="st1" width="46.39" height="119.52"/>
			<rect x="797.74" y="385.13" class="st0" width="41.69" height="96.61"/>
			<rect x="765.65" y="362.3" class="st0" width="73.78" height="20.83"/>
			<rect x="765.65" y="385.13" class="st0" width="30.09" height="34.39"/>
			<rect x="765.65" y="421.52" class="st0" width="30.09" height="32.63"/>
			<rect x="751.96" y="456.15" class="st0" width="43.78" height="25.59"/>
			<rect x="751.96" y="483.74" class="st0" width="43.78" height="46.52"/>
			<rect x="751.96" y="532.26" class="st0" width="43.78" height="26.7"/>
			<rect x="702.26" y="532.26" class="st0" width="47.7" height="26.7"/>
			<polygon class="st0" points="749.96,483.74 749.96,530.26 702.26,530.26 702.26,483.74 720.43,483.74 721.43,483.74 			"/>
			<polygon class="st0" points="763.65,421.52 763.65,454.15 749.96,454.15 749.96,481.74 721.43,481.74 721.43,421.52 			"/>
			<rect x="721.43" y="362.3" class="st0" width="42.22" height="57.22"/>
			<polygon class="st0" points="719.43,362.3 719.43,481.74 700.26,481.74 700.26,558.96 661.57,558.96 661.57,448.5 662,448.5 
				662,362.3 			"/>
			<polygon class="st2" points="775.52,331.65 775.52,360.3 662,360.3 662,278.96 746.3,278.96 746.3,331.65 			"/>
			<polygon class="st2" points="839.96,251.04 839.96,329.65 776.52,329.65 775.52,329.65 748.3,329.65 748.3,278.96 788.74,278.96 
				788.74,251.04 794.3,251.04 795.3,251.04 			"/>
			<polygon class="st2" points="794.3,211.65 794.3,249.04 786.74,249.04 786.74,276.96 662,276.96 662,200.7 746.3,200.7 
				746.3,211.65 			"/>
			<polygon class="st2" points="746.3,111.52 746.3,198.7 662,198.7 662,130.03 			"/>
			<polygon class="st2" points="917.17,74 917.17,186.7 781.7,186.7 781.7,103.75 			"/>
			<path class="st2" d="M1045,160.37v57.89h-85.65V186.7h-40.18V73.56l12.43-2.73c0.48-0.1,47.91-9.39,80.33,21.5
				C1044.52,123.39,1045,160,1045,160.37z"/>
			<polygon class="st2" points="1045,220.26 1045,282.43 937.96,282.43 937.96,220.26 958.35,220.26 959.35,220.26 			"/>
			<polygon class="st2" points="935.96,220.26 935.96,328.35 924.65,328.35 923.65,328.35 871.96,328.35 871.96,220.26 			"/>
			<polygon class="st2" points="1045,284.43 1045,361.74 924.65,361.74 924.65,330.35 937.96,330.35 937.96,284.43 			"/>
			<rect x="877.43" y="363.74" class="st2" width="167.57" height="125.04"/>
			<polygon class="st2" points="1045,490.78 1045,607.48 877.43,607.48 877.43,505.65 909,505.65 909,490.78 			"/>
			<rect x="846.13" y="609.48" class="st2" width="198.87" height="119.52"/>
			<rect x="543.39" y="448.5" class="st2" width="116.18" height="110.46"/>
			<polygon class="st2" points="541.39,494.3 541.39,558.96 457.3,558.96 457.3,537.78 455.3,537.78 455.3,558.96 426.13,558.96 
				426.13,494.3 455.3,494.3 455.3,525.47 457.3,525.47 457.3,494.3 462.17,494.3 462.17,492.3 426.13,492.3 426.13,486.75 
				430.3,486.75 430.3,448.5 541.39,448.5 541.39,492.3 481.89,492.3 481.89,494.3 			"/>
			<rect x="426.13" y="598" class="st2" width="369.61" height="131"/>
			<polygon class="st2" points="372.48,627.74 372.48,729 281.61,729 281.61,687.22 300.57,687.22 300.57,627.74 			"/>
			<polygon class="st2" points="298.57,594.87 298.57,685.22 279.61,685.22 279.61,729 210.39,729 210.39,692.26 182.22,692.26 
				182.22,594.87 			"/>
			<path class="st2" d="M298.57,243.53v349.34H180.22v101.39h28.17V729H70.06c-3.37-2.78-17.14-14.65-30.73-33.83
				C25.04,675.01,8,642.37,8,601.41c0-75.14,10.4-137.48,144.98-255.91C202.45,301.97,254.86,268.06,298.57,243.53z"/>
			<rect x="326.48" y="327.74" class="st2" width="101.52" height="89.83"/>
			<path class="st2" d="M428,183.47v142.27H300.57V242.4c14.62-8.16,28.24-15.26,40.41-21.31
				C384.08,199.67,417.02,187.37,428,183.47z"/>
		</g>
		<g>
		</g>
	</g>
</g>
<g id="line">
	<path d="M1016.069,87.989c-34.738-33.099-83.611-23.465-85.713-23.031L656,125.206v317.295H434V175.097l-3.942,1.304
		c-0.377,0.125-38.319,12.774-91.643,39.264c-49.202,24.441-122,66.026-189.397,125.334
		c-62.002,54.561-100.91,99.843-122.446,142.505C6.179,523.903,2,559.854,2,601.405c0,42.628,17.703,76.498,32.554,97.405
		c16.072,22.627,31.94,35.043,32.608,35.561L67.974,735H1051V160.366C1051,158.77,1050.603,120.893,1016.069,87.989z
		 M931.604,70.827c0.476-0.099,47.902-9.387,80.326,21.506c32.593,31.055,33.068,67.671,33.069,68.033v57.895h-85.652v-31.565
		h-40.174V73.557L931.604,70.827z M279.609,729h-69.218v-36.739h-28.174v-97.392h116.35v90.349h-18.958V729z M281.609,687.218
		h18.958v-59.479h71.911V729h-90.869V687.218z M374.478,626.739v-1v-16.261h49.652V729h-49.652V626.739z M795.739,729H426.13V598
		h369.609V729z M797.739,609.479h46.392V729h-46.392V609.479z M797.739,607.479V596H424.13v11.479h-51.652v18.261h-71.911v-30.87v-1
		v-266.13h23.911v233.217h375.783V561h2v-0.044h47.695V561h2v-0.044h43.783V561h2v-77.261h43.695V360.304h-63.913v-28.652h64.435
		v-82.609h-45.651v-39.391h-48v-98.574l31.391-6.893v84.51h177.652v29.565h-87.392v112.087h52.696v31.392h-47.218v245.739h-29.304
		h-1H797.739z M428.304,448.501v36.251H326.478v-65.187H428v28.936H428.304z M390.783,558.956v-26.695h33.348v26.695H390.783z
		 M382.13,486.752v43.509h-7.652v-43.509H382.13z M372.478,530.261h-46v-43.509h46V530.261z M326.478,532.261h33.348v26.695h-33.348
		V532.261z M361.826,532.261h26.957v26.695h-26.957V532.261z M424.13,530.261h-40v-43.509h40V530.261z M428,417.565H326.478v-89.826
		H428V417.565z M662,448.501v-86.197h57.435v119.435h-19.174v77.217h-38.695V448.501H662z M794.305,211.652v37.391h-7.565v27.913
		H662v-76.261h84.305v10.957H794.305z M795.739,558.956h-43.783v-26.695h43.783V558.956z M763.652,362.304v57.217h-42.218v-57.217
		H763.652z M795.739,454.152h-30.087v-32.631h30.087V454.152z M749.956,481.739h-28.521v-60.218h42.218v32.631h-13.696V481.739z
		 M795.739,419.521h-30.087V385.13h30.087V419.521z M721.435,483.739h28.521v46.521h-47.695v-46.521h18.174H721.435z
		 M702.261,532.261h47.695v26.695h-47.695V532.261z M795.739,530.261h-43.783v-46.521h43.783V530.261z M751.956,481.739v-25.587
		h43.783v25.587H751.956z M797.739,385.13h41.695v96.609h-41.695V385.13z M839.435,383.13h-73.782v-20.826h73.782V383.13z
		 M775.521,329.652h-27.217v-50.696h40.435v-27.913h5.565h1h44.651v78.609h-63.435H775.521z M746.305,278.957v52.696h29.217v28.652
		H662v-81.348H746.305z M781.695,186.696v-82.949l135.479-29.75v112.7H781.695z M871.956,328.348V220.261h64v108.087h-11.304h-1
		H871.956z M877.435,490.782H907v12.87h-29.565V490.782z M877.435,505.652H909v-14.87h136v116.696H877.435V505.652z
		 M877.435,488.782V363.739H1045v125.043H877.435z M924.652,361.739v-31.392h13.304v-45.913H1045v77.305H924.652z M937.956,282.435
		v-62.174h20.392h1H1045v62.174H937.956z M746.305,111.518v87.178H662v-68.665L746.305,111.518z M659.565,448.501v110.455H543.392
		V448.501H659.565z M541.392,448.501v43.804h-59.5v2h59.5v64.651h-84.087v-21.174h-2v21.174H426.13v-64.651h29.174v31.169h2v-31.169
		h4.87v-2H426.13v-5.553h4.174v-38.251H541.392z M340.975,221.093c43.105-21.42,76.049-33.72,87.025-37.625v142.271H300.567v-83.336
		C315.191,234.24,328.81,227.138,340.975,221.093z M39.33,695.173C25.037,675.007,8,642.37,8,601.405
		c0-75.136,10.4-137.472,144.982-255.901c49.467-43.53,101.876-77.441,145.585-101.976v349.342h-118.35v101.392h28.174V729H70.061
		C66.689,726.222,52.924,714.353,39.33,695.173z M846.131,729V609.479H1045V729H846.131z"/>
</g>
</svg>
