<svg width="19" height="13" viewBox="0 0 19 13" fill="none" xmlns="http://www.w3.org/2000/svg">
<path d="M7 12.9999C6.8684 13.0007 6.73793 12.9755 6.6161 12.9257C6.49426 12.8759 6.38344 12.8026 6.29 12.7099L1.29 7.70994C1.19676 7.6167 1.1228 7.50601 1.07234 7.38419C1.02188 7.26237 0.995911 7.1318 0.995911 6.99994C0.995911 6.73364 1.1017 6.47824 1.29 6.28994C1.47831 6.10164 1.7337 5.99585 2 5.99585C2.2663 5.99585 2.5217 6.10164 2.71 6.28994L7 10.5899L16.29 1.28994C16.4783 1.10164 16.7337 0.99585 17 0.99585C17.2663 0.99585 17.5217 1.10164 17.71 1.28994C17.8983 1.47825 18.0041 1.73364 18.0041 1.99994C18.0041 2.26624 17.8983 2.52164 17.71 2.70994L7.71 12.7099C7.61656 12.8026 7.50575 12.8759 7.38391 12.9257C7.26207 12.9755 7.13161 13.0007 7 12.9999Z" fill="#39559a"/>
</svg>

