<svg version="1.1" xmlns="http://www.w3.org/2000/svg" xmlns:xlink="http://www.w3.org/1999/xlink">
    <symbol id="vk" viewBox="0 0 30 30">
        <path d="M15 5C16.9778 5 18.9112 5.58649 20.5557 6.6853C22.2002 7.78412 23.4819 9.3459 24.2388 11.1732C24.9957 13.0004 25.1937 15.0111 24.8079 16.9509C24.422 18.8907 23.4696 20.6725 22.0711 22.0711C20.6725 23.4696 18.8907 24.422 16.9509 24.8079C15.0111 25.1937 13.0004 24.9957 11.1732 24.2388C9.34591 23.4819 7.78412 22.2002 6.68531 20.5557C5.58649 18.9112 5.00001 16.9778 5.00001 15C5.00001 12.3478 6.05357 9.8043 7.92894 7.92893C9.8043 6.05357 12.3478 5 15 5ZM15 3C12.6266 3 10.3066 3.70379 8.33316 5.02236C6.35977 6.34094 4.8217 8.21509 3.91345 10.4078C3.0052 12.6005 2.76756 15.0133 3.23058 17.3411C3.6936 19.6689 4.83649 21.8071 6.51472 23.4853C8.19295 25.1635 10.3312 26.3064 12.6589 26.7694C14.9867 27.2324 17.3995 26.9948 19.5922 26.0866C21.7849 25.1783 23.6591 23.6402 24.9776 21.6668C26.2962 19.6935 27 17.3734 27 15C27 11.8174 25.7357 8.76515 23.4853 6.51472C21.2348 4.26428 18.1826 3 15 3Z"/>
        <path d="M20.35 18.3501V18.2701C20.0206 17.7502 19.6162 17.2818 19.15 16.8801C18.89 16.6201 18.72 16.4501 18.65 16.3601C18.5886 16.2941 18.5475 16.2119 18.5316 16.1233C18.5156 16.0346 18.5255 15.9433 18.56 15.8601C18.7167 15.5675 18.9045 15.2926 19.12 15.0401L19.53 14.5001C20.25 13.5001 20.53 12.9301 20.47 12.6601V12.6001C20.47 12.6001 20.38 12.5301 20.28 12.5001C20.148 12.4731 20.0119 12.4731 19.88 12.5001H18C17.9613 12.4855 17.9186 12.4855 17.88 12.5001H17.8L17.73 12.5701C17.7022 12.6019 17.6817 12.6395 17.67 12.6801C17.4809 13.1624 17.257 13.6303 17 14.0801C16.84 14.3401 16.7 14.5701 16.57 14.7601C16.4719 14.9064 16.365 15.0467 16.25 15.1801C16.1757 15.2563 16.0954 15.3266 16.01 15.3901C15.9888 15.4139 15.9625 15.4325 15.933 15.4447C15.9036 15.4568 15.8717 15.462 15.84 15.4601H15.74C15.681 15.4231 15.6328 15.3714 15.6 15.3101C15.56 15.2316 15.533 15.1471 15.52 15.0601C15.52 14.9601 15.52 14.8801 15.52 14.8101C15.52 14.7401 15.52 14.6401 15.52 14.5101V14.2401C15.52 14.0801 15.52 13.9101 15.52 13.7301C15.52 13.5501 15.52 13.3901 15.52 13.2801V13.0001C15.5318 12.9038 15.5318 12.8064 15.52 12.7101C15.5079 12.6413 15.4877 12.5741 15.46 12.5101C15.4278 12.4514 15.3835 12.4002 15.33 12.3601C15.2632 12.3256 15.1927 12.2988 15.12 12.2801C14.8403 12.2231 14.5553 12.1963 14.27 12.2001C13.765 12.1572 13.2564 12.208 12.77 12.3501C12.6821 12.3984 12.604 12.4629 12.54 12.5401C12.46 12.6301 12.45 12.6801 12.54 12.6901C12.643 12.6939 12.7441 12.719 12.8371 12.7638C12.93 12.8085 13.0127 12.8719 13.08 12.9501L13 13.0001C13.0372 13.0935 13.064 13.1908 13.08 13.2901C13.1118 13.4416 13.1319 13.5954 13.14 13.7501C13.1603 14.0097 13.1603 14.2705 13.14 14.5301C13.14 14.7501 13.12 14.9201 13.08 15.0401C13.0646 15.1395 13.0378 15.2368 13 15.3301L12.92 15.4701C12.8637 15.4796 12.8062 15.4796 12.75 15.4701C12.6722 15.463 12.5987 15.4315 12.54 15.3801C12.4397 15.3162 12.3517 15.2349 12.28 15.1401C12.1651 15.0054 12.0614 14.8616 11.97 14.7101C11.86 14.5301 11.74 14.3101 11.62 14.0601L11.52 13.8801L11.26 13.3701C11.16 13.1501 11.06 12.9301 10.98 12.7201C10.9466 12.6424 10.8952 12.5738 10.83 12.5201H10.73H10.58H8.77995C8.71632 12.512 8.65169 12.5186 8.59103 12.5394C8.53036 12.5602 8.47526 12.5947 8.42995 12.6401C8.42228 12.673 8.42228 12.7072 8.42995 12.7401C8.42384 12.7966 8.42384 12.8536 8.42995 12.9101C8.67995 13.5001 8.94995 14.0601 9.24995 14.6101C9.47849 15.0554 9.72879 15.4893 9.99995 15.9101C10.2037 16.2377 10.424 16.5548 10.66 16.8601C10.89 17.1501 11.03 17.3501 11.11 17.4301L11.28 17.6201L11.44 17.7701C11.5759 17.9026 11.7231 18.0231 11.88 18.1301C12.07 18.2701 12.29 18.4001 12.52 18.5401C12.7794 18.6892 13.0589 18.8003 13.35 18.8701C13.6456 18.9546 13.9527 18.9917 14.26 18.9801H15C15.1233 18.9749 15.2405 18.9251 15.33 18.8401C15.3502 18.8016 15.3669 18.7615 15.38 18.7201C15.3854 18.6635 15.3854 18.6066 15.38 18.5501C15.3589 18.3874 15.3589 18.2227 15.38 18.0601C15.4009 17.9486 15.438 17.8408 15.49 17.7401C15.5225 17.67 15.5664 17.6058 15.62 17.5501L15.73 17.4601C15.792 17.447 15.8563 17.4493 15.9173 17.4667C15.9783 17.4841 16.0341 17.5162 16.08 17.5601C16.2209 17.6641 16.3485 17.785 16.46 17.9201C16.58 18.0701 16.73 18.2301 16.89 18.4101C17.0251 18.5555 17.1723 18.6893 17.33 18.8101L17.46 18.8801C17.5603 18.94 17.6678 18.987 17.78 19.0201C17.8949 19.0484 18.015 19.0484 18.13 19.0201H19.74C19.8681 19.0255 19.9955 18.9979 20.11 18.9401C20.1803 18.9052 20.2341 18.8442 20.26 18.7701C20.275 18.6975 20.275 18.6226 20.26 18.5501C20.302 18.4895 20.3325 18.4217 20.35 18.3501Z"/>
    </symbol>

    <symbol id="fb" viewBox="0 0 30 30">
        <path d="M15 5C16.9778 5 18.9112 5.58649 20.5557 6.6853C22.2002 7.78412 23.4819 9.3459 24.2388 11.1732C24.9957 13.0004 25.1937 15.0111 24.8079 16.9509C24.422 18.8907 23.4696 20.6725 22.0711 22.0711C20.6725 23.4696 18.8907 24.422 16.9509 24.8079C15.0111 25.1937 13.0004 24.9957 11.1732 24.2388C9.34591 23.4819 7.78412 22.2002 6.68531 20.5557C5.58649 18.9112 5.00001 16.9778 5.00001 15C5.00001 12.3478 6.05357 9.8043 7.92894 7.92893C9.8043 6.05357 12.3478 5 15 5ZM15 3C12.6266 3 10.3066 3.70379 8.33316 5.02236C6.35977 6.34094 4.8217 8.21509 3.91345 10.4078C3.0052 12.6005 2.76756 15.0133 3.23058 17.3411C3.6936 19.6689 4.83649 21.8071 6.51472 23.4853C8.19295 25.1635 10.3312 26.3064 12.6589 26.7694C14.9867 27.2324 17.3995 26.9948 19.5922 26.0866C21.7849 25.1783 23.6591 23.6402 24.9776 21.6668C26.2962 19.6935 27 17.3734 27 15C27 11.8174 25.7357 8.76515 23.4853 6.51472C21.2348 4.26428 18.1826 3 15 3Z"/>
        <path d="M17.26 10.0001H15.94C15.6087 9.9818 15.2773 10.0348 14.9683 10.1554C14.6592 10.276 14.3796 10.4616 14.1484 10.6995C13.9171 10.9374 13.7395 11.2221 13.6277 11.5344C13.5158 11.8468 13.4723 12.1795 13.5 12.5101V13.6601H12.17C12.1143 13.6601 12.0609 13.6822 12.0215 13.7216C11.9821 13.761 11.96 13.8144 11.96 13.8701V15.5501C11.9599 15.5772 11.9654 15.6041 11.9761 15.629C11.9868 15.654 12.0024 15.6765 12.022 15.6952C12.0417 15.7139 12.0649 15.7284 12.0904 15.7379C12.1158 15.7473 12.1429 15.7515 12.17 15.7501H13.5V20.0001C13.5 20.0558 13.5221 20.1092 13.5615 20.1486C13.6009 20.188 13.6543 20.2101 13.71 20.2101H15.44C15.4957 20.2101 15.5491 20.188 15.5885 20.1486C15.6278 20.1092 15.65 20.0558 15.65 20.0001V15.7501H17.2C17.2271 15.7515 17.2541 15.7473 17.2796 15.7379C17.305 15.7284 17.3282 15.7139 17.3479 15.6952C17.3675 15.6765 17.3832 15.654 17.3938 15.629C17.4045 15.6041 17.41 15.5772 17.41 15.5501V13.8701C17.4108 13.8438 17.4059 13.8176 17.3955 13.7935C17.3851 13.7693 17.3696 13.7477 17.35 13.7301C17.331 13.7089 17.3079 13.6918 17.2821 13.6797C17.2564 13.6677 17.2284 13.661 17.2 13.6601H15.65V12.6601C15.65 12.1901 15.76 11.9501 16.37 11.9501H17.26C17.2871 11.9515 17.3141 11.9473 17.3396 11.9379C17.365 11.9284 17.3882 11.9139 17.4079 11.8952C17.4275 11.8765 17.4432 11.854 17.4538 11.829C17.4645 11.8041 17.47 11.7772 17.47 11.7501V10.2101C17.47 10.1544 17.4478 10.101 17.4085 10.0616C17.3691 10.0222 17.3157 10.0001 17.26 10.0001Z"/>
    </symbol>

    <symbol id="instagram" viewBox="0 0 30 30">
        <path d="M15 5C16.9778 5 18.9112 5.58649 20.5557 6.6853C22.2002 7.78412 23.4819 9.3459 24.2388 11.1732C24.9957 13.0004 25.1937 15.0111 24.8079 16.9509C24.422 18.8907 23.4696 20.6725 22.0711 22.0711C20.6725 23.4696 18.8907 24.422 16.9509 24.8079C15.0111 25.1937 13.0004 24.9957 11.1732 24.2388C9.34591 23.4819 7.78412 22.2002 6.68531 20.5557C5.58649 18.9112 5.00001 16.9778 5.00001 15C5.00001 12.3478 6.05357 9.8043 7.92894 7.92893C9.8043 6.05357 12.3478 5 15 5ZM15 3C12.6266 3 10.3066 3.70379 8.33316 5.02236C6.35977 6.34094 4.8217 8.21509 3.91345 10.4078C3.0052 12.6005 2.76756 15.0133 3.23058 17.3411C3.6936 19.6689 4.83649 21.8071 6.51472 23.4853C8.19295 25.1635 10.3312 26.3064 12.6589 26.7694C14.9867 27.2324 17.3995 26.9948 19.5922 26.0866C21.7849 25.1783 23.6591 23.6402 24.9776 21.6668C26.2962 19.6935 27 17.3734 27 15C27 11.8174 25.7357 8.76515 23.4853 6.51472C21.2348 4.26428 18.1826 3 15 3Z"/>
        <path d="M19.76 14.29C19.5955 13.2803 19.1147 12.3489 18.3868 11.63C17.659 10.9111 16.7216 10.4419 15.71 10.29C15.2392 10.2201 14.7607 10.2201 14.29 10.29C13.3492 10.4298 12.4711 10.8453 11.7664 11.4841C11.0618 12.1228 10.5623 12.9561 10.3311 13.8786C10.1 14.8012 10.1475 15.7715 10.4677 16.6671C10.7878 17.5626 11.3663 18.3432 12.13 18.91C12.9569 19.5249 13.9595 19.8579 14.99 19.86C15.2297 19.8749 15.4702 19.8749 15.71 19.86C16.9715 19.6699 18.1062 18.9873 18.8654 17.962C19.6246 16.9367 19.9463 15.6521 19.76 14.39V14.29ZM15.45 18C15.0507 18.0591 14.6438 18.039 14.2524 17.9408C13.8609 17.8426 13.4926 17.6683 13.1686 17.4278C12.8445 17.1873 12.5709 16.8853 12.3636 16.5391C12.1562 16.1929 12.0191 15.8092 11.96 15.41C11.9009 15.0108 11.921 14.6039 12.0192 14.2124C12.1173 13.821 12.2917 13.4527 12.5322 13.1286C12.7727 12.8045 13.0746 12.531 13.4209 12.3236C13.7671 12.1163 14.1507 11.9791 14.55 11.92C14.8476 11.8667 15.1523 11.8667 15.45 11.92C16.1828 12.0232 16.8536 12.3877 17.3391 12.9462C17.8245 13.5048 18.0918 14.22 18.0918 14.96C18.0918 15.7001 17.8245 16.4152 17.3391 16.9738C16.8536 17.5324 16.1828 17.8968 15.45 18Z"/>
        <path d="M21.1399 9.09012C20.8969 8.85193 20.5702 8.71851 20.2299 8.71851C19.8897 8.71851 19.5629 8.85193 19.3199 9.09012C19.1389 9.27029 19.0155 9.50013 18.9652 9.75053C18.9149 10.0009 18.9401 10.2606 19.0376 10.4967C19.135 10.7328 19.3003 10.9346 19.5126 11.0766C19.7249 11.2186 19.9745 11.2945 20.2299 11.2945C20.4853 11.2945 20.735 11.2186 20.9473 11.0766C21.1595 10.9346 21.3249 10.7328 21.4223 10.4967C21.5198 10.2606 21.545 10.0009 21.4947 9.75053C21.4444 9.50013 21.321 9.27029 21.1399 9.09012Z"/>
    </symbol>

    <symbol id="instagram" viewBox="0 0 173 32">
        <path d="M15 5C16.9778 5 18.9112 5.58649 20.5557 6.6853C22.2002 7.78412 23.4819 9.3459 24.2388 11.1732C24.9957 13.0004 25.1937 15.0111 24.8079 16.9509C24.422 18.8907 23.4696 20.6725 22.0711 22.0711C20.6725 23.4696 18.8907 24.422 16.9509 24.8079C15.0111 25.1937 13.0004 24.9957 11.1732 24.2388C9.34591 23.4819 7.78412 22.2002 6.68531 20.5557C5.58649 18.9112 5.00001 16.9778 5.00001 15C5.00001 12.3478 6.05357 9.8043 7.92894 7.92893C9.8043 6.05357 12.3478 5 15 5ZM15 3C12.6266 3 10.3066 3.70379 8.33316 5.02236C6.35977 6.34094 4.8217 8.21509 3.91345 10.4078C3.0052 12.6005 2.76756 15.0133 3.23058 17.3411C3.6936 19.6689 4.83649 21.8071 6.51472 23.4853C8.19295 25.1635 10.3312 26.3064 12.6589 26.7694C14.9867 27.2324 17.3995 26.9948 19.5922 26.0866C21.7849 25.1783 23.6591 23.6402 24.9776 21.6668C26.2962 19.6935 27 17.3734 27 15C27 11.8174 25.7357 8.76515 23.4853 6.51472C21.2348 4.26428 18.1826 3 15 3Z"/>
        <path d="M19.76 14.29C19.5955 13.2803 19.1147 12.3489 18.3868 11.63C17.659 10.9111 16.7216 10.4419 15.71 10.29C15.2392 10.2201 14.7607 10.2201 14.29 10.29C13.3492 10.4298 12.4711 10.8453 11.7664 11.4841C11.0618 12.1228 10.5623 12.9561 10.3311 13.8786C10.1 14.8012 10.1475 15.7715 10.4677 16.6671C10.7878 17.5626 11.3663 18.3432 12.13 18.91C12.9569 19.5249 13.9595 19.8579 14.99 19.86C15.2297 19.8749 15.4702 19.8749 15.71 19.86C16.9715 19.6699 18.1062 18.9873 18.8654 17.962C19.6246 16.9367 19.9463 15.6521 19.76 14.39V14.29ZM15.45 18C15.0507 18.0591 14.6438 18.039 14.2524 17.9408C13.8609 17.8426 13.4926 17.6683 13.1686 17.4278C12.8445 17.1873 12.5709 16.8853 12.3636 16.5391C12.1562 16.1929 12.0191 15.8092 11.96 15.41C11.9009 15.0108 11.921 14.6039 12.0192 14.2124C12.1173 13.821 12.2917 13.4527 12.5322 13.1286C12.7727 12.8045 13.0746 12.531 13.4209 12.3236C13.7671 12.1163 14.1507 11.9791 14.55 11.92C14.8476 11.8667 15.1523 11.8667 15.45 11.92C16.1828 12.0232 16.8536 12.3877 17.3391 12.9462C17.8245 13.5048 18.0918 14.22 18.0918 14.96C18.0918 15.7001 17.8245 16.4152 17.3391 16.9738C16.8536 17.5324 16.1828 17.8968 15.45 18Z"/>
        <path d="M21.1399 9.09012C20.8969 8.85193 20.5702 8.71851 20.2299 8.71851C19.8897 8.71851 19.5629 8.85193 19.3199 9.09012C19.1389 9.27029 19.0155 9.50013 18.9652 9.75053C18.9149 10.0009 18.9401 10.2606 19.0376 10.4967C19.135 10.7328 19.3003 10.9346 19.5126 11.0766C19.7249 11.2186 19.9745 11.2945 20.2299 11.2945C20.4853 11.2945 20.735 11.2186 20.9473 11.0766C21.1595 10.9346 21.3249 10.7328 21.4223 10.4967C21.5198 10.2606 21.545 10.0009 21.4947 9.75053C21.4444 9.50013 21.321 9.27029 21.1399 9.09012Z"/>
    </symbol>

    <symbol id="capital-life" viewBox="0 0 173 32">
        <path d="M28.88 3.13249e-08H2.17C1.88164 -4.89637e-05 1.59615 0.0573769 1.33024 0.168922C1.06432 0.280468 0.823297 0.443896 0.621262 0.649654C0.419227 0.855413 0.26023 1.09938 0.153559 1.36729C0.046889 1.6352 -0.00531299 1.92168 2.51632e-06 2.21V28.88C2.51632e-06 29.4555 0.228627 30.0075 0.635581 30.4144C1.04253 30.8214 1.59448 31.05 2.17 31.05H28.88C29.4555 31.05 30.0075 30.8214 30.4144 30.4144C30.8214 30.0075 31.05 29.4555 31.05 28.88V2.21C31.0553 1.92168 31.0031 1.6352 30.8964 1.36729C30.7898 1.09938 30.6308 0.855413 30.4287 0.649654C30.2267 0.443896 29.9857 0.280468 29.7198 0.168922C29.4539 0.0573769 29.1684 -4.89637e-05 28.88 3.13249e-08Z" fill="#BA1222"/>
        <path d="M29.24 0.810093C29.1165 0.809029 28.9941 0.832835 28.88 0.880092L1.16999 11.0701C1.03192 11.122 0.907039 11.2038 0.804295 11.3096C0.70155 11.4154 0.623486 11.5426 0.575699 11.6822C0.527911 11.8217 0.511584 11.9701 0.527885 12.1167C0.544187 12.2633 0.592714 12.4045 0.669989 12.5301L10.98 30.0701C11.0701 30.2142 11.1954 30.333 11.3441 30.4152C11.4928 30.4975 11.66 30.5404 11.83 30.5401C11.9999 30.5404 12.1672 30.4975 12.3159 30.4152C12.4646 30.333 12.5899 30.2142 12.68 30.0701L30.08 2.34009C30.1742 2.18929 30.2266 2.01609 30.2316 1.83833C30.2366 1.66057 30.1942 1.48469 30.1086 1.3288C30.023 1.17292 29.8974 1.04268 29.7447 0.9515C29.592 0.860323 29.4178 0.811511 29.24 0.810093Z" fill="white"/>
        <path d="M36.64 23.1101V8.32007H38.88V15.3201L44.41 8.32007H47.14L41.45 15.3201L47.64 23.1101H44.81L38.81 15.3801V23.1101H36.64Z" fill="#58595B"/>
        <path d="M58.94 23.1101L57.94 20.1101H52.06L51.06 23.1101H48.64L54.07 8.32007H55.87L61.27 23.1101H58.94ZM55.03 11.6601L52.7 18.2101H57.3L55.03 11.6601Z" fill="#58595B"/>
        <path d="M71.57 23.1101V10.3301H65.64V23.1101H63.35V8.32007H73.82V23.1101H71.57Z" fill="#58595B"/>
        <path d="M85.7 23.1101V12.3701L79.07 23.1101H77.07V8.32007H79.31V19.0301L85.92 8.32007H87.92V23.1101H85.7Z" fill="#58595B"/>
        <path d="M96.92 10.3301V23.1101H94.64V10.3301H90.64V8.33008H101.02V10.3301H96.92Z" fill="#58595B"/>
        <path d="M111.31 23.1101L110.31 20.1101H104.44L103.44 23.1101H101.07L106.49 8.32007H108.3L113.64 23.1101H111.31ZM107.41 11.6601L105.08 18.2101H109.64L107.41 11.6601Z" fill="#58595B"/>
        <path d="M124.81 23.1101V10.3301H120.55V15.0001C120.55 21.2101 119.05 23.1101 116.08 23.1101H115.15V21.1101H115.54C117.18 21.1101 118.37 20.1101 118.37 14.7101V8.32007H127.05V23.1101H124.81Z" fill="#58595B"/>
        <path d="M151.76 1.08006C151.761 1.02538 151.752 0.970991 151.732 0.920088C151.712 0.869184 151.682 0.822798 151.643 0.783661C151.605 0.744523 151.56 0.713424 151.509 0.692198C151.459 0.670971 151.405 0.660044 151.35 0.660061C151.294 0.645214 151.236 0.645214 151.18 0.660061L146.25 2.50006C146.17 2.53207 146.102 2.5873 146.054 2.65861C146.005 2.72992 145.98 2.81403 145.98 2.90006C145.961 2.96531 145.961 3.03481 145.98 3.10006L147.84 6.21006C147.874 6.27727 147.927 6.33368 147.991 6.37307C148.055 6.41247 148.129 6.43331 148.205 6.43331C148.28 6.43331 148.355 6.41247 148.419 6.37307C148.483 6.33368 148.536 6.27727 148.57 6.21006L151.71 1.21006C151.735 1.17018 151.751 1.1261 151.76 1.08006Z" fill="#BA1222"/>
        <path d="M146.95 22.6301V8.72006C146.952 8.61378 146.995 8.51238 147.069 8.43629C147.144 8.3602 147.244 8.31509 147.35 8.31006H149.64C149.749 8.31006 149.853 8.35326 149.93 8.43015C150.007 8.50704 150.05 8.61132 150.05 8.72006V22.6301C150.051 22.6834 150.042 22.7365 150.022 22.7862C150.003 22.8359 149.974 22.8812 149.936 22.9194C149.899 22.9576 149.855 22.988 149.805 23.0087C149.756 23.0294 149.703 23.0401 149.65 23.0401H147.34C147.235 23.0349 147.136 22.9895 147.063 22.9131C146.99 22.8368 146.95 22.7354 146.95 22.6301Z" fill="#BA1222"/>
        <path d="M155.76 23.0399H153.76C153.622 23.0399 153.49 22.9851 153.392 22.8876C153.295 22.7901 153.24 22.6578 153.24 22.5199V8.8099C153.24 8.74208 153.253 8.67493 153.28 8.6124C153.306 8.54986 153.344 8.49319 153.393 8.4457C153.441 8.39821 153.499 8.36085 153.562 8.33582C153.625 8.31078 153.692 8.29857 153.76 8.2999H161.06C161.227 8.2999 161.387 8.36628 161.505 8.48443C161.624 8.60257 161.69 8.76282 161.69 8.9299V10.2099C161.69 10.377 161.624 10.5372 161.505 10.6554C161.387 10.7735 161.227 10.8399 161.06 10.8399H156.83C156.695 10.8399 156.565 10.8936 156.469 10.9893C156.374 11.0849 156.32 11.2146 156.32 11.3499V14.1199C156.319 14.1877 156.331 14.2551 156.356 14.3181C156.381 14.3812 156.418 14.4386 156.466 14.487C156.513 14.5354 156.57 14.5739 156.632 14.6001C156.695 14.6264 156.762 14.6399 156.83 14.6399H160.64C160.807 14.6399 160.967 14.7063 161.085 14.8244C161.204 14.9426 161.27 15.1028 161.27 15.2699V16.5599C161.273 16.6443 161.258 16.7284 161.228 16.8071C161.197 16.8859 161.151 16.9577 161.093 17.0184C161.034 17.079 160.964 17.1272 160.886 17.1601C160.808 17.193 160.724 17.2099 160.64 17.2099H156.78C156.645 17.2099 156.515 17.2636 156.419 17.3593C156.324 17.4549 156.27 17.5846 156.27 17.7199V22.5199C156.27 22.6561 156.217 22.7869 156.121 22.8841C156.026 22.9813 155.896 23.0373 155.76 23.0399Z" fill="#BA1222"/>
        <path d="M172.14 23.0399H164.79C164.655 23.0399 164.525 22.9862 164.429 22.8905C164.334 22.7949 164.28 22.6652 164.28 22.5299V8.7999C164.28 8.73339 164.293 8.66755 164.319 8.60622C164.345 8.5449 164.382 8.48933 164.43 8.44277C164.477 8.39621 164.534 8.35959 164.596 8.33506C164.657 8.31052 164.723 8.29857 164.79 8.2999H172.14C172.305 8.29988 172.464 8.36488 172.582 8.48088C172.7 8.59687 172.767 8.75456 172.77 8.9199V10.2099C172.77 10.377 172.704 10.5372 172.585 10.6554C172.467 10.7735 172.307 10.8399 172.14 10.8399H167.91C167.775 10.8399 167.645 10.8936 167.549 10.9893C167.454 11.0849 167.4 11.2146 167.4 11.3499V13.5599C167.4 13.6952 167.454 13.8249 167.549 13.9205C167.645 14.0162 167.775 14.0699 167.91 14.0699H171.77C171.935 14.0725 172.093 14.1401 172.209 14.2579C172.325 14.3758 172.39 14.5345 172.39 14.6999V16.0099C172.39 16.1743 172.325 16.332 172.208 16.4483C172.092 16.5646 171.934 16.6299 171.77 16.6299H167.91C167.775 16.6299 167.645 16.6836 167.549 16.7793C167.454 16.8749 167.4 17.0046 167.4 17.1399V19.9299C167.4 20.0652 167.454 20.1949 167.549 20.2905C167.645 20.3862 167.775 20.4399 167.91 20.4399H172.14C172.305 20.4399 172.464 20.5049 172.582 20.6209C172.7 20.7369 172.767 20.8946 172.77 21.0599V22.4099C172.77 22.577 172.704 22.7372 172.585 22.8554C172.467 22.9735 172.307 23.0399 172.14 23.0399Z" fill="#BA1222"/>
        <path d="M143.14 20.46H139.36C139.237 20.4465 139.12 20.3965 139.026 20.3163C138.932 20.2361 138.863 20.1294 138.83 20.01V8.81999C138.822 8.68116 138.76 8.55094 138.657 8.45741C138.554 8.36388 138.419 8.31453 138.28 8.31999H136.07C135.962 8.32253 135.859 8.36654 135.783 8.44289C135.707 8.51923 135.663 8.62205 135.66 8.72999V22.51C135.66 22.6506 135.716 22.7854 135.815 22.8848C135.915 22.9841 136.049 23.04 136.19 23.04H143.13C143.294 23.04 143.452 22.9747 143.568 22.8584C143.685 22.7421 143.75 22.5844 143.75 22.42V21.09C143.75 20.9263 143.686 20.769 143.573 20.6514C143.459 20.5338 143.304 20.4652 143.14 20.46Z" fill="#BA1222"/>
    </symbol>

    <symbol id="logo" viewBox="0 0 317 44">
        <path fill-rule="evenodd" clip-rule="evenodd" d="M145.691 34.3146C145.691 35.0952 145.528 35.3354 144.422 35.4041C143.718 35.4041 129.533 35.4041 120.407 35.4041C118.066 35.0438 115.57 34.1173 114.223 31.4322C112.191 27.3659 112.911 21.8412 117.259 18.9845C119.161 17.9265 121.397 17.6409 123.503 18.1867C124.001 18.4183 123.503 18.4869 123.46 18.4869C122.972 18.4462 122.482 18.4462 121.994 18.4869C119.181 18.7186 117.071 21.8155 118.846 23.5055C120.621 25.1955 121.882 23.7457 124.421 25.7788C127.98 28.6098 125.476 29.7336 128.143 30.8745C133.546 33.2079 129.918 20.8975 131.248 20.8118C132.054 20.7603 131.977 20.8118 132.106 23.0336C132.183 24.7494 131.514 29.6392 135.914 30.1882C137.946 30.437 139.053 26.671 140.262 24.4405C141.471 22.2101 145.133 22.09 144.439 19.4478C143.581 16.0849 138.684 17.5175 134.207 17.732C132.063 17.835 131.119 16.6511 130.639 14.9182C130.287 13.6143 129.678 4.62381 126.745 5.13853C125.21 5.41304 124.91 7.3604 123.392 9.83964C121.968 12.1645 118.623 12.5333 118.94 14.0518C119.481 16.6768 125.879 16.3165 127.517 16.7884C128.212 17.1401 127.766 17.4661 127.371 17.4661C125.716 17.4661 121.093 16.368 117.851 17.6462C115.705 18.4943 113.928 20.0745 112.834 22.1071C112.834 13.7601 112.834 4.44365 112.834 3.77452C112.834 2.56493 113.083 2.4963 114.026 2.47914C114.969 2.46198 143.229 2.47914 144.327 2.47914C145.425 2.47914 145.691 2.89091 145.717 3.84315C145.742 4.79538 145.717 33.7141 145.717 34.2803L145.691 34.3146ZM148.067 1.23523C148.087 1.06511 148.068 0.892601 148.01 0.731095C147.953 0.569589 147.86 0.423428 147.737 0.303952C147.614 0.184476 147.466 0.0948984 147.303 0.0421692C147.14 -0.0105601 146.967 -0.0250228 146.797 -9.68566e-05C146.24 -9.68566e-05 111.916 -9.68566e-05 111.487 -9.68566e-05C110.836 -9.68566e-05 110.45 0.377364 110.441 1.2095C110.432 2.04163 110.441 35.344 110.441 36.1933C110.439 36.5529 110.572 36.9001 110.813 37.1668C111.055 37.4335 111.387 37.6003 111.745 37.6345H146.797C146.966 37.6369 147.134 37.6051 147.29 37.5411C147.446 37.477 147.588 37.382 147.706 37.2618C147.825 37.1416 147.918 36.9987 147.98 36.8416C148.042 36.6845 148.071 36.5165 148.067 36.3477C148.067 35.4899 148.067 1.69848 148.067 1.23523Z"/>
        <path fill-rule="evenodd" clip-rule="evenodd" d="M169.371 33.5769C169.372 33.3613 169.293 33.153 169.148 32.9935C169.082 32.9175 169 32.8572 168.908 32.8171C168.816 32.777 168.716 32.7581 168.616 32.7619C168.41 32.7619 168.033 32.8992 167.39 33.5426C166.834 34.0968 166.183 34.5471 165.469 34.8723C164.791 35.1877 164.054 35.3545 163.307 35.3612H163.17C162.492 35.3884 161.819 35.2381 161.218 34.9251C160.616 34.6121 160.106 34.1474 159.739 33.5769C159.009 32.4339 158.616 31.1075 158.607 29.7508H158.547V29.502C158.566 28.5515 158.684 27.6056 158.899 26.6796C159.1 25.747 159.501 24.8691 160.074 24.106C160.338 23.7499 160.684 23.4627 161.083 23.2686C161.481 23.0745 161.921 22.9792 162.364 22.9908C162.905 22.969 163.438 23.1257 163.882 23.4369C164.322 23.7967 164.714 24.2119 165.048 24.6722C165.349 25.0861 165.701 25.4608 166.095 25.7874C166.438 26.0202 166.847 26.1347 167.261 26.1134C167.718 26.1236 168.162 25.9613 168.505 25.6588C168.656 25.5147 168.775 25.3398 168.853 25.146C168.932 24.9522 168.968 24.7439 168.959 24.535C168.956 24.1454 168.852 23.7632 168.658 23.4252C168.464 23.0872 168.187 22.8047 167.853 22.6048C167.005 22.0522 166.063 21.6597 165.074 21.4466C164.131 21.2088 163.164 21.0793 162.192 21.0606C160.597 21.044 159.021 21.4087 157.595 22.1244C156.237 22.8082 155.097 23.8568 154.302 25.1526C153.489 26.5121 153.073 28.0724 153.101 29.6564C153.086 30.8218 153.329 31.9762 153.813 33.0364C154.268 34.0272 154.936 34.9057 155.768 35.61C156.623 36.3275 157.607 36.8749 158.667 37.2228C159.771 37.6013 160.931 37.7927 162.098 37.789C164.051 37.7599 165.95 37.1475 167.553 36.0304C168.762 35.1725 169.371 34.3146 169.371 33.594V33.5769Z"/>
        <path fill-rule="evenodd" clip-rule="evenodd" d="M192.167 35.3528C191.615 35.1685 191.033 35.0927 190.452 35.1297C189.543 35.1726 188.986 34.9153 188.685 34.4778C188.366 33.8686 188.227 33.1815 188.282 32.4961V23.5743H190.512C192.133 23.5743 192.322 22.948 192.322 22.4848C192.322 21.7384 192.022 21.6269 191.919 21.5669C191.447 21.3957 190.945 21.3199 190.444 21.3438H188.197V16.9515C188.197 16.025 188.042 15.802 187.991 15.7591C187.939 15.7162 187.716 15.5532 186.721 15.5532C185.992 15.5532 185.692 15.7076 185.572 15.8363C185.296 16.1903 185.126 16.6159 185.083 17.0631C184.954 18.1932 184.616 19.2897 184.088 20.2972C183.86 20.6812 183.514 20.9818 183.102 21.1551C182.622 21.3166 182.128 21.4315 181.627 21.4982C181.304 21.5392 180.993 21.6504 180.718 21.8242C180.624 21.9084 180.551 22.0139 180.507 22.1318C180.462 22.2497 180.446 22.3766 180.46 22.5019C180.46 23.2311 180.743 23.3598 180.838 23.3598C181.299 23.5139 181.785 23.5808 182.27 23.5571H183.205V34.881C183.175 35.4377 183.257 35.9948 183.445 36.5195C183.514 36.6666 183.613 36.7976 183.735 36.904C183.858 37.0105 184.002 37.0899 184.157 37.1372C184.718 37.2707 185.296 37.3256 185.872 37.3001H190.564C192.605 37.3001 192.605 36.4938 192.605 36.2278C192.605 35.5415 192.305 35.3699 192.202 35.3699L192.167 35.3528Z"/>
        <path fill-rule="evenodd" clip-rule="evenodd" d="M207.854 34.3575C208.814 31.9536 209.515 29.4547 209.947 26.9026C210.007 26.5252 210.067 26.1648 210.118 25.7874C210.17 25.4099 210.238 25.0153 210.307 24.6293C210.359 24.3381 210.434 24.0513 210.53 23.7714C210.649 23.4643 210.811 23.1755 211.01 22.9135C211.279 22.6734 211.453 22.3446 211.499 21.987C211.499 21.8326 211.499 21.3522 210.307 21.3522H207.648C207.176 21.3225 206.703 21.3777 206.25 21.5152C206.104 21.5667 205.95 21.6868 205.95 22.0642C205.95 22.4417 206.147 22.6133 206.55 22.8621C206.921 23.0479 207.222 23.3488 207.408 23.7199C207.522 24.1535 207.571 24.6016 207.554 25.0496C207.503 26.2192 207.365 27.3833 207.142 28.5326C206.901 30.0171 206.513 31.474 205.984 32.8819C205.453 34.2717 204.835 34.9408 204.089 34.9408C203.06 34.9408 202.091 33.6283 201.121 30.9089C200.771 29.8886 200.504 28.8413 200.324 27.7776C200.126 26.7423 200.02 25.6917 200.006 24.6378C199.979 24.2573 200.059 23.8767 200.238 23.5398C200.417 23.2824 200.618 23.0413 200.838 22.8192C201.023 22.6643 201.145 22.4479 201.181 22.2101C201.181 21.7211 200.967 21.5838 200.821 21.5238C200.316 21.3708 199.788 21.307 199.26 21.3351H194.783C193.36 21.3351 193.36 21.8669 193.36 22.0471C193.335 22.1515 193.335 22.2601 193.36 22.3645C193.458 22.4859 193.57 22.5953 193.694 22.6905C193.89 22.8601 194.058 23.0599 194.192 23.2824C194.35 23.5616 194.447 23.8718 194.475 24.1918C194.698 25.6501 194.938 27.0742 195.204 28.421C195.469 29.7529 195.834 31.0633 196.293 32.3415C196.624 33.4039 197.173 34.3855 197.905 35.2239C198.465 35.7667 199.119 36.2028 199.835 36.5107C200.492 36.8229 201.209 36.9897 201.936 36.9997C202.474 37.001 203.009 36.9376 203.531 36.811L204.055 36.6823L203.814 37.1627C203.406 38.0086 202.887 38.7962 202.271 39.5047C201.894 39.9279 201.475 40.3103 201.019 40.6456C200.616 41.0026 200.112 41.2247 199.578 41.2805C199.154 41.2189 198.744 41.0823 198.368 40.8773C197.913 40.6645 197.421 40.5449 196.919 40.5255C196.46 40.5117 196.013 40.6709 195.667 40.9716C195.499 41.1074 195.365 41.2805 195.276 41.477C195.186 41.6736 195.144 41.8883 195.152 42.104C195.151 42.3894 195.231 42.6693 195.382 42.9109C195.534 43.1525 195.752 43.3457 196.01 43.468C196.595 43.8112 197.261 43.9946 197.94 43.9999C199.051 43.9809 200.144 43.7184 201.143 43.2307C202.142 42.743 203.022 42.0422 203.72 41.1775C205.5 39.1575 206.901 36.8326 207.854 34.3146V34.3575Z"/>
        <path fill-rule="evenodd" clip-rule="evenodd" d="M228.995 33.5768C228.999 33.3624 228.923 33.1543 228.781 32.9935C228.715 32.9174 228.634 32.8571 228.542 32.817C228.449 32.7769 228.35 32.7581 228.249 32.7619C228.043 32.7619 227.666 32.8991 227.014 33.5511C226.461 34.1024 225.813 34.5498 225.102 34.8722C224.422 35.1886 223.682 35.3554 222.932 35.3612H222.803C222.126 35.3875 221.453 35.2368 220.851 34.9239C220.25 34.611 219.74 34.1467 219.372 33.5768C218.643 32.4335 218.254 31.1068 218.249 29.7507H218.189V29.502C218.208 28.5515 218.325 27.6056 218.541 26.6796C218.739 25.7476 219.137 24.8696 219.707 24.106C219.973 23.7497 220.321 23.4625 220.721 23.2685C221.12 23.0744 221.561 22.9792 222.005 22.9907C222.547 22.9689 223.08 23.1257 223.524 23.4368C223.967 23.8055 224.364 24.226 224.707 24.6893C225.001 25.1066 225.35 25.4818 225.745 25.8045C226.086 26.0415 226.497 26.1563 226.911 26.1305C227.363 26.1389 227.801 25.9765 228.138 25.6759C228.302 25.5358 228.433 25.3605 228.521 25.163C228.608 24.9655 228.65 24.7509 228.644 24.5349C228.64 24.1443 228.536 23.7613 228.34 23.4231C228.145 23.0849 227.865 22.8029 227.529 22.6047C226.669 22.0448 225.712 21.6519 224.707 21.4466C223.764 21.2087 222.798 21.0792 221.825 21.0605C220.228 21.0449 218.649 21.4095 217.22 22.1243C215.866 22.8109 214.729 23.8591 213.935 25.1526C213.117 26.4961 212.69 28.0407 212.7 29.6135C212.687 30.7787 212.93 31.9326 213.412 32.9935C213.87 33.9824 214.537 34.8603 215.367 35.5671C216.213 36.29 217.188 36.846 218.24 37.2056C219.345 37.5825 220.504 37.7738 221.671 37.7718C223.643 37.7597 225.565 37.1528 227.186 36.0303C228.386 35.1725 228.995 34.3146 228.995 33.594V33.5768Z"/>
        <path fill-rule="evenodd" clip-rule="evenodd" d="M268.654 35.7902C268.374 35.6181 268.129 35.3939 267.933 35.1297C267.809 34.5087 267.76 33.8751 267.787 33.2424V27.5547C267.787 25.3929 267.316 23.7801 266.381 22.7592C265.759 22.1628 265.02 21.7023 264.211 21.4069C263.402 21.1116 262.54 20.9878 261.681 21.0435C260.681 21.0049 259.686 21.2013 258.776 21.6169C257.866 22.0326 257.066 22.656 256.441 23.437L256.08 23.883L255.995 23.3169C255.921 22.7279 255.771 22.1512 255.549 21.6011C255.489 21.4236 255.373 21.2704 255.218 21.1651C255.063 21.0597 254.878 21.008 254.691 21.0178C254.065 21.0718 253.448 21.2043 252.856 21.4124C252.057 21.6533 251.287 21.9783 250.557 22.3818C249.974 22.7163 249.699 23.0338 249.699 23.3083C249.699 23.5828 249.759 23.7973 250.283 24.0117C250.715 24.184 251.065 24.5156 251.26 24.9382C251.419 25.4954 251.483 26.0755 251.449 26.654V33.2166C251.479 33.8498 251.427 34.4841 251.295 35.1039V35.1468C251.235 35.2584 251.106 35.4385 250.548 35.8246C250.416 35.8865 250.302 35.9812 250.216 36.0998C250.13 36.2185 250.077 36.357 250.06 36.5023C250.06 36.8797 250.18 37.3172 251.106 37.3172H256.912C257.847 37.3172 257.959 36.8883 257.959 36.5108C257.959 36.1334 257.804 36.0304 257.47 35.8331C257.193 35.6601 256.951 35.436 256.758 35.1726V35.0868C256.625 34.4671 256.573 33.8326 256.604 33.1995V27.8979C256.521 26.8875 256.714 25.8737 257.161 24.964C257.44 24.4951 257.837 24.1079 258.313 23.8413C258.788 23.5748 259.326 23.4383 259.871 23.4455C261.072 23.4455 261.852 23.8487 262.196 24.6465C262.546 25.6223 262.706 26.656 262.667 27.692V33.1995C262.694 33.8321 262.645 34.4657 262.521 35.0868C262.327 35.344 262.085 35.5623 261.81 35.7302C261.484 35.9275 261.321 36.142 261.321 36.4079C261.321 36.6738 261.441 37.2143 262.376 37.2143H268.165C269.1 37.2143 269.22 36.7768 269.22 36.3993C269.22 36.0219 269.057 35.9189 268.705 35.713L268.654 35.7902Z"/>
        <path fill-rule="evenodd" clip-rule="evenodd" d="M281.965 35.3528C281.426 35.1745 280.859 35.0988 280.292 35.1297C279.961 35.1783 279.624 35.1441 279.31 35.0303C278.995 34.9166 278.714 34.7267 278.491 34.4778C278.172 33.8686 278.032 33.1815 278.088 32.4961V23.5743H280.326C281.947 23.5743 282.128 22.9566 282.128 22.4848C282.128 21.7384 281.836 21.6269 281.733 21.5669C281.261 21.3964 280.759 21.3206 280.258 21.3438H277.985V16.9515C277.985 16.0336 277.839 15.802 277.796 15.7591C277.753 15.7162 277.505 15.5532 276.518 15.5532C275.789 15.5532 275.481 15.7076 275.361 15.8363C275.092 16.1942 274.926 16.6182 274.88 17.0631C274.749 18.1956 274.412 19.2946 273.885 20.3058C273.653 20.6871 273.309 20.9869 272.899 21.1637C272.42 21.3252 271.926 21.4401 271.424 21.5068C271.098 21.5479 270.785 21.6591 270.506 21.8328C270.414 21.9178 270.343 22.0237 270.3 22.1416C270.257 22.2594 270.242 22.3859 270.258 22.5105C270.258 23.2397 270.532 23.3684 270.626 23.3684C271.089 23.5301 271.578 23.6 272.067 23.5743H273.002V34.881C272.968 35.4379 273.05 35.9958 273.242 36.5195C273.31 36.6654 273.408 36.7957 273.529 36.902C273.65 37.0083 273.792 37.0884 273.945 37.1372C274.507 37.2697 275.084 37.3245 275.661 37.3002H280.352C282.402 37.3002 282.393 36.4938 282.393 36.2278C282.393 35.5415 282.093 35.37 281.999 35.37L281.965 35.3528Z"/>
        <path fill-rule="evenodd" clip-rule="evenodd" d="M317 23.3081C317.011 23.0047 316.959 22.7024 316.846 22.4203C316.734 22.1382 316.565 21.8825 316.348 21.6696C316.13 21.4525 315.87 21.2825 315.584 21.1703C315.298 21.0582 314.992 21.0062 314.684 21.0176C313.787 21.042 312.931 21.3998 312.283 22.0213C311.509 22.7005 310.877 23.5255 310.422 24.4491L310.07 25.1611L309.95 24.3719C309.838 23.5142 309.643 22.6695 309.367 21.8498C309.309 21.5981 309.165 21.3746 308.96 21.218C308.755 21.0613 308.501 20.9813 308.243 20.9919C307.035 21.1442 305.856 21.4737 304.744 21.9699C304.339 22.135 303.952 22.339 303.586 22.5789C303.471 22.6568 303.376 22.7615 303.311 22.8841C303.245 23.0066 303.21 23.1433 303.209 23.2824C303.209 23.6513 303.466 23.943 303.998 24.1832C304.326 24.3248 304.632 24.5126 304.907 24.7408C305.131 24.9817 305.288 25.2776 305.362 25.5986C305.477 25.9199 305.552 26.2541 305.585 26.5938V32.8734C305.622 33.5401 305.555 34.2087 305.387 34.855C305.19 35.1907 304.889 35.4528 304.53 35.6014C304.075 35.8502 303.843 36.1247 303.843 36.4078C303.843 36.8967 304.032 37.034 304.169 37.0855C304.58 37.2148 305.009 37.2728 305.439 37.2571H310.825C311.257 37.2728 311.69 37.2147 312.103 37.0855C312.24 37.034 312.429 36.8967 312.429 36.4078C312.429 36.1161 312.197 35.8502 311.743 35.6014C311.38 35.4573 311.078 35.1941 310.885 34.855C310.717 34.2087 310.65 33.5401 310.688 32.8734V30.1968C310.604 28.8911 310.836 27.5845 311.365 26.3879C311.837 25.4528 312.437 24.981 313.166 24.981C313.564 25.0089 313.956 25.0897 314.333 25.2212C314.697 25.3387 315.074 25.408 315.456 25.4271C315.681 25.4307 315.902 25.3747 316.098 25.2646C316.294 25.1546 316.457 24.9946 316.571 24.8008C316.87 24.3613 317.026 23.8398 317.017 23.3081H317Z"/>
        <path fill-rule="evenodd" clip-rule="evenodd" d="M242.418 23.3511C241.946 23 241.368 22.8214 240.78 22.845C239.983 22.8346 239.199 23.0466 238.515 23.4573C237.832 23.868 237.277 24.461 236.912 25.1698C236.287 26.1503 235.946 27.2844 235.925 28.4468V29.3733C240.745 28.9959 243.173 27.5632 243.173 25.084C243.188 24.7591 243.128 24.435 242.997 24.1373C242.866 23.8396 242.668 23.5763 242.418 23.3683V23.3511ZM245.291 36.5194C243.686 37.4379 241.874 37.931 240.025 37.952C237.765 38.0089 235.563 37.23 233.841 35.7644C232.999 35.0676 232.325 34.1896 231.869 33.1959C231.413 32.2022 231.187 31.1184 231.208 30.0253C231.143 28.7626 231.357 27.5011 231.836 26.3309C232.315 25.1608 233.047 24.111 233.978 23.2567C235.896 21.6528 238.343 20.8236 240.84 20.9319C242.59 20.837 244.322 21.3192 245.771 22.3045C246.298 22.6582 246.729 23.1356 247.029 23.695C247.328 24.2544 247.485 24.8786 247.487 25.5129C247.487 27.5032 246.149 28.9444 243.481 29.9653C241.087 30.6954 238.624 31.1755 236.131 31.3979C236.387 32.5628 237.038 33.6028 237.975 34.3404C238.828 35.0589 239.905 35.4564 241.02 35.4642C242.023 35.476 243.012 35.2309 243.893 34.7522C244.537 34.3678 245.14 33.9194 245.694 33.4139C246.023 33.0538 246.454 32.8025 246.929 32.6933C247.547 32.6933 247.855 32.9792 247.855 33.5511C247.855 34.6149 246.998 35.6014 245.282 36.5279L245.291 36.5194Z"/>
        <path fill-rule="evenodd" clip-rule="evenodd" d="M295.327 23.0423C294.832 22.6781 294.226 22.4963 293.612 22.5276C292.798 22.5127 291.997 22.7268 291.299 23.1454C290.602 23.5641 290.036 24.1704 289.666 24.8953C289.026 25.8984 288.675 27.0594 288.654 28.2495V29.1674C293.577 28.7814 296.056 27.3145 296.056 24.8009C296.079 24.4643 296.021 24.1272 295.889 23.817C295.756 23.5069 295.552 23.2325 295.293 23.0165L295.327 23.0423ZM298.252 36.4851C296.616 37.4226 294.768 37.9275 292.883 37.952C290.571 38.0148 288.318 37.2169 286.562 35.713C285.703 35.0011 285.017 34.1043 284.553 33.0897C284.09 32.0751 283.862 30.9689 283.886 29.8537C283.817 28.5644 284.035 27.276 284.523 26.0807C285.011 24.8853 285.757 23.8126 286.707 22.9393C288.669 21.3107 291.168 20.4725 293.715 20.5888C295.503 20.5002 297.272 21.0004 298.749 22.0128C299.292 22.3729 299.737 22.861 300.047 23.4339C300.356 24.0069 300.52 24.6472 300.524 25.2985C300.524 27.323 299.161 28.8243 296.442 29.8366C293.999 30.587 291.483 31.0787 288.937 31.3035C289.202 32.4919 289.868 33.5525 290.824 34.3061C291.69 35.0458 292.79 35.4533 293.929 35.4556C294.953 35.471 295.964 35.2197 296.862 34.7264C297.52 34.3337 298.138 33.8768 298.706 33.3624C299.041 32.9951 299.481 32.7404 299.967 32.6332C300.593 32.6332 300.91 32.9077 300.91 33.4911C300.91 34.572 300.053 35.5929 298.252 36.5279V36.4851Z"/>
        <path fill-rule="evenodd" clip-rule="evenodd" d="M172.75 17.9465C173.368 18.3789 174.106 18.6069 174.86 18.5985C175.65 18.6073 176.422 18.3639 177.064 17.9037C177.367 17.718 177.615 17.4564 177.785 17.1449C177.955 16.8334 178.041 16.4827 178.033 16.1279C178.057 15.7756 177.99 15.4231 177.84 15.1035C177.69 14.7839 177.462 14.5076 177.176 14.3006C176.528 13.8467 175.753 13.6122 174.963 13.6315C174.179 13.6233 173.417 13.8837 172.801 14.3692C172.496 14.5873 172.249 14.8777 172.083 15.2145C171.917 15.5513 171.836 15.9241 171.849 16.2994C171.838 16.639 171.914 16.9758 172.072 17.2767C172.23 17.5776 172.464 17.8321 172.75 18.0152V17.9465ZM178.874 35.8073C178.598 35.6293 178.357 35.4025 178.162 35.1382C178.028 34.5156 177.976 33.8783 178.008 33.2423V23.3768C178.008 21.0263 177.15 21.0263 176.85 21.0263C175.492 21.1811 174.161 21.5098 172.887 22.0043L172.253 22.1587C172.029 22.2108 171.811 22.2825 171.601 22.3731C171.432 22.4476 171.278 22.5522 171.146 22.682C171.053 22.7855 171.001 22.9199 171 23.0594C170.987 23.175 171.018 23.2914 171.086 23.3854C171.288 23.5443 171.503 23.685 171.729 23.8058C172.009 23.9542 172.266 24.142 172.493 24.3634C172.679 24.6158 172.8 24.9106 172.844 25.2213C172.927 26.0765 172.962 26.9357 172.947 27.7949V33.148C172.978 33.7807 172.929 34.4148 172.801 35.0353V35.0782C172.602 35.3559 172.344 35.5872 172.047 35.7559C171.914 35.8178 171.8 35.9125 171.714 36.0312C171.629 36.1498 171.575 36.2883 171.558 36.4336C171.558 36.811 171.678 37.2486 172.604 37.2486H178.402C179.337 37.2486 179.457 36.811 179.457 36.4336C179.457 36.0561 179.294 35.9618 178.96 35.7644L178.874 35.8073Z"/>
        <path fill-rule="evenodd" clip-rule="evenodd" d="M21.2957 35.447C19.066 37.1051 16.3551 37.9879 13.5768 37.9606C10.1116 38.0496 6.74109 36.8237 4.14249 34.5291C2.79879 33.3854 1.72898 31.9546 1.012 30.3421C0.29502 28.7296 -0.0508237 26.9767 -9.06922e-06 25.2127C-0.0211597 23.3822 0.340206 21.5676 1.06094 19.885C1.78168 18.2023 2.8459 16.6889 4.18538 15.4416C5.47461 14.1327 7.01342 13.0962 8.7106 12.3933C10.4078 11.6904 12.2288 11.3354 14.0656 11.3495C16.8534 11.3534 19.5895 12.1027 21.9904 13.5199C22.377 13.686 22.7129 13.9511 22.9644 14.2885C23.2158 14.6259 23.3739 15.0236 23.4227 15.4416C23.4913 16.4453 23.5256 17.5004 23.5256 18.5041C23.5256 19.5078 23.1139 19.8338 22.3077 19.8338C21.9904 19.8338 21.716 19.5936 21.5444 19.1046C21.1585 18.161 20.9441 17.6034 20.8412 17.3889C20.1957 16.1993 19.2262 15.2172 18.0451 14.5566C16.864 13.8961 15.5198 13.5842 14.1686 13.6572C12.989 13.6577 11.8252 13.9286 10.7667 14.4491C9.70808 14.9696 8.78284 15.7258 8.062 16.6597C6.34507 18.8159 5.45397 21.5142 5.54906 24.269C5.43521 26.9502 6.12835 29.604 7.53882 31.8869C8.26757 32.9954 9.27252 33.8948 10.4546 34.4965C11.6367 35.0982 12.9552 35.3815 14.28 35.3183C15.7608 35.3288 17.2175 34.9438 18.4997 34.2031C19.4542 33.6288 20.333 32.9371 21.1156 32.1442C21.8875 31.415 22.445 31.029 22.7623 31.029C23.457 31.029 23.8087 31.3721 23.8087 32.1099C23.8087 33.0879 22.971 34.206 21.2957 35.4642V35.447Z"/>
        <path fill-rule="evenodd" clip-rule="evenodd" d="M32.4625 37.4373H26.8791C26.0214 37.4373 25.6183 37.0855 25.6183 36.425C25.6183 36.0733 25.9014 35.7644 26.476 35.5156C26.7812 35.3319 27.0254 35.0621 27.178 34.7401C27.3305 34.4181 27.3847 34.0582 27.3336 33.7055V15.5788C27.3667 15.2502 27.2971 14.9194 27.1342 14.632C26.9714 14.3447 26.7234 14.115 26.4245 13.9746C25.7984 13.6572 25.4811 13.3741 25.4811 13.1167C25.4811 12.8594 26.2187 12.2589 27.6424 11.5812C28.6381 11.163 29.7104 10.9584 30.79 10.9806C31.519 10.9806 31.905 11.6155 31.905 12.8336V33.7656C31.8496 34.1054 31.9026 34.4541 32.0566 34.7621C32.2105 35.0701 32.4576 35.3218 32.7626 35.4813C33.3544 35.7558 33.6203 36.1076 33.6203 36.4936C33.6203 37.1542 33.2344 37.4716 32.4968 37.4716L32.4625 37.4373Z"/>
        <path fill-rule="evenodd" clip-rule="evenodd" d="M72.1207 22.6305C71.8333 23.0245 71.6103 23.4618 71.4603 23.9259C71.2116 24.9382 70.7227 26.3622 70.0623 28.2152C69.5631 29.6393 68.9906 31.0367 68.347 32.4016C67.9353 33.2595 67.5494 34.1173 67.1634 34.9152C66.7942 35.7151 66.3244 36.4647 65.7654 37.1456C65.4949 37.4084 65.1712 37.6103 64.8161 37.7375C64.4611 37.8648 64.0829 37.9145 63.707 37.8834C63.1782 37.8488 62.6662 37.6833 62.2171 37.4018C61.7679 37.1203 61.3958 36.7316 61.1341 36.2706C59.3501 33.7914 57.7034 29.8881 56.2454 24.5779C56.1425 24.2605 56.1082 23.9173 56.031 23.5999C55.9619 23.3041 55.8067 23.0354 55.585 22.8278C55.3737 22.6666 55.1732 22.4918 54.9846 22.3045C54.8892 22.2381 54.8113 22.1495 54.7576 22.0465C54.7038 21.9434 54.6758 21.8288 54.6759 21.7126C54.6759 21.052 55.1304 20.7346 55.9967 20.7346H61.237C62.0946 20.7346 62.5578 21.052 62.5578 21.7126C62.5578 22.0643 62.2833 22.416 61.7001 22.7249C61.449 22.8371 61.235 23.0186 61.0832 23.2479C60.9313 23.4773 60.8478 23.7452 60.8425 24.0203C61.0247 25.6074 61.4379 27.1594 62.0689 28.627C62.7528 30.6183 63.7019 32.5084 64.8906 34.246C65.9406 32.6953 66.7637 31.0025 67.3349 29.2189C67.9955 27.6149 68.409 25.9199 68.5614 24.1918C68.5697 23.887 68.494 23.5858 68.3428 23.321C68.1915 23.0563 67.9705 22.8382 67.7037 22.6906C67.1463 22.3474 66.8461 21.9957 66.8461 21.6783C66.8461 21.052 67.3349 20.7346 68.2784 20.7346H71.426C72.155 20.7346 72.541 21.0177 72.541 21.5925C72.4831 21.975 72.3264 22.3357 72.0864 22.6391L72.1207 22.6305Z"/>
        <path fill-rule="evenodd" clip-rule="evenodd" d="M84.4796 22.9393C83.983 22.5777 83.3779 22.3961 82.7643 22.4246C81.9633 22.4206 81.1772 22.6411 80.4951 23.0611C79.8129 23.4811 79.262 24.0838 78.9048 24.8009C78.2581 25.7985 77.9044 26.9577 77.8842 28.1466V29.0902C82.8072 28.7128 85.2858 27.2372 85.2858 24.7237C85.3071 24.3872 85.2491 24.0505 85.1165 23.7406C84.984 23.4307 84.7805 23.1562 84.5225 22.9393H84.4796ZM87.4128 36.3907C85.7734 37.3272 83.923 37.8319 82.0353 37.8576C79.7253 37.9107 77.4761 37.114 75.7143 35.6186C74.855 34.905 74.1675 34.0069 73.7027 32.9911C73.238 31.9752 73.008 30.8677 73.0298 29.7508C72.9634 28.4617 73.1818 27.1738 73.6695 25.9787C74.1572 24.7836 74.9022 23.7107 75.8515 22.8364C77.8177 21.2019 80.3216 20.3579 82.8758 20.4687C84.6601 20.3825 86.4232 20.886 87.8931 21.9013C88.4376 22.2579 88.8855 22.7438 89.1968 23.3156C89.508 23.8874 89.673 24.5273 89.677 25.1783C89.677 27.2029 88.3162 28.7156 85.5946 29.7165C83.1513 30.4669 80.636 30.9586 78.09 31.1834C78.3557 32.3712 79.022 33.4314 79.9769 34.186C80.8424 34.9269 81.9424 35.3372 83.0816 35.3441C84.1068 35.3568 85.1176 35.1026 86.0148 34.6063C86.6786 34.2181 87.2995 33.7609 87.8674 33.2423C88.2008 32.8774 88.6377 32.623 89.1196 32.5131C89.7542 32.5131 90.063 32.7876 90.063 33.371C90.063 34.4605 89.2053 35.4728 87.4128 36.4164V36.3907Z"/>
        <path fill-rule="evenodd" clip-rule="evenodd" d="M103.228 24.8782C102.887 24.8477 102.555 24.7516 102.25 24.5951C101.907 24.4021 101.521 24.2961 101.127 24.2863C100.432 24.2863 99.806 24.8096 99.2056 25.8561C98.7479 26.5963 98.4853 27.4404 98.4423 28.3096V33.8686C98.4069 34.1821 98.4707 34.4988 98.6245 34.7742C98.7783 35.0497 99.0145 35.27 99.3 35.4042C99.8917 35.6444 100.158 35.9961 100.158 36.4508C100.158 37.1114 99.6344 37.4288 98.5538 37.4288H93.8795C92.6874 37.4288 92.0956 37.0771 92.0956 36.3822C92.0956 35.9961 92.3786 35.6787 92.9533 35.4385C93.2463 35.3002 93.4902 35.0758 93.6526 34.7954C93.815 34.5149 93.8882 34.1917 93.8624 33.8686V26.6454C93.905 25.9157 93.6793 25.1956 93.2277 24.6208C92.9079 24.2731 92.5308 23.983 92.1128 23.763C91.6925 23.5228 91.4867 23.2397 91.4867 22.9995C91.4867 22.3989 92.0785 21.8499 93.2963 21.2837C94.0949 20.844 94.9667 20.5533 95.8693 20.4259C96.8385 20.4259 97.5418 21.747 97.9277 24.372C99.2142 21.747 100.715 20.4259 102.465 20.4259C102.815 20.4036 103.166 20.4606 103.491 20.5928C103.816 20.725 104.108 20.9289 104.343 21.1894C104.731 21.6482 104.933 22.2359 104.909 22.8365C104.909 24.1919 104.343 24.861 103.194 24.861L103.228 24.8782Z"/>
        <path fill-rule="evenodd" clip-rule="evenodd" d="M40.0356 30.1025C39.5898 28.8796 39.4371 27.5691 39.5896 26.2764C39.5896 26.1563 39.5896 26.0362 39.6497 25.9161C39.6806 25.7595 39.7207 25.6048 39.7697 25.4529C39.9496 24.7898 40.2833 24.1785 40.7438 23.6687C41.2043 23.1589 41.7785 22.765 42.4199 22.5189C42.8953 22.3377 43.405 22.2644 43.9122 22.3045C44.0459 22.3297 44.1778 22.3641 44.3068 22.4074C44.6129 22.5268 44.8863 22.7175 45.104 22.9637C45.3218 23.2098 45.4778 23.5044 45.5589 23.8229C46.3308 26.1563 44.4697 28.2667 40.027 30.1111L40.0356 30.1025ZM52.9005 25.8732C52.4504 24.4317 51.578 23.1585 50.3962 22.2187C50.462 22.3967 50.5109 22.5805 50.542 22.7677C50.8986 24.0042 50.7793 25.3295 50.2075 26.4823C49.8365 27.1726 49.3457 27.7913 48.758 28.3096C49.1106 29.5751 49.1106 30.913 48.758 32.1785C48.5393 32.9255 48.0924 33.5854 47.4801 34.0658H47.523C47.2828 34.1774 47.0255 34.2803 46.7597 34.3747C45.7002 34.713 44.5555 34.6674 43.5263 34.246C42.4134 33.8335 41.4751 33.0525 40.8675 32.0327C43.1623 31.0534 45.3472 29.8341 47.3858 28.3953C47.5659 28.2581 47.7288 28.1122 47.8918 27.9664C48.7494 27.0571 49.9931 26.1649 49.7272 23.6771C49.6195 23.0516 49.3744 22.4579 49.0095 21.9387C48.6447 21.4195 48.1692 20.9877 47.6173 20.6745C47.4646 20.5985 47.307 20.5326 47.1456 20.4772C45.4718 19.9818 43.6816 20.0512 42.0511 20.6745C39.6512 21.3463 37.5892 22.8916 36.2705 25.0068C35.6555 26.1053 35.2899 27.3258 35.1995 28.5815C35.1091 29.8373 35.2961 31.0976 35.7473 32.2729C36.0665 33.3165 36.6183 34.2741 37.3611 35.0735C38.1039 35.873 39.0184 36.4935 40.0356 36.8882C42.1196 37.7484 44.4487 37.8035 46.571 37.0426C47.2755 36.787 47.9464 36.4471 48.5693 36.0304C50.059 35.2469 51.2961 34.0571 52.1372 32.5989C52.7601 31.6033 53.1507 30.48 53.2799 29.3127C53.4091 28.1453 53.2735 26.9638 52.8834 25.8561L52.9005 25.8732Z"/>
        <path d="M132.937 6.29679C133.241 6.69501 133.502 7.12333 133.718 7.57501C134.337 8.99648 135.319 10.2301 136.565 11.1523C137.457 11.6878 138.431 12.0733 139.447 12.2933C140.974 12.7051 141.162 12.8595 141.274 13.3399C141.351 13.6401 141.274 13.7345 141.274 13.7688C140.922 14.3522 139.198 14.7725 138.366 14.9784H138.161C136.586 15.3372 134.986 15.5724 133.375 15.6819H133.332C133.135 15.6819 132.997 15.6819 132.757 14.824C131.582 10.7577 131.565 6.86298 132.706 6.374L132.912 6.29679H132.937ZM132.989 4.58105C132.643 4.5919 132.304 4.67673 131.994 4.82984C128.563 6.35684 130.896 14.6095 131.136 15.313C131.376 16.1708 131.78 17.2775 133.16 17.4491H133.409C135.141 17.3366 136.862 17.087 138.555 16.7027C140.382 16.2566 143.598 15.5875 142.946 12.9367C142.337 10.4489 139.516 11.0408 137.509 9.72826C135.142 8.19268 134.936 4.58105 132.997 4.58105H132.989Z"/>
    </symbol>

    <svg id="footer-logo" viewBox="0 0 317 44">
        <g clip-path="url(#clip0_918_86)">
        <path fill-rule="evenodd" clip-rule="evenodd" d="M145.691 34.3146C145.691 35.0952 145.528 35.3354 144.422 35.4041C143.718 35.4041 129.533 35.4041 120.407 35.4041C118.066 35.0438 115.57 34.1173 114.223 31.4322C112.191 27.3659 112.911 21.8412 117.259 18.9845C119.161 17.9265 121.397 17.6409 123.503 18.1867C124.001 18.4183 123.503 18.4869 123.46 18.4869C122.972 18.4462 122.482 18.4462 121.994 18.4869C119.181 18.7186 117.071 21.8155 118.846 23.5055C120.621 25.1955 121.882 23.7457 124.421 25.7788C127.98 28.6098 125.476 29.7336 128.143 30.8745C133.546 33.2079 129.918 20.8975 131.248 20.8118C132.054 20.7603 131.977 20.8118 132.106 23.0336C132.183 24.7494 131.514 29.6392 135.914 30.1882C137.946 30.437 139.053 26.671 140.262 24.4405C141.471 22.2101 145.133 22.09 144.439 19.4478C143.581 16.0849 138.684 17.5175 134.207 17.732C132.063 17.835 131.119 16.6511 130.639 14.9182C130.287 13.6143 129.678 4.62381 126.745 5.13853C125.21 5.41304 124.91 7.3604 123.392 9.83964C121.968 12.1645 118.623 12.5333 118.94 14.0518C119.481 16.6768 125.879 16.3165 127.517 16.7884C128.212 17.1401 127.766 17.4661 127.371 17.4661C125.716 17.4661 121.093 16.368 117.851 17.6462C115.705 18.4943 113.928 20.0745 112.834 22.1071C112.834 13.7601 112.834 4.44365 112.834 3.77452C112.834 2.56493 113.083 2.4963 114.026 2.47914C114.969 2.46198 143.229 2.47914 144.327 2.47914C145.425 2.47914 145.691 2.89091 145.717 3.84315C145.742 4.79538 145.717 33.7141 145.717 34.2803L145.691 34.3146ZM148.067 1.23523C148.087 1.06511 148.068 0.892601 148.01 0.731095C147.953 0.569589 147.86 0.423428 147.737 0.303952C147.614 0.184476 147.466 0.0948984 147.303 0.0421692C147.14 -0.0105601 146.967 -0.0250228 146.797 -9.68566e-05C146.24 -9.68566e-05 111.916 -9.68566e-05 111.487 -9.68566e-05C110.836 -9.68566e-05 110.45 0.377364 110.441 1.2095C110.432 2.04163 110.441 35.344 110.441 36.1933C110.439 36.5529 110.572 36.9001 110.813 37.1668C111.055 37.4335 111.387 37.6003 111.745 37.6345H146.797C146.966 37.6369 147.134 37.6051 147.29 37.5411C147.446 37.477 147.588 37.382 147.706 37.2618C147.825 37.1416 147.918 36.9987 147.98 36.8416C148.042 36.6845 148.071 36.5165 148.067 36.3477C148.067 35.4899 148.067 1.69848 148.067 1.23523Z" fill="#009951"/>
        <path fill-rule="evenodd" clip-rule="evenodd" d="M169.371 33.5769C169.372 33.3613 169.293 33.153 169.148 32.9935C169.082 32.9175 169 32.8572 168.908 32.8171C168.816 32.777 168.716 32.7581 168.616 32.7619C168.41 32.7619 168.033 32.8992 167.39 33.5426C166.834 34.0968 166.183 34.5471 165.469 34.8723C164.791 35.1877 164.054 35.3545 163.307 35.3612H163.17C162.492 35.3884 161.819 35.2381 161.218 34.9251C160.616 34.6121 160.106 34.1474 159.739 33.5769C159.009 32.4339 158.616 31.1075 158.607 29.7508H158.547V29.502C158.566 28.5515 158.684 27.6056 158.899 26.6796C159.1 25.747 159.501 24.8691 160.074 24.106C160.338 23.7499 160.684 23.4627 161.083 23.2686C161.481 23.0745 161.921 22.9792 162.364 22.9908C162.905 22.969 163.438 23.1257 163.882 23.4369C164.322 23.7967 164.714 24.2119 165.048 24.6722C165.349 25.0861 165.701 25.4608 166.095 25.7874C166.438 26.0202 166.847 26.1347 167.261 26.1134C167.718 26.1236 168.162 25.9613 168.505 25.6588C168.656 25.5147 168.775 25.3398 168.853 25.146C168.932 24.9522 168.968 24.7439 168.959 24.535C168.956 24.1454 168.852 23.7632 168.658 23.4252C168.464 23.0872 168.187 22.8047 167.853 22.6048C167.005 22.0522 166.063 21.6597 165.074 21.4466C164.131 21.2088 163.164 21.0793 162.192 21.0606C160.597 21.044 159.021 21.4087 157.595 22.1244C156.237 22.8082 155.097 23.8568 154.302 25.1526C153.489 26.5121 153.073 28.0724 153.101 29.6564C153.086 30.8218 153.329 31.9762 153.813 33.0364C154.268 34.0272 154.936 34.9057 155.768 35.61C156.623 36.3275 157.607 36.8749 158.667 37.2228C159.771 37.6013 160.931 37.7927 162.098 37.789C164.051 37.7599 165.95 37.1475 167.553 36.0304C168.762 35.1725 169.371 34.3146 169.371 33.594V33.5769Z" fill="#009951"/>
        <path fill-rule="evenodd" clip-rule="evenodd" d="M192.167 35.3528C191.615 35.1685 191.033 35.0927 190.452 35.1297C189.543 35.1726 188.986 34.9153 188.685 34.4778C188.366 33.8686 188.227 33.1815 188.282 32.4961V23.5743H190.512C192.133 23.5743 192.322 22.948 192.322 22.4848C192.322 21.7384 192.022 21.6269 191.919 21.5669C191.447 21.3957 190.945 21.3199 190.444 21.3438H188.197V16.9515C188.197 16.025 188.042 15.802 187.991 15.7591C187.939 15.7162 187.716 15.5532 186.721 15.5532C185.992 15.5532 185.692 15.7076 185.572 15.8363C185.296 16.1903 185.126 16.6159 185.083 17.0631C184.954 18.1932 184.616 19.2897 184.088 20.2972C183.86 20.6812 183.514 20.9818 183.102 21.1551C182.622 21.3166 182.128 21.4315 181.627 21.4982C181.304 21.5392 180.993 21.6504 180.718 21.8242C180.624 21.9084 180.551 22.0139 180.507 22.1318C180.462 22.2497 180.446 22.3766 180.46 22.5019C180.46 23.2311 180.743 23.3598 180.838 23.3598C181.299 23.5139 181.785 23.5808 182.27 23.5571H183.205V34.881C183.175 35.4377 183.257 35.9948 183.445 36.5195C183.514 36.6666 183.613 36.7976 183.735 36.904C183.858 37.0105 184.002 37.0899 184.157 37.1372C184.718 37.2707 185.296 37.3256 185.872 37.3001H190.564C192.605 37.3001 192.605 36.4938 192.605 36.2278C192.605 35.5415 192.305 35.3699 192.202 35.3699L192.167 35.3528Z" fill="#009951"/>
        <path fill-rule="evenodd" clip-rule="evenodd" d="M207.854 34.3575C208.814 31.9536 209.515 29.4547 209.947 26.9026C210.007 26.5252 210.067 26.1648 210.118 25.7874C210.17 25.4099 210.238 25.0153 210.307 24.6293C210.359 24.3381 210.434 24.0513 210.53 23.7714C210.649 23.4643 210.811 23.1755 211.01 22.9135C211.279 22.6734 211.453 22.3446 211.499 21.987C211.499 21.8326 211.499 21.3522 210.307 21.3522H207.648C207.176 21.3225 206.703 21.3777 206.25 21.5152C206.104 21.5667 205.95 21.6868 205.95 22.0642C205.95 22.4417 206.147 22.6133 206.55 22.8621C206.921 23.0479 207.222 23.3488 207.408 23.7199C207.522 24.1535 207.571 24.6016 207.554 25.0496C207.503 26.2192 207.365 27.3833 207.142 28.5326C206.901 30.0171 206.513 31.474 205.984 32.8819C205.453 34.2717 204.835 34.9408 204.089 34.9408C203.06 34.9408 202.091 33.6283 201.121 30.9089C200.771 29.8886 200.504 28.8413 200.324 27.7776C200.126 26.7423 200.02 25.6917 200.006 24.6378C199.979 24.2573 200.059 23.8767 200.238 23.5398C200.417 23.2824 200.618 23.0413 200.838 22.8192C201.023 22.6643 201.145 22.4479 201.181 22.2101C201.181 21.7211 200.967 21.5838 200.821 21.5238C200.316 21.3708 199.788 21.307 199.26 21.3351H194.783C193.36 21.3351 193.36 21.8669 193.36 22.0471C193.335 22.1515 193.335 22.2601 193.36 22.3645C193.458 22.4859 193.57 22.5953 193.694 22.6905C193.89 22.8601 194.058 23.0599 194.192 23.2824C194.35 23.5616 194.447 23.8718 194.475 24.1918C194.698 25.6501 194.938 27.0742 195.204 28.421C195.469 29.7529 195.834 31.0633 196.293 32.3415C196.624 33.4039 197.173 34.3855 197.905 35.2239C198.465 35.7667 199.119 36.2028 199.835 36.5107C200.492 36.8229 201.209 36.9897 201.936 36.9997C202.474 37.001 203.009 36.9376 203.531 36.811L204.055 36.6823L203.814 37.1627C203.406 38.0086 202.887 38.7962 202.271 39.5047C201.894 39.9279 201.475 40.3103 201.019 40.6456C200.616 41.0026 200.112 41.2247 199.578 41.2805C199.154 41.2189 198.744 41.0823 198.368 40.8773C197.913 40.6645 197.421 40.5449 196.919 40.5255C196.46 40.5117 196.013 40.6709 195.667 40.9716C195.499 41.1074 195.365 41.2805 195.276 41.477C195.186 41.6736 195.144 41.8883 195.152 42.104C195.151 42.3894 195.231 42.6693 195.382 42.9109C195.534 43.1525 195.752 43.3457 196.01 43.468C196.595 43.8112 197.261 43.9946 197.94 43.9999C199.051 43.9809 200.144 43.7184 201.143 43.2307C202.142 42.743 203.022 42.0422 203.72 41.1775C205.5 39.1575 206.901 36.8326 207.854 34.3146V34.3575Z" fill="#009951"/>
        <path fill-rule="evenodd" clip-rule="evenodd" d="M228.995 33.5768C228.999 33.3624 228.923 33.1543 228.781 32.9935C228.715 32.9174 228.634 32.8571 228.542 32.817C228.449 32.7769 228.35 32.7581 228.249 32.7619C228.043 32.7619 227.666 32.8991 227.014 33.5511C226.461 34.1024 225.813 34.5498 225.102 34.8722C224.422 35.1886 223.682 35.3554 222.932 35.3612H222.803C222.126 35.3875 221.453 35.2368 220.851 34.9239C220.25 34.611 219.74 34.1467 219.372 33.5768C218.643 32.4335 218.254 31.1068 218.249 29.7507H218.189V29.502C218.208 28.5515 218.325 27.6056 218.541 26.6796C218.739 25.7476 219.137 24.8696 219.707 24.106C219.973 23.7497 220.321 23.4625 220.721 23.2685C221.12 23.0744 221.561 22.9792 222.005 22.9907C222.547 22.9689 223.08 23.1257 223.524 23.4368C223.967 23.8055 224.364 24.226 224.707 24.6893C225.001 25.1066 225.35 25.4818 225.745 25.8045C226.086 26.0415 226.497 26.1563 226.911 26.1305C227.363 26.1389 227.801 25.9765 228.138 25.6759C228.302 25.5358 228.433 25.3605 228.521 25.163C228.608 24.9655 228.65 24.7509 228.644 24.5349C228.64 24.1443 228.536 23.7613 228.34 23.4231C228.145 23.0849 227.865 22.8029 227.529 22.6047C226.669 22.0448 225.712 21.6519 224.707 21.4466C223.764 21.2087 222.798 21.0792 221.825 21.0605C220.228 21.0449 218.649 21.4095 217.22 22.1243C215.866 22.8109 214.729 23.8591 213.935 25.1526C213.117 26.4961 212.69 28.0407 212.7 29.6135C212.687 30.7787 212.93 31.9326 213.412 32.9935C213.87 33.9824 214.537 34.8603 215.367 35.5671C216.213 36.29 217.188 36.846 218.24 37.2056C219.345 37.5825 220.504 37.7738 221.671 37.7718C223.643 37.7597 225.565 37.1528 227.186 36.0303C228.386 35.1725 228.995 34.3146 228.995 33.594V33.5768Z" fill="#009951"/>
        <path fill-rule="evenodd" clip-rule="evenodd" d="M268.654 35.7902C268.374 35.6181 268.129 35.3939 267.933 35.1297C267.809 34.5087 267.76 33.8751 267.787 33.2424V27.5547C267.787 25.3929 267.316 23.7801 266.381 22.7592C265.759 22.1628 265.02 21.7023 264.211 21.4069C263.402 21.1116 262.54 20.9878 261.681 21.0435C260.681 21.0049 259.686 21.2013 258.776 21.6169C257.866 22.0326 257.066 22.656 256.441 23.437L256.08 23.883L255.995 23.3169C255.921 22.7279 255.771 22.1512 255.549 21.6011C255.489 21.4236 255.373 21.2704 255.218 21.1651C255.063 21.0597 254.878 21.008 254.691 21.0178C254.065 21.0718 253.448 21.2043 252.856 21.4124C252.057 21.6533 251.287 21.9783 250.557 22.3818C249.974 22.7163 249.699 23.0338 249.699 23.3083C249.699 23.5828 249.759 23.7973 250.283 24.0117C250.715 24.184 251.065 24.5156 251.26 24.9382C251.419 25.4954 251.483 26.0755 251.449 26.654V33.2166C251.479 33.8498 251.427 34.4841 251.295 35.1039V35.1468C251.235 35.2584 251.106 35.4385 250.548 35.8246C250.416 35.8865 250.302 35.9812 250.216 36.0998C250.13 36.2185 250.077 36.357 250.06 36.5023C250.06 36.8797 250.18 37.3172 251.106 37.3172H256.912C257.847 37.3172 257.959 36.8883 257.959 36.5108C257.959 36.1334 257.804 36.0304 257.47 35.8331C257.193 35.6601 256.951 35.436 256.758 35.1726V35.0868C256.625 34.4671 256.573 33.8326 256.604 33.1995V27.8979C256.521 26.8875 256.714 25.8737 257.161 24.964C257.44 24.4951 257.837 24.1079 258.313 23.8413C258.788 23.5748 259.326 23.4383 259.871 23.4455C261.072 23.4455 261.852 23.8487 262.196 24.6465C262.546 25.6223 262.706 26.656 262.667 27.692V33.1995C262.694 33.8321 262.645 34.4657 262.521 35.0868C262.327 35.344 262.085 35.5623 261.81 35.7302C261.484 35.9275 261.321 36.142 261.321 36.4079C261.321 36.6738 261.441 37.2143 262.376 37.2143H268.165C269.1 37.2143 269.22 36.7768 269.22 36.3993C269.22 36.0219 269.057 35.9189 268.705 35.713L268.654 35.7902Z" fill="#009951"/>
        <path fill-rule="evenodd" clip-rule="evenodd" d="M281.965 35.3528C281.426 35.1745 280.859 35.0988 280.292 35.1297C279.961 35.1783 279.624 35.1441 279.31 35.0303C278.995 34.9166 278.714 34.7267 278.491 34.4778C278.172 33.8686 278.032 33.1815 278.088 32.4961V23.5743H280.326C281.947 23.5743 282.128 22.9566 282.128 22.4848C282.128 21.7384 281.836 21.6269 281.733 21.5669C281.261 21.3964 280.759 21.3206 280.258 21.3438H277.985V16.9515C277.985 16.0336 277.839 15.802 277.796 15.7591C277.753 15.7162 277.505 15.5532 276.518 15.5532C275.789 15.5532 275.481 15.7076 275.361 15.8363C275.092 16.1942 274.926 16.6182 274.88 17.0631C274.749 18.1956 274.412 19.2946 273.885 20.3058C273.653 20.6871 273.309 20.9869 272.899 21.1637C272.42 21.3252 271.926 21.4401 271.424 21.5068C271.098 21.5479 270.785 21.6591 270.506 21.8328C270.414 21.9178 270.343 22.0237 270.3 22.1416C270.257 22.2594 270.242 22.3859 270.258 22.5105C270.258 23.2397 270.532 23.3684 270.626 23.3684C271.089 23.5301 271.578 23.6 272.067 23.5743H273.002V34.881C272.968 35.4379 273.05 35.9958 273.242 36.5195C273.31 36.6654 273.408 36.7957 273.529 36.902C273.65 37.0083 273.792 37.0884 273.945 37.1372C274.507 37.2697 275.084 37.3245 275.661 37.3002H280.352C282.402 37.3002 282.393 36.4938 282.393 36.2278C282.393 35.5415 282.093 35.37 281.999 35.37L281.965 35.3528Z" fill="#009951"/>
        <path fill-rule="evenodd" clip-rule="evenodd" d="M317 23.3081C317.011 23.0047 316.959 22.7024 316.846 22.4203C316.734 22.1382 316.565 21.8825 316.348 21.6696C316.13 21.4525 315.87 21.2825 315.584 21.1703C315.298 21.0582 314.992 21.0062 314.684 21.0176C313.787 21.042 312.931 21.3998 312.283 22.0213C311.509 22.7005 310.877 23.5255 310.422 24.4491L310.07 25.1611L309.95 24.3719C309.838 23.5142 309.643 22.6695 309.367 21.8498C309.309 21.5981 309.165 21.3746 308.96 21.218C308.755 21.0613 308.501 20.9813 308.243 20.9919C307.035 21.1442 305.856 21.4737 304.744 21.9699C304.339 22.135 303.952 22.339 303.586 22.5789C303.471 22.6568 303.376 22.7615 303.311 22.8841C303.245 23.0066 303.21 23.1433 303.209 23.2824C303.209 23.6513 303.466 23.943 303.998 24.1832C304.326 24.3248 304.632 24.5126 304.907 24.7408C305.131 24.9817 305.288 25.2776 305.362 25.5986C305.477 25.9199 305.552 26.2541 305.585 26.5938V32.8734C305.622 33.5401 305.555 34.2087 305.387 34.855C305.19 35.1907 304.889 35.4528 304.53 35.6014C304.075 35.8502 303.843 36.1247 303.843 36.4078C303.843 36.8967 304.032 37.034 304.169 37.0855C304.58 37.2148 305.009 37.2728 305.439 37.2571H310.825C311.257 37.2728 311.69 37.2147 312.103 37.0855C312.24 37.034 312.429 36.8967 312.429 36.4078C312.429 36.1161 312.197 35.8502 311.743 35.6014C311.38 35.4573 311.078 35.1941 310.885 34.855C310.717 34.2087 310.65 33.5401 310.688 32.8734V30.1968C310.604 28.8911 310.836 27.5845 311.365 26.3879C311.837 25.4528 312.437 24.981 313.166 24.981C313.564 25.0089 313.956 25.0897 314.333 25.2212C314.697 25.3387 315.074 25.408 315.456 25.4271C315.681 25.4307 315.902 25.3747 316.098 25.2646C316.294 25.1546 316.457 24.9946 316.571 24.8008C316.87 24.3613 317.026 23.8398 317.017 23.3081H317Z" fill="#009951"/>
        <path fill-rule="evenodd" clip-rule="evenodd" d="M242.418 23.3511C241.946 23 241.368 22.8214 240.78 22.845C239.983 22.8346 239.199 23.0466 238.515 23.4573C237.832 23.868 237.277 24.461 236.912 25.1698C236.287 26.1503 235.946 27.2844 235.925 28.4468V29.3733C240.745 28.9959 243.173 27.5632 243.173 25.084C243.188 24.7591 243.128 24.435 242.997 24.1373C242.866 23.8396 242.668 23.5763 242.418 23.3683V23.3511ZM245.291 36.5194C243.686 37.4379 241.874 37.931 240.025 37.952C237.765 38.0089 235.563 37.23 233.841 35.7644C232.999 35.0676 232.325 34.1896 231.869 33.1959C231.413 32.2022 231.187 31.1184 231.208 30.0253C231.143 28.7626 231.357 27.5011 231.836 26.3309C232.315 25.1608 233.047 24.111 233.978 23.2567C235.896 21.6528 238.343 20.8236 240.84 20.9319C242.59 20.837 244.322 21.3192 245.771 22.3045C246.298 22.6582 246.729 23.1356 247.029 23.695C247.328 24.2544 247.485 24.8786 247.487 25.5129C247.487 27.5032 246.149 28.9444 243.481 29.9653C241.087 30.6954 238.624 31.1755 236.131 31.3979C236.387 32.5628 237.038 33.6028 237.975 34.3404C238.828 35.0589 239.905 35.4564 241.02 35.4642C242.023 35.476 243.012 35.2309 243.893 34.7522C244.537 34.3678 245.14 33.9194 245.694 33.4139C246.023 33.0538 246.454 32.8025 246.929 32.6933C247.547 32.6933 247.855 32.9792 247.855 33.5511C247.855 34.6149 246.998 35.6014 245.282 36.5279L245.291 36.5194Z" fill="#009951"/>
        <path fill-rule="evenodd" clip-rule="evenodd" d="M295.327 23.0423C294.832 22.6781 294.226 22.4963 293.612 22.5276C292.798 22.5127 291.997 22.7268 291.299 23.1454C290.602 23.5641 290.036 24.1704 289.666 24.8953C289.026 25.8984 288.675 27.0594 288.654 28.2495V29.1674C293.577 28.7814 296.056 27.3145 296.056 24.8009C296.079 24.4643 296.021 24.1272 295.889 23.817C295.756 23.5069 295.552 23.2325 295.293 23.0165L295.327 23.0423ZM298.252 36.4851C296.616 37.4226 294.768 37.9275 292.883 37.952C290.571 38.0148 288.318 37.2169 286.562 35.713C285.703 35.0011 285.017 34.1043 284.553 33.0897C284.09 32.0751 283.862 30.9689 283.886 29.8537C283.817 28.5644 284.035 27.276 284.523 26.0807C285.011 24.8853 285.757 23.8126 286.707 22.9393C288.669 21.3107 291.168 20.4725 293.715 20.5888C295.503 20.5002 297.272 21.0004 298.749 22.0128C299.292 22.3729 299.737 22.861 300.047 23.4339C300.356 24.0069 300.52 24.6472 300.524 25.2985C300.524 27.323 299.161 28.8243 296.442 29.8366C293.999 30.587 291.483 31.0787 288.937 31.3035C289.202 32.4919 289.868 33.5525 290.824 34.3061C291.69 35.0458 292.79 35.4533 293.929 35.4556C294.953 35.471 295.964 35.2197 296.862 34.7264C297.52 34.3337 298.138 33.8768 298.706 33.3624C299.041 32.9951 299.481 32.7404 299.967 32.6332C300.593 32.6332 300.91 32.9077 300.91 33.4911C300.91 34.572 300.053 35.5929 298.252 36.5279V36.4851Z" fill="#009951"/>
        <path fill-rule="evenodd" clip-rule="evenodd" d="M172.75 17.9465C173.368 18.3789 174.106 18.6069 174.86 18.5985C175.65 18.6073 176.422 18.3639 177.064 17.9037C177.367 17.718 177.615 17.4564 177.785 17.1449C177.955 16.8334 178.041 16.4827 178.033 16.1279C178.057 15.7756 177.99 15.4231 177.84 15.1035C177.69 14.7839 177.462 14.5076 177.176 14.3006C176.528 13.8467 175.753 13.6122 174.963 13.6315C174.179 13.6233 173.417 13.8837 172.801 14.3692C172.496 14.5873 172.249 14.8777 172.083 15.2145C171.917 15.5513 171.836 15.9241 171.849 16.2994C171.838 16.639 171.914 16.9758 172.072 17.2767C172.23 17.5776 172.464 17.8321 172.75 18.0152V17.9465ZM178.874 35.8073C178.598 35.6293 178.357 35.4025 178.162 35.1382C178.028 34.5156 177.976 33.8783 178.008 33.2423V23.3768C178.008 21.0263 177.15 21.0263 176.85 21.0263C175.492 21.1811 174.161 21.5098 172.887 22.0043L172.253 22.1587C172.029 22.2108 171.811 22.2825 171.601 22.3731C171.432 22.4476 171.278 22.5522 171.146 22.682C171.053 22.7855 171.001 22.9199 171 23.0594C170.987 23.175 171.018 23.2914 171.086 23.3854C171.288 23.5443 171.503 23.685 171.729 23.8058C172.009 23.9542 172.266 24.142 172.493 24.3634C172.679 24.6158 172.8 24.9106 172.844 25.2213C172.927 26.0765 172.962 26.9357 172.947 27.7949V33.148C172.978 33.7807 172.929 34.4148 172.801 35.0353V35.0782C172.602 35.3559 172.344 35.5872 172.047 35.7559C171.914 35.8178 171.8 35.9125 171.714 36.0312C171.629 36.1498 171.575 36.2883 171.558 36.4336C171.558 36.811 171.678 37.2486 172.604 37.2486H178.402C179.337 37.2486 179.457 36.811 179.457 36.4336C179.457 36.0561 179.294 35.9618 178.96 35.7644L178.874 35.8073Z" fill="#009951"/>
        <path fill-rule="evenodd" clip-rule="evenodd" d="M21.2957 35.447C19.066 37.1051 16.3551 37.9879 13.5768 37.9606C10.1116 38.0496 6.74109 36.8237 4.14249 34.5291C2.79879 33.3854 1.72898 31.9546 1.012 30.3421C0.29502 28.7296 -0.0508237 26.9767 -9.06922e-06 25.2127C-0.0211597 23.3822 0.340206 21.5676 1.06094 19.885C1.78168 18.2023 2.8459 16.6889 4.18538 15.4416C5.47461 14.1327 7.01342 13.0962 8.7106 12.3933C10.4078 11.6904 12.2288 11.3354 14.0656 11.3495C16.8534 11.3534 19.5895 12.1027 21.9904 13.5199C22.377 13.686 22.7129 13.9511 22.9644 14.2885C23.2158 14.6259 23.3739 15.0236 23.4227 15.4416C23.4913 16.4453 23.5256 17.5004 23.5256 18.5041C23.5256 19.5078 23.1139 19.8338 22.3077 19.8338C21.9904 19.8338 21.716 19.5936 21.5444 19.1046C21.1585 18.161 20.9441 17.6034 20.8412 17.3889C20.1957 16.1993 19.2262 15.2172 18.0451 14.5566C16.864 13.8961 15.5198 13.5842 14.1686 13.6572C12.989 13.6577 11.8252 13.9286 10.7667 14.4491C9.70808 14.9696 8.78284 15.7258 8.062 16.6597C6.34507 18.8159 5.45397 21.5142 5.54906 24.269C5.43521 26.9502 6.12835 29.604 7.53882 31.8869C8.26757 32.9954 9.27252 33.8948 10.4546 34.4965C11.6367 35.0982 12.9552 35.3815 14.28 35.3183C15.7608 35.3288 17.2175 34.9438 18.4997 34.2031C19.4542 33.6288 20.333 32.9371 21.1156 32.1442C21.8875 31.415 22.445 31.029 22.7623 31.029C23.457 31.029 23.8087 31.3721 23.8087 32.1099C23.8087 33.0879 22.971 34.206 21.2957 35.4642V35.447Z" fill="#009951"/>
        <path fill-rule="evenodd" clip-rule="evenodd" d="M32.4625 37.4373H26.8791C26.0214 37.4373 25.6183 37.0855 25.6183 36.425C25.6183 36.0733 25.9014 35.7644 26.476 35.5156C26.7812 35.3319 27.0254 35.0621 27.178 34.7401C27.3305 34.4181 27.3847 34.0582 27.3336 33.7055V15.5788C27.3667 15.2502 27.2971 14.9194 27.1342 14.632C26.9714 14.3447 26.7234 14.115 26.4245 13.9746C25.7984 13.6572 25.4811 13.3741 25.4811 13.1167C25.4811 12.8594 26.2187 12.2589 27.6424 11.5812C28.6381 11.163 29.7104 10.9584 30.79 10.9806C31.519 10.9806 31.905 11.6155 31.905 12.8336V33.7656C31.8496 34.1054 31.9026 34.4541 32.0566 34.7621C32.2105 35.0701 32.4576 35.3218 32.7626 35.4813C33.3544 35.7558 33.6203 36.1076 33.6203 36.4936C33.6203 37.1542 33.2344 37.4716 32.4968 37.4716L32.4625 37.4373Z" fill="#009951"/>
        <path fill-rule="evenodd" clip-rule="evenodd" d="M72.1207 22.6305C71.8333 23.0245 71.6103 23.4618 71.4603 23.9259C71.2116 24.9382 70.7227 26.3622 70.0623 28.2152C69.5631 29.6393 68.9906 31.0367 68.347 32.4016C67.9353 33.2595 67.5494 34.1173 67.1634 34.9152C66.7942 35.7151 66.3244 36.4647 65.7654 37.1456C65.4949 37.4084 65.1712 37.6103 64.8161 37.7375C64.4611 37.8648 64.0829 37.9145 63.707 37.8834C63.1782 37.8488 62.6662 37.6833 62.2171 37.4018C61.7679 37.1203 61.3958 36.7316 61.1341 36.2706C59.3501 33.7914 57.7034 29.8881 56.2454 24.5779C56.1425 24.2605 56.1082 23.9173 56.031 23.5999C55.9619 23.3041 55.8067 23.0354 55.585 22.8278C55.3737 22.6666 55.1732 22.4918 54.9846 22.3045C54.8892 22.2381 54.8113 22.1495 54.7576 22.0465C54.7038 21.9434 54.6758 21.8288 54.6759 21.7126C54.6759 21.052 55.1304 20.7346 55.9967 20.7346H61.237C62.0946 20.7346 62.5578 21.052 62.5578 21.7126C62.5578 22.0643 62.2833 22.416 61.7001 22.7249C61.449 22.8371 61.235 23.0186 61.0832 23.2479C60.9313 23.4773 60.8478 23.7452 60.8425 24.0203C61.0247 25.6074 61.4379 27.1594 62.0689 28.627C62.7528 30.6183 63.7019 32.5084 64.8906 34.246C65.9406 32.6953 66.7637 31.0025 67.3349 29.2189C67.9955 27.6149 68.409 25.9199 68.5614 24.1918C68.5697 23.887 68.494 23.5858 68.3428 23.321C68.1915 23.0563 67.9705 22.8382 67.7037 22.6906C67.1463 22.3474 66.8461 21.9957 66.8461 21.6783C66.8461 21.052 67.3349 20.7346 68.2784 20.7346H71.426C72.155 20.7346 72.541 21.0177 72.541 21.5925C72.4831 21.975 72.3264 22.3357 72.0864 22.6391L72.1207 22.6305Z" fill="#009951"/>
        <path fill-rule="evenodd" clip-rule="evenodd" d="M84.4796 22.9393C83.983 22.5777 83.3779 22.3961 82.7643 22.4246C81.9633 22.4206 81.1772 22.6411 80.4951 23.0611C79.8129 23.4811 79.262 24.0838 78.9048 24.8009C78.2581 25.7985 77.9044 26.9577 77.8842 28.1466V29.0902C82.8072 28.7128 85.2858 27.2372 85.2858 24.7237C85.3071 24.3872 85.2491 24.0505 85.1165 23.7406C84.984 23.4307 84.7805 23.1562 84.5225 22.9393H84.4796ZM87.4128 36.3907C85.7734 37.3272 83.923 37.8319 82.0353 37.8576C79.7253 37.9107 77.4761 37.114 75.7143 35.6186C74.855 34.905 74.1675 34.0069 73.7027 32.9911C73.238 31.9752 73.008 30.8677 73.0298 29.7508C72.9634 28.4617 73.1818 27.1738 73.6695 25.9787C74.1572 24.7836 74.9022 23.7107 75.8515 22.8364C77.8177 21.2019 80.3216 20.3579 82.8758 20.4687C84.6601 20.3825 86.4232 20.886 87.8931 21.9013C88.4376 22.2579 88.8855 22.7438 89.1968 23.3156C89.508 23.8874 89.673 24.5273 89.677 25.1783C89.677 27.2029 88.3162 28.7156 85.5946 29.7165C83.1513 30.4669 80.636 30.9586 78.09 31.1834C78.3557 32.3712 79.022 33.4314 79.9769 34.186C80.8424 34.9269 81.9424 35.3372 83.0816 35.3441C84.1068 35.3568 85.1176 35.1026 86.0148 34.6063C86.6786 34.2181 87.2995 33.7609 87.8674 33.2423C88.2008 32.8774 88.6377 32.623 89.1196 32.5131C89.7542 32.5131 90.063 32.7876 90.063 33.371C90.063 34.4605 89.2053 35.4728 87.4128 36.4164V36.3907Z" fill="#009951"/>
        <path fill-rule="evenodd" clip-rule="evenodd" d="M103.228 24.8782C102.887 24.8477 102.555 24.7516 102.25 24.5951C101.907 24.4021 101.521 24.2961 101.127 24.2863C100.432 24.2863 99.806 24.8096 99.2056 25.8561C98.7479 26.5963 98.4853 27.4404 98.4423 28.3096V33.8686C98.4069 34.1821 98.4707 34.4988 98.6245 34.7742C98.7783 35.0497 99.0145 35.27 99.3 35.4042C99.8917 35.6444 100.158 35.9961 100.158 36.4508C100.158 37.1114 99.6344 37.4288 98.5538 37.4288H93.8795C92.6874 37.4288 92.0956 37.0771 92.0956 36.3822C92.0956 35.9961 92.3786 35.6787 92.9533 35.4385C93.2463 35.3002 93.4902 35.0758 93.6526 34.7954C93.815 34.5149 93.8882 34.1917 93.8624 33.8686V26.6454C93.905 25.9157 93.6793 25.1956 93.2277 24.6208C92.9079 24.2731 92.5308 23.983 92.1128 23.763C91.6925 23.5228 91.4867 23.2397 91.4867 22.9995C91.4867 22.3989 92.0785 21.8499 93.2963 21.2837C94.0949 20.844 94.9667 20.5533 95.8693 20.4259C96.8385 20.4259 97.5418 21.747 97.9277 24.372C99.2142 21.747 100.715 20.4259 102.465 20.4259C102.815 20.4036 103.166 20.4606 103.491 20.5928C103.816 20.725 104.108 20.9289 104.343 21.1894C104.731 21.6482 104.933 22.2359 104.909 22.8365C104.909 24.1919 104.343 24.861 103.194 24.861L103.228 24.8782Z" fill="#009951"/>
        <path fill-rule="evenodd" clip-rule="evenodd" d="M40.0356 30.1025C39.5898 28.8796 39.4371 27.5691 39.5896 26.2764C39.5896 26.1563 39.5896 26.0362 39.6497 25.9161C39.6806 25.7595 39.7207 25.6048 39.7697 25.4529C39.9496 24.7898 40.2833 24.1785 40.7438 23.6687C41.2043 23.1589 41.7785 22.765 42.4199 22.5189C42.8953 22.3377 43.405 22.2644 43.9122 22.3045C44.0459 22.3297 44.1778 22.3641 44.3068 22.4074C44.6129 22.5268 44.8863 22.7175 45.104 22.9637C45.3218 23.2098 45.4778 23.5044 45.5589 23.8229C46.3308 26.1563 44.4697 28.2667 40.027 30.1111L40.0356 30.1025ZM52.9005 25.8732C52.4504 24.4317 51.578 23.1585 50.3962 22.2187C50.462 22.3967 50.5109 22.5805 50.542 22.7677C50.8986 24.0042 50.7793 25.3295 50.2075 26.4823C49.8365 27.1726 49.3457 27.7913 48.758 28.3096C49.1106 29.5751 49.1106 30.913 48.758 32.1785C48.5393 32.9255 48.0924 33.5854 47.4801 34.0658H47.523C47.2828 34.1774 47.0255 34.2803 46.7597 34.3747C45.7002 34.713 44.5555 34.6674 43.5263 34.246C42.4134 33.8335 41.4751 33.0525 40.8675 32.0327C43.1623 31.0534 45.3472 29.8341 47.3858 28.3953C47.5659 28.2581 47.7288 28.1122 47.8918 27.9664C48.7494 27.0571 49.9931 26.1649 49.7272 23.6771C49.6195 23.0516 49.3744 22.4579 49.0095 21.9387C48.6447 21.4195 48.1692 20.9877 47.6173 20.6745C47.4646 20.5985 47.307 20.5326 47.1456 20.4772C45.4718 19.9818 43.6816 20.0512 42.0511 20.6745C39.6512 21.3463 37.5892 22.8916 36.2705 25.0068C35.6555 26.1053 35.2899 27.3258 35.1995 28.5815C35.1091 29.8373 35.2961 31.0976 35.7473 32.2729C36.0665 33.3165 36.6183 34.2741 37.3611 35.0735C38.1039 35.873 39.0184 36.4935 40.0356 36.8882C42.1196 37.7484 44.4487 37.8035 46.571 37.0426C47.2755 36.787 47.9464 36.4471 48.5693 36.0304C50.059 35.2469 51.2961 34.0571 52.1372 32.5989C52.7601 31.6033 53.1507 30.48 53.2799 29.3127C53.4091 28.1453 53.2735 26.9638 52.8834 25.8561L52.9005 25.8732Z" fill="#009951"/>
        <path fill-rule="evenodd" clip-rule="evenodd" d="M133.118 17.432C134.946 17.3579 136.764 17.1109 138.547 16.6942C140.373 16.2481 143.59 15.579 142.938 12.9282C142.329 10.4403 139.507 11.0323 137.5 9.71974C134.79 7.96111 134.927 3.46589 131.994 4.81274C128.563 6.33974 130.896 14.5924 131.136 15.2959C131.376 16.1537 131.78 17.2604 133.16 17.432H133.118Z" fill="#34BBDA"/>
        </g>
    </svg>


    <symbol id="search" viewBox="0 0 18 18">
        <path d="M16.71 15.29L13.6 12.18C14.6588 10.7624 15.1414 8.99633 14.9507 7.23725C14.7601 5.47817 13.9103 3.85654 12.5725 2.6986C11.2346 1.54067 9.50786 0.932334 7.73962 0.995991C5.97138 1.05965 4.29285 1.79057 3.04171 3.04171C1.79057 4.29285 1.05965 5.97138 0.995991 7.73962C0.932334 9.50786 1.54066 11.2346 2.6986 12.5725C3.85654 13.9103 5.47817 14.7601 7.23725 14.9507C8.99633 15.1413 10.7623 14.6588 12.18 13.6L15.29 16.71C15.383 16.8037 15.4936 16.8781 15.6154 16.9289C15.7373 16.9797 15.868 17.0058 16 17.0058C16.132 17.0058 16.2627 16.9797 16.3846 16.9289C16.5065 16.8781 16.6171 16.8037 16.71 16.71C16.8037 16.6171 16.8781 16.5065 16.9289 16.3846C16.9797 16.2627 17.0058 16.132 17.0058 16C17.0058 15.868 16.9797 15.7373 16.9289 15.6154C16.8781 15.4936 16.8037 15.383 16.71 15.29ZM3.00002 8.00002C3.00002 7.01111 3.29326 6.04441 3.84267 5.22217C4.39208 4.39992 5.17297 3.75906 6.0866 3.38062C7.00023 3.00218 8.00557 2.90317 8.97547 3.09609C9.94538 3.28902 10.8363 3.76522 11.5356 4.46449C12.2348 5.16375 12.711 6.05466 12.9039 7.02457C13.0969 7.99447 12.9979 8.99981 12.6194 9.91344C12.241 10.8271 11.6001 11.608 10.7779 12.1574C9.95562 12.7068 8.98893 13 8.00002 13C6.67394 13 5.40217 12.4732 4.46449 11.5356C3.5268 10.5979 3.00002 9.3261 3.00002 8.00002Z"/>
    </symbol>

    <symbol id="arrow" viewBox="0 0 20 14">
        <path d="M20 6.99994C19.9984 6.86926 19.9712 6.74016 19.92 6.61994C19.9061 6.58331 19.8858 6.54945 19.86 6.51994C19.8159 6.43961 19.7657 6.36272 19.71 6.28994L14.71 1.28994C14.6168 1.1967 14.5061 1.12274 14.3842 1.07228C14.2624 1.02182 14.1319 0.99585 14 0.99585C13.7337 0.99585 13.4783 1.10164 13.29 1.28994C13.1968 1.38318 13.1228 1.49387 13.0723 1.61569C13.0219 1.73751 12.9959 1.86808 12.9959 1.99994C12.9959 2.26624 13.1017 2.52164 13.29 2.70994L16.59 5.99994H1C0.734784 5.99994 0.48043 6.1053 0.292893 6.29283C0.105357 6.48037 0 6.73472 0 6.99994C0 7.26516 0.105357 7.51951 0.292893 7.70705C0.48043 7.89458 0.734784 7.99994 1 7.99994H16.58L13.29 11.2899C13.1963 11.3829 13.1219 11.4935 13.0711 11.6154C13.0203 11.7372 12.9942 11.8679 12.9942 11.9999C12.9942 12.132 13.0203 12.2627 13.0711 12.3845C13.1219 12.5064 13.1963 12.617 13.29 12.7099C13.383 12.8037 13.4936 12.8781 13.6154 12.9288C13.7373 12.9796 13.868 13.0057 14 13.0057C14.132 13.0057 14.2627 12.9796 14.3846 12.9288C14.5064 12.8781 14.617 12.8037 14.71 12.7099L19.71 7.70994C19.8094 7.61373 19.8877 7.49796 19.94 7.36994C19.9751 7.28399 19.9954 7.19269 20 7.09994V6.99994Z"/>
    </symbol>

    <symbol id="check-circle" viewBox="0 0 24 24">
        <path d="M12 22.9999C9.82387 23.0006 7.69642 22.3559 5.88681 21.1472C4.0772 19.9386 2.66674 18.2203 1.83387 16.2099C1.00101 14.1995 0.783165 11.9872 1.2079 9.8529C1.63264 7.71863 2.68088 5.75829 4.21999 4.2199C6.28338 2.15651 9.08193 0.997314 12 0.997314C14.9181 0.997314 17.7166 2.15651 19.78 4.2199C21.8434 6.28328 23.0026 9.08183 23.0026 11.9999C23.0026 14.918 21.8434 17.7165 19.78 19.7799C18.7608 20.8048 17.5483 21.6172 16.2128 22.1699C14.8773 22.7226 13.4454 23.0048 12 22.9999ZM12 2.9999C9.9177 2.99806 7.89919 3.71833 6.28843 5.03796C4.67768 6.35759 3.57434 8.19492 3.16644 10.2369C2.75854 12.2788 3.07131 14.3991 4.05146 16.2362C5.03161 18.0734 6.61848 19.5139 8.54167 20.3122C10.4649 21.1105 12.6054 21.2173 14.5984 20.6142C16.5915 20.0112 18.3138 18.7357 19.4719 17.0052C20.6299 15.2746 21.1521 13.196 20.9493 11.1236C20.7466 9.0512 19.8315 7.11322 18.36 5.6399C17.527 4.80126 16.5361 4.13612 15.4444 3.68297C14.3527 3.22982 13.182 2.99765 12 2.9999Z"/>
        <path d="M10.9999 15.9999C10.8683 16.0007 10.7379 15.9755 10.616 15.9257C10.4942 15.8759 10.3834 15.8026 10.2899 15.7099L7.28994 12.7099C7.1967 12.6167 7.12274 12.506 7.07228 12.3842C7.02182 12.2624 6.99585 12.1318 6.99585 11.9999C6.99585 11.7336 7.10164 11.4782 7.28994 11.2899C7.47825 11.1016 7.73364 10.9959 7.99994 10.9959C8.26624 10.9959 8.52164 11.1016 8.70994 11.2899L10.9999 13.5899L16.2899 8.28994C16.4782 8.10164 16.7336 7.99585 16.9999 7.99585C17.2662 7.99585 17.5216 8.10164 17.7099 8.28994C17.8982 8.47825 18.004 8.73364 18.004 8.99994C18.004 9.26624 17.8982 9.52164 17.7099 9.70994L11.7099 15.7099C11.6165 15.8026 11.5057 15.8759 11.3838 15.9257C11.262 15.9755 11.1315 16.0007 10.9999 15.9999Z"/>
    </symbol>

    <symbol id="chevron" viewBox="0 0 9 15">
        <path d="M1.49994 14.9999C1.36833 15.0007 1.23787 14.9755 1.11603 14.9257C0.994195 14.8759 0.883379 14.8026 0.789939 14.7099C0.696211 14.617 0.621816 14.5064 0.571048 14.3845C0.520279 14.2627 0.494141 14.132 0.494141 13.9999C0.494141 13.8679 0.520279 13.7372 0.571048 13.6154C0.621816 13.4935 0.696211 13.3829 0.789939 13.2899L6.08994 7.99994L0.789939 2.70994C0.601635 2.52164 0.495848 2.26624 0.495848 1.99994C0.495848 1.86808 0.521819 1.73751 0.572279 1.61569C0.622739 1.49387 0.6967 1.38318 0.789939 1.28994C0.883177 1.1967 0.993867 1.12274 1.11569 1.07228C1.23751 1.02182 1.36808 0.99585 1.49994 0.99585C1.76624 0.99585 2.02164 1.10164 2.20994 1.28994L8.20994 7.28994C8.30367 7.3829 8.37806 7.49351 8.42883 7.61536C8.4796 7.73722 8.50574 7.86793 8.50574 7.99994C8.50574 8.13195 8.4796 8.26266 8.42883 8.38452C8.37806 8.50638 8.30367 8.61698 8.20994 8.70994L2.20994 14.7099C2.1165 14.8026 2.00568 14.8759 1.88385 14.9257C1.76201 14.9755 1.63155 15.0007 1.49994 14.9999Z"/>
    </symbol>

    <symbol id="security" viewBox="0 0 24 24">
        <path d="M21.2801 3.67005L12.2801 1.00005C12.0968 0.949852 11.9034 0.949852 11.7201 1.00005L2.72006 3.63005C2.50562 3.69241 2.31822 3.82474 2.18773 4.00598C2.05725 4.18721 1.99118 4.40691 2.00006 4.63005V10.0001C2.00006 16.0001 5.71006 21.0001 11.6901 23.0001C11.7928 23.0152 11.8973 23.0152 12.0001 23.0001C12.1085 22.998 12.2162 22.9812 12.3201 22.9501C18.2901 21.0001 22.0001 16.0001 22.0001 10.0001V4.63005C22.0001 4.41368 21.9299 4.20315 21.8001 4.03005C21.6702 3.85696 21.4878 3.73064 21.2801 3.67005V3.67005ZM20.0001 10.0001C19.9959 12.4331 19.2187 14.8019 17.7808 16.7647C16.3429 18.7274 14.3186 20.1825 12.0001 20.9201C9.68147 20.1825 7.65717 18.7274 6.21928 16.7647C4.78139 14.8019 4.00426 12.4331 4.00006 10.0001V5.38005L12.0001 3.00005L20.0001 5.34005V10.0001Z"/>
        <path d="M8.5 9C8.50221 9.83586 8.80781 10.6425 9.36 11.27C8.64045 11.7174 8.04639 12.3402 7.63358 13.0801C7.22077 13.82 7.00275 14.6527 7 15.5C7 15.7652 7.10536 16.0196 7.29289 16.2071C7.48043 16.3946 7.73478 16.5 8 16.5C8.26522 16.5 8.51957 16.3946 8.70711 16.2071C8.89464 16.0196 9 15.7652 9 15.5C9 14.7044 9.31607 13.9413 9.87868 13.3787C10.4413 12.8161 11.2044 12.5 12 12.5C12.7956 12.5 13.5587 12.8161 14.1213 13.3787C14.6839 13.9413 15 14.7044 15 15.5C15 15.7652 15.1054 16.0196 15.2929 16.2071C15.4804 16.3946 15.7348 16.5 16 16.5C16.2652 16.5 16.5196 16.3946 16.7071 16.2071C16.8946 16.0196 17 15.7652 17 15.5C16.9972 14.6527 16.7792 13.82 16.3664 13.0801C15.9536 12.3402 15.3595 11.7174 14.64 11.27C15.1922 10.6425 15.4978 9.83586 15.5 9C15.5 8.07174 15.1313 7.1815 14.4749 6.52513C13.8185 5.86875 12.9283 5.5 12 5.5C11.0717 5.5 10.1815 5.86875 9.52513 6.52513C8.86875 7.1815 8.5 8.07174 8.5 9V9ZM13.5 9C13.5 9.29667 13.412 9.58668 13.2472 9.83335C13.0824 10.08 12.8481 10.2723 12.574 10.3858C12.2999 10.4994 11.9983 10.5291 11.7074 10.4712C11.4164 10.4133 11.1491 10.2704 10.9393 10.0607C10.7296 9.85088 10.5867 9.58361 10.5288 9.29264C10.4709 9.00166 10.5006 8.70006 10.6142 8.42597C10.7277 8.15189 10.92 7.91762 11.1666 7.7528C11.4133 7.58797 11.7033 7.5 12 7.5C12.3978 7.5 12.7794 7.65804 13.0607 7.93934C13.342 8.22064 13.5 8.60218 13.5 9Z"/>
    </symbol>

    <symbol id="parking" viewBox="0 0 24 24">
        <path d="M12 0.999954C9.68056 0.938029 7.43111 1.79778 5.74425 3.39092C4.05739 4.98407 3.07061 7.18077 3 9.49995C3 16.42 11.06 22.5 11.4 22.8C11.5731 22.9298 11.7836 23 12 23C12.2164 23 12.4269 22.9298 12.6 22.8C12.94 22.54 21 16.42 21 9.49995C20.9294 7.18077 19.9426 4.98407 18.2558 3.39092C16.5689 1.79778 14.3194 0.938029 12 0.999954ZM12 20.72C10.2 19.21 5 14.42 5 9.49995C5.07032 7.71114 5.84628 6.02299 7.15812 4.80485C8.46996 3.58671 10.2109 2.93775 12 2.99995C13.7891 2.93775 15.53 3.58671 16.8419 4.80485C18.1537 6.02299 18.9297 7.71114 19 9.49995C19 14.42 13.8 19.21 12 20.72Z"/>
        <path d="M13.5 6H10.5C10.2348 6 9.98043 6.10536 9.79289 6.29289C9.60536 6.48043 9.5 6.73478 9.5 7V15C9.5 15.2652 9.60536 15.5196 9.79289 15.7071C9.98043 15.8946 10.2348 16 10.5 16C10.7652 16 11.0196 15.8946 11.2071 15.7071C11.3946 15.5196 11.5 15.2652 11.5 15V12H13.5C14.2956 12 15.0587 11.6839 15.6213 11.1213C16.1839 10.5587 16.5 9.79565 16.5 9C16.5 8.20435 16.1839 7.44129 15.6213 6.87868C15.0587 6.31607 14.2956 6 13.5 6ZM13.5 10H11.5V8H13.5C13.7652 8 14.0196 8.10536 14.2071 8.29289C14.3946 8.48043 14.5 8.73478 14.5 9C14.5 9.26522 14.3946 9.51957 14.2071 9.70711C14.0196 9.89464 13.7652 10 13.5 10Z"/>
    </symbol>

    <symbol id="restaurant" viewBox="0 0 24 24">
        <path d="M10 1.5C9.73481 1.5 9.48046 1.60536 9.29292 1.79289C9.10538 1.98043 9.00003 2.23478 9.00003 2.5V7.5C9.00361 7.79983 8.90727 8.09233 8.7262 8.33134C8.54513 8.57035 8.28964 8.74228 8.00003 8.82V2C8.00003 1.73478 7.89467 1.48043 7.70713 1.29289C7.5196 1.10536 7.26524 1 7.00003 1C6.73481 1 6.48046 1.10536 6.29292 1.29289C6.10538 1.48043 6.00003 1.73478 6.00003 2V8.82C5.71042 8.74228 5.45493 8.57035 5.27386 8.33134C5.09279 8.09233 4.99644 7.79983 5.00003 7.5V2.5C5.00003 2.23478 4.89467 1.98043 4.70713 1.79289C4.5196 1.60536 4.26524 1.5 4.00003 1.5C3.73481 1.5 3.48046 1.60536 3.29292 1.79289C3.10538 1.98043 3.00003 2.23478 3.00003 2.5V7.5C2.99669 8.33481 3.30059 9.14167 3.85384 9.76685C4.40709 10.392 5.17101 10.7918 6.00003 10.89V22C6.00003 22.2652 6.10538 22.5196 6.29292 22.7071C6.48046 22.8946 6.73481 23 7.00003 23C7.26524 23 7.5196 22.8946 7.70713 22.7071C7.89467 22.5196 8.00003 22.2652 8.00003 22V10.89C8.82905 10.7918 9.59297 10.392 10.1462 9.76685C10.6995 9.14167 11.0034 8.33481 11 7.5V2.5C11 2.23478 10.8947 1.98043 10.7071 1.79289C10.5196 1.60536 10.2652 1.5 10 1.5Z"/>
        <path d="M21.0001 6C21.0001 3.24 19.2101 1 17.0001 1C14.7901 1 13.0001 3.24 13.0001 6C12.9408 7.01492 13.1975 8.02325 13.7347 8.88637C14.2719 9.74948 15.0633 10.425 16.0001 10.82V22C16.0001 22.2652 16.1054 22.5196 16.2929 22.7071C16.4805 22.8946 16.7348 23 17.0001 23C17.2653 23 17.5196 22.8946 17.7072 22.7071C17.8947 22.5196 18.0001 22.2652 18.0001 22V10.82C18.9368 10.425 19.7282 9.74948 20.2654 8.88637C20.8026 8.02325 21.0593 7.01492 21.0001 6ZM17.0001 9C15.9201 9 15.0001 7.63 15.0001 6C15.0001 4.37 15.9201 3 17.0001 3C18.0801 3 19.0001 4.37 19.0001 6C19.0001 7.63 18.0801 9 17.0001 9Z"/>
    </symbol>


    <symbol id="breadcrumbs-home" viewBox="0 0 12 12">
        <path d="M11.62 4.22L9.99998 2.92V1C9.99998 0.734784 9.89462 0.48043 9.70708 0.292893C9.51955 0.105357 9.26519 0 8.99998 0C8.73476 0 8.48041 0.105357 8.29287 0.292893C8.10534 0.48043 7.99998 0.734784 7.99998 1V1.32L6.61998 0.22C6.44343 0.080491 6.22499 0.00460172 5.99998 0.00460172C5.77496 0.00460172 5.55653 0.080491 5.37998 0.22L0.379979 4.22C0.218821 4.34929 0.101665 4.52532 0.0446156 4.72389C-0.0124339 4.92247 -0.00657611 5.13384 0.0613838 5.32895C0.129344 5.52406 0.256069 5.69333 0.42414 5.81349C0.59221 5.93366 0.793374 5.99881 0.999978 6V11C0.999978 11.2652 1.10534 11.5196 1.29287 11.7071C1.48041 11.8946 1.73476 12 1.99998 12H9.99998C10.2652 12 10.5195 11.8946 10.7071 11.7071C10.8946 11.5196 11 11.2652 11 11V6C11.1502 5.99931 11.2983 5.96479 11.4333 5.899C11.5684 5.83321 11.6869 5.73785 11.78 5.62C11.9435 5.41277 12.0184 5.14929 11.9885 4.88703C11.9585 4.62477 11.826 4.385 11.62 4.22ZM6.99998 10V8C6.99998 7.73478 6.89462 7.48043 6.70709 7.29289C6.51955 7.10536 6.26519 7 5.99998 7C5.73476 7 5.48041 7.10536 5.29287 7.29289C5.10534 7.48043 4.99998 7.73478 4.99998 8V10H2.99998V4.68L5.99998 2.28L8.99998 4.68V10H6.99998Z"/>
    </symbol>

    <symbol id="quote" viewBox="0 0 15 30">
        <path d="M15 6V0C11.0218 0 7.20644 1.58035 4.3934 4.3934C1.58035 7.20644 0 11.0218 0 15L0 30H15V15H6C6 12.6131 6.94821 10.3239 8.63604 8.63604C10.3239 6.94821 12.6131 6 15 6Z"/>
    </symbol>




    <symbol id="siluet" viewBox="0 0 21 21">
        <path d="M17 17H16V19H15V20H6V21H15V20H16V19H17V17H18V13H17V17Z" fill="#33343D"/>
        <path d="M19 11H18V13H19V11Z" fill="#33343D"/>
        <path d="M20 9H19V11H20V9Z" fill="#33343D"/>
        <path d="M21 7H20V9H21V7Z" fill="#33343D"/>
        <path d="M18 6V7H17V8H16V5H17V2H16V1H14V2H13V5H12V1H11V0H9V1H8V8H7V5H6V2H5V1H3V2H2V5H3V8H4V11H3V10H0V13H1V11H3V12H4V13H5V8H4V5H3V2H5V5H6V8H7V10H8V11H9V1H11V11H12V8H13V5H14V2H16V5H15V9H14V12H15V11H16V10H17V8H18V7H20V6H18ZM15 10V9H16V10H15Z" fill="#33343D"/>
        <path d="M2 13H1V14H2V13Z" fill="#33343D"/>
        <path d="M3 14H2V15H3V14Z" fill="#33343D"/>
        <path d="M4 15H3V17H4V15Z" fill="#33343D"/>
        <path d="M5 17H4V19H5V17Z" fill="#33343D"/>
        <path d="M6 19H5V20H6V19Z" fill="#33343D"/>
    </symbol>

</svg>

