<?xml version="1.0" standalone="no"?>
<!DOCTYPE svg PUBLIC "-//W3C//DTD SVG 20010904//EN"
 "http://www.w3.org/TR/2001/REC-SVG-20010904/DTD/svg10.dtd">
<svg version="1.0" xmlns="http://www.w3.org/2000/svg"
 width="140.000000pt" height="140.000000pt" viewBox="0 0 140.000000 140.000000"
 preserveAspectRatio="xMidYMid meet">
<metadata>
Created by potrace 1.14, written by Peter Selinger 2001-2017
</metadata>
<g transform="translate(0.000000,140.000000) scale(0.100000,-0.100000)"
fill="#000000" stroke="none">
<path d="M794 1295 c-77 -60 -88 -207 -32 -431 11 -44 30 -94 43 -110 22 -28
27 -29 102 -28 89 1 267 36 329 65 78 37 106 91 80 154 -20 46 -54 69 -145 95
-101 29 -144 64 -205 169 -66 116 -108 136 -172 86z"/>
<path d="M516 1259 c-14 -16 -44 -67 -66 -112 -42 -85 -95 -144 -160 -177 -58
-30 -92 -67 -85 -93 18 -61 114 -100 280 -113 125 -10 144 -16 124 -40 -6 -7
-14 -12 -18 -10 -10 6 -114 17 -212 21 -114 5 -207 -12 -275 -49 -80 -43 -104
-70 -104 -116 l0 -40 52 54 c82 83 162 114 286 111 74 -2 106 -21 40 -23 -91
-4 -162 -42 -192 -105 -44 -94 2 -156 131 -177 65 -11 119 -37 169 -82 37 -34
74 -95 74 -123 0 -35 30 -73 70 -89 71 -28 97 -20 131 44 12 24 14 99 7 335
-3 76 -2 80 20 83 24 4 23 10 28 -118 4 -128 13 -181 36 -222 33 -58 100 -94
170 -89 32 2 78 63 132 175 58 119 71 134 158 189 31 20 63 49 71 64 27 53 3
119 -56 150 -39 22 -172 26 -298 9 -78 -10 -100 -11 -166 -7 -29 1 -77 43 -96
83 -8 18 -25 92 -37 163 -33 191 -69 296 -115 327 -26 19 -73 8 -99 -23z"/>
</g>
</svg>
